// Created by Crowbar 0.76
version 1
nodes
  0 "ValveBiped.Bip01_Pelvis" -1
  1 "ValveBiped.Bip01_L_Thigh" 0
  2 "ValveBiped.Bip01_L_Calf" 1
  3 "ValveBiped.Bip01_L_Foot" 2
  4 "ValveBiped.attachment_bandage_legL" 1
  5 "ValveBiped.Bip01_R_Thigh" 0
  6 "ValveBiped.Bip01_R_Calf" 5
  7 "ValveBiped.Bip01_R_Foot" 6
  8 "ValveBiped.attachment_bandage_legR" 5
  9 "ValveBiped.Bip01_Spine" 0
  10 "ValveBiped.Bip01_Spine1" 9
  11 "ValveBiped.Bip01_Spine2" 10
  12 "ValveBiped.Bip01_Spine4" 11
  13 "ValveBiped.Bip01_Neck1" 12
  14 "ValveBiped.Bip01_Head1" 13
  15 "ValveBiped.forward" 14
  16 "ValveBiped.Bip01_L_Clavicle" 12
  17 "ValveBiped.Bip01_L_UpperArm" 16
  18 "ValveBiped.Bip01_L_Forearm" 17
  19 "ValveBiped.Bip01_L_Hand" 18
  20 "ValveBiped.Bip01_L_Finger2" 19
  21 "ValveBiped.Bip01_L_Finger21" 20
  22 "ValveBiped.Bip01_L_Finger22" 21
  23 "ValveBiped.Bip01_L_Finger1" 19
  24 "ValveBiped.Bip01_L_Finger11" 23
  25 "ValveBiped.Bip01_L_Finger12" 24
  26 "ValveBiped.Bip01_L_Finger0" 19
  27 "ValveBiped.Bip01_L_Finger01" 26
  28 "ValveBiped.Bip01_L_Finger02" 27
  29 "ValveBiped.Bip01_L_Finger4" 19
  30 "ValveBiped.Bip01_L_Finger41" 29
  31 "ValveBiped.Bip01_L_Finger42" 30
  32 "ValveBiped.Bip01_L_Finger3" 19
  33 "ValveBiped.Bip01_L_Finger31" 32
  34 "ValveBiped.Bip01_L_Finger32" 33
  35 "ValveBiped.L_weapon_bone" 19
  36 "ValveBiped.weapon_bone_Clip2" 19
  37 "ValveBiped.weapon_bone_Clip2_Bullets" 36
  38 "ValveBiped.weapon_bolt_l" 19
  39 "ValveBiped.attachment_bandage_armL" 18
  40 "ValveBiped.attachment_armL_T" 18
  41 "ValveBiped.Bip01_R_Clavicle" 12
  42 "ValveBiped.Bip01_R_UpperArm" 41
  43 "ValveBiped.Bip01_R_Forearm" 42
  44 "ValveBiped.Bip01_R_Hand" 43
  45 "ValveBiped.Bip01_R_Finger2" 44
  46 "ValveBiped.Bip01_R_Finger21" 45
  47 "ValveBiped.Bip01_R_Finger22" 46
  48 "ValveBiped.Bip01_R_Finger1" 44
  49 "ValveBiped.Bip01_R_Finger11" 48
  50 "ValveBiped.Bip01_R_Finger12" 49
  51 "ValveBiped.Bip01_R_Finger0" 44
  52 "ValveBiped.Bip01_R_Finger01" 51
  53 "ValveBiped.Bip01_R_Finger02" 52
  54 "ValveBiped.Bip01_R_Finger4" 44
  55 "ValveBiped.Bip01_R_Finger41" 54
  56 "ValveBiped.Bip01_R_Finger42" 55
  57 "ValveBiped.Bip01_R_Finger3" 44
  58 "ValveBiped.Bip01_R_Finger31" 57
  59 "ValveBiped.Bip01_R_Finger32" 58
  60 "ValveBiped.weapon_bone" 44
  61 "ValveBiped.weapon_bone_Clip" 60
  62 "ValveBiped.weapon_bone_Clip_Bullets" 61
  63 "ValveBiped.weapon_bone_extra" 60
  64 "ValveBiped.weapon_bolt" 60
  65 "ValveBiped.weapon_bolt_opposite" 60
  66 "ValveBiped.weapon_charger" 60
  67 "ValveBiped.attachment_armR_T" 43
  68 "ValveBiped.Bip01_L_Toe0" 3
  69 "ValveBiped.Bip01_R_Toe0" 7
  70 "ValveBiped.Bip01_L_Ulna" 18
  71 "ValveBiped.Bip01_L_Wrist" 18
  72 "ValveBiped.Bip01_R_Wrist" 43
  73 "ValveBiped.Bip01_R_Ulna" 43
  74 "_yure_hair_h_F04a" 14
  75 "cf_J_hairFCL_00" 14
  76 "cf_J_hairFCL_00 19380" 14
  77 "joint3" 14
  78 "joint3-2" 14
  79 "joint3 19940" 14
  80 "joint3-4" 14
  81 "joint 2" 14
  82 "cf_J_hairFL_02_01" 14
  83 "_yure_hair_h_R03a" 14
  84 "_yure_hair_h_R04a" 14
  85 "_yure_hair_h_R05a" 14
  86 "_yure_hair_h_R06a" 14
  87 "_yure_hair_h_R09a" 14
  88 "_yure_hair_h_R10a" 14
  89 "joint3-4 21480" 14
  90 "joint3-4 21630" 14
  91 "cf_J_hairFR_02_01 21840" 14
  92 "joint 2 22110" 14
  93 "joint3-3 22930" 14
  94 "cf_J_hairFCL_00 23150" 14
  95 "joint1 23560" 14
  96 "joint4 23930" 14
  97 "joint4 24080" 14
  98 "joint5-2" 14
  99 "joint1 24420" 14
  100 "A00_J_kamiF00" 14
  101 "cf_j_bust01_L" 12
  102 "cf_j_bust01_R" 12
  103 "cf_j_siri_L" 0
  104 "cf_j_siri_R" 0
end
skeleton
  time 0
    0 0.000000 -1.826172 44.750000 1.570793 0.000003 -0.000001
    1 4.376121 0.000004 0.000003 -1.572134 0.030935 -1.605921
    2 20.987041 0.000044 0.000000 -0.004940 -0.000013 0.009904
    3 20.598913 -0.000163 0.000000 0.008800 0.017186 -1.002421
    4 -0.000004 0.000000 0.000000 -0.076668 -0.067464 -1.299264
    5 -4.376120 0.000004 -0.000003 -1.569500 0.030937 -1.535671
    6 20.987053 0.000012 -0.000001 0.004896 0.000013 0.009895
    7 20.598890 -0.000022 0.000000 -0.002131 -0.019445 -1.002267
    8 7.054199 -0.000155 -0.000003 -0.001297 0.000000 -0.000028
    9 0.000000 2.132603 0.371291 1.570795 0.086294 1.570791
    10 3.395267 0.238967 -0.000019 0.000000 0.000001 -0.029230
    11 5.793369 0.014373 -0.000024 0.000000 -0.000044 0.100325
    12 7.199474 -2.087731 -0.000348 0.000009 0.000052 0.194106
    13 2.528107 2.978355 0.033581 3.141588 -0.000020 0.372978
    14 2.072781 0.596146 0.000035 -0.000004 0.000014 0.302746
    15 2.651367 -2.443398 0.000078 -1.570769 -0.000013 -1.088253
    16 0.409878 1.879074 2.285606 1.564404 -1.116058 2.970022
    17 3.206438 1.647999 0.817590 -1.571833 -0.041414 0.423708
    18 10.082123 0.000008 -0.000008 -0.000157 -0.023758 0.012714
    19 9.916081 -0.000014 0.000004 1.573453 -0.106734 0.134900
    20 2.398470 -0.155090 0.301256 0.047792 -0.128157 -0.153491
    21 1.834572 -0.000008 0.000000 -0.033139 0.009936 0.005258
    22 0.936184 -0.000008 0.000000 0.000001 0.003076 -0.216393
    23 2.256720 -0.240746 1.013133 0.283964 -0.199131 -0.152045
    24 1.657034 0.000000 0.000002 -0.041952 -0.007203 -0.001986
    25 0.835274 -0.000004 0.000002 -0.000007 0.002592 -0.244321
    26 0.952162 -0.509850 1.295240 -1.460257 -0.899974 -0.507027
    27 0.929320 -0.000001 0.000000 -0.125367 -0.070511 0.142778
    28 1.121023 -0.000003 -0.000015 0.000007 0.011267 0.362863
    29 2.177790 -0.495888 -1.031777 -0.461778 0.003761 -0.157410
    30 1.403975 -0.000004 0.000000 0.002231 0.005569 0.006441
    31 0.714828 0.000000 0.000000 -0.000006 0.004978 -0.244261
    32 2.355516 -0.285316 -0.381295 -0.186245 -0.055105 -0.146996
    33 1.723431 0.000004 0.000001 0.003256 0.012407 -0.028294
    34 0.853638 -0.000004 0.000000 0.000001 0.007356 -0.430819
    35 2.776209 -1.936707 -0.109052 -1.334067 -0.543148 -1.732725
    36 3.129091 -1.654705 -1.237501 1.432853 0.264534 1.481887
    37 0.116940 4.311625 0.061869 0.000014 -0.000038 0.000000
    38 0.000000 -0.000004 0.000000 -0.277827 -0.140816 -0.067729
    39 -0.000001 0.000006 -0.000027 1.735497 0.067906 0.153400
    40 -0.000001 0.000006 -0.000027 1.735497 0.067906 0.153400
    41 0.409912 1.879077 -2.285608 -1.574434 1.117754 2.959609
    42 3.212900 1.643150 -0.801834 1.568873 0.036974 0.421981
    43 10.082111 -0.000007 -0.000015 -0.000442 0.023735 0.012754
    44 9.916080 -0.000027 0.000004 -1.627591 -0.333149 -0.444026
    45 2.022200 0.744484 1.106317 0.053617 -0.465428 0.254238
    46 1.834570 0.000008 0.000000 0.031962 -0.009871 0.005361
    47 0.936184 0.000008 0.000000 -0.000001 -0.004460 -0.216350
    48 2.318995 0.778755 0.439281 -0.190447 -0.394848 0.262629
    49 1.657021 0.000004 0.000002 0.043794 0.007188 -0.002046
    50 0.835274 0.000000 0.000000 0.000005 -0.004203 -0.244309
    51 1.594398 0.152031 -0.528198 2.051678 0.344556 0.092379
    52 0.929311 0.000000 -0.000008 0.176247 0.109730 0.115471
    53 1.121016 -0.000002 0.000008 -0.000012 -0.009620 0.362886
    54 1.306009 0.057137 2.084301 0.568452 -0.596396 0.235343
    55 1.403975 -0.000008 0.000004 -0.015850 -0.005543 0.006442
    56 0.714825 -0.000008 0.000000 0.000003 -0.006133 -0.244282
    57 1.690041 0.456825 1.646322 0.273920 -0.538767 0.254195
    58 1.723421 -0.000008 -0.000001 -0.001035 -0.012379 -0.028323
    59 0.853632 -0.000011 -0.000001 0.000002 -0.009662 -0.430785
    60 3.386776 0.000008 0.000003 -1.525777 -0.522598 0.338973
    61 9.999981 -0.000001 0.000004 0.000000 1.570547 0.000000
    62 0.000000 1.000001 0.000004 -0.000004 0.000000 0.000000
    63 9.395855 0.665158 -0.018902 0.000000 1.570547 0.000007
    64 0.000000 0.000000 0.000004 0.000000 1.570544 -0.000003
    65 0.000000 0.000000 0.000004 0.000000 1.570544 -0.000003
    66 0.000000 0.000000 0.000004 0.000000 1.570544 -0.000003
    67 -0.000002 -0.000021 -0.000008 1.009805 0.144304 0.072942
    68 6.073754 -1.763624 0.917105 -0.001051 -0.003488 -0.555378
    69 6.071373 -1.770528 -0.919559 -0.061128 0.006496 -0.556046
    70 5.218289 0.079762 0.040157 -0.284782 0.005866 -0.003068
    71 9.684253 -0.006014 -0.001686 -0.865704 0.005863 -0.003092
    72 9.684241 -0.006032 0.001698 0.867786 -0.005748 -0.003692
    73 5.218286 0.079850 -0.039951 0.287062 -0.005832 -0.003178
    74 4.634613 0.744039 3.646072 0.000000 1.570767 -1.298324
    75 5.728279 -2.767732 1.149469 0.000000 1.570766 -1.297584
    76 5.420471 -2.348393 -1.947153 0.000000 1.570766 -1.299905
    77 1.150070 1.566597 3.267944 0.000000 1.570766 -1.300228
    78 2.572441 1.713611 -3.857942 0.000000 1.570767 -1.299323
    79 1.253540 1.441648 -3.254588 0.000000 1.570764 -1.298072
    80 2.856277 -1.567339 3.311194 0.000000 1.570767 -1.298983
    81 4.389450 -0.568390 -3.334203 0.000000 1.570767 -1.298396
    82 2.976036 -1.587436 -2.985373 0.000000 1.570767 -1.299623
    83 2.320274 2.156152 -1.948333 0.000000 1.570767 -1.299323
    84 3.570358 4.565742 -0.209379 0.000000 1.570766 -1.299057
    85 3.890305 4.288139 -2.303344 0.000000 1.570763 -1.298947
    86 4.299530 2.550873 -3.227993 0.000000 1.570766 -1.299229
    87 3.840195 4.769688 1.898130 0.000000 1.570767 -1.299323
    88 4.223518 3.281555 3.147135 0.000000 1.570765 -1.297684
    89 0.757805 -1.401818 -2.320375 0.000000 1.570765 -1.300019
    90 0.943230 -1.335798 2.609773 0.000000 1.570767 -1.300554
    91 2.808044 -1.678250 3.004888 0.000000 1.570765 -1.297208
    92 4.216133 -0.340320 3.817385 0.000000 1.570767 -1.299003
    93 4.259743 -1.350627 -2.975466 0.000000 1.570765 -1.299300
    94 5.967102 -2.888951 0.643176 0.000000 1.570766 -1.298371
    95 2.642776 0.132514 3.477835 0.000000 1.570765 -1.296716
    96 0.675591 2.483843 -2.602155 0.000000 1.570766 -1.300350
    97 0.685600 2.636337 2.667086 0.000000 1.570766 -1.298686
    98 3.079514 4.101740 3.646753 0.000000 1.570767 -1.299253
    99 4.185181 -1.723525 3.784893 0.000000 1.570765 -1.296842
    100 8.227280 -1.264390 1.383579 0.000000 1.570766 -1.299060
    101 -3.609062 7.876989 2.626721 -1.563875 -1.229755 -1.531544
    102 -3.609032 7.876991 -2.626754 1.577688 -1.229762 1.610074
    103 3.356303 -0.166393 -1.115098 -1.570737 0.000043 0.000044
    104 -3.356387 -0.166485 -1.115059 -1.570751 -0.000001 0.000000
  time 1
    0 0.000000 -1.826172 44.750000 1.570793 0.000003 -0.000001
    1 4.376121 0.000004 0.000003 -1.572134 0.030935 -1.605921
    2 20.987041 0.000044 0.000000 -0.004940 -0.000013 0.009904
    3 20.598913 -0.000163 0.000000 0.008800 0.017186 -1.002421
    4 -0.000004 0.000000 0.000000 -0.076668 -0.067464 -1.299264
    5 -4.376120 0.000004 -0.000003 -1.569500 0.030937 -1.535671
    6 20.987053 0.000012 -0.000001 0.004896 0.000013 0.009895
    7 20.598890 -0.000022 0.000000 -0.002131 -0.019445 -1.002267
    8 7.054199 -0.000155 -0.000003 -0.001297 0.000000 -0.000028
    9 0.000000 2.132603 0.371291 1.570795 0.086294 1.570791
    10 3.395267 0.238967 -0.000019 0.000000 0.000001 -0.029230
    11 5.793369 0.014373 -0.000024 0.000000 -0.000044 0.100325
    12 7.199474 -2.087731 -0.000348 0.000009 0.000052 0.194106
    13 2.528107 2.978355 0.033581 3.141588 -0.000020 0.372978
    14 2.072781 0.596146 0.000035 -0.000004 0.000014 0.302746
    15 2.651367 -2.443398 0.000078 -1.570769 -0.000013 -1.088253
    16 0.409878 1.879074 2.285606 1.564404 -1.116058 2.970022
    17 3.206438 1.647999 0.817590 -1.571833 -0.041414 0.423708
    18 10.082123 0.000008 -0.000008 -0.000157 -0.023758 0.012714
    19 9.916081 -0.000014 0.000004 1.573453 -0.106734 0.134900
    20 2.398470 -0.155090 0.301256 0.047792 -0.128157 -0.153491
    21 1.834572 -0.000008 0.000000 -0.033139 0.009936 0.005258
    22 0.936184 -0.000008 0.000000 0.000001 0.003076 -0.216393
    23 2.256720 -0.240746 1.013133 0.283964 -0.199131 -0.152045
    24 1.657034 0.000000 0.000002 -0.041952 -0.007203 -0.001986
    25 0.835274 -0.000004 0.000002 -0.000007 0.002592 -0.244321
    26 0.952162 -0.509850 1.295240 -1.460257 -0.899974 -0.507027
    27 0.929320 -0.000001 0.000000 -0.125367 -0.070511 0.142778
    28 1.121023 -0.000003 -0.000015 0.000007 0.011267 0.362863
    29 2.177790 -0.495888 -1.031777 -0.461778 0.003761 -0.157410
    30 1.403975 -0.000004 0.000000 0.002231 0.005569 0.006441
    31 0.714828 0.000000 0.000000 -0.000006 0.004978 -0.244261
    32 2.355516 -0.285316 -0.381295 -0.186245 -0.055105 -0.146996
    33 1.723431 0.000004 0.000001 0.003256 0.012407 -0.028294
    34 0.853638 -0.000004 0.000000 0.000001 0.007356 -0.430819
    35 2.776209 -1.936707 -0.109052 -1.334067 -0.543148 -1.732725
    36 3.129091 -1.654705 -1.237501 1.432853 0.264534 1.481887
    37 0.116940 4.311625 0.061869 0.000014 -0.000038 0.000000
    38 0.000000 -0.000004 0.000000 -0.277827 -0.140816 -0.067729
    39 -0.000001 0.000006 -0.000027 1.735497 0.067906 0.153400
    40 -0.000001 0.000006 -0.000027 1.735497 0.067906 0.153400
    41 0.409912 1.879077 -2.285608 -1.574434 1.117754 2.959609
    42 3.212900 1.643150 -0.801834 1.568873 0.036974 0.421981
    43 10.082111 -0.000007 -0.000015 -0.000442 0.023735 0.012754
    44 9.916080 -0.000027 0.000004 -1.627591 -0.333149 -0.444026
    45 2.022200 0.744484 1.106317 0.053617 -0.465428 0.254238
    46 1.834570 0.000008 0.000000 0.031962 -0.009871 0.005361
    47 0.936184 0.000008 0.000000 -0.000001 -0.004460 -0.216350
    48 2.318995 0.778755 0.439281 -0.190447 -0.394848 0.262629
    49 1.657021 0.000004 0.000002 0.043794 0.007188 -0.002046
    50 0.835274 0.000000 0.000000 0.000005 -0.004203 -0.244309
    51 1.594398 0.152031 -0.528198 2.051678 0.344556 0.092379
    52 0.929311 0.000000 -0.000008 0.176247 0.109730 0.115471
    53 1.121016 -0.000002 0.000008 -0.000012 -0.009620 0.362886
    54 1.306009 0.057137 2.084301 0.568452 -0.596396 0.235343
    55 1.403975 -0.000008 0.000004 -0.015850 -0.005543 0.006442
    56 0.714825 -0.000008 0.000000 0.000003 -0.006133 -0.244282
    57 1.690041 0.456825 1.646322 0.273920 -0.538767 0.254195
    58 1.723421 -0.000008 -0.000001 -0.001035 -0.012379 -0.028323
    59 0.853632 -0.000011 -0.000001 0.000002 -0.009662 -0.430785
    60 3.386776 0.000008 0.000003 -1.525777 -0.522598 0.338973
    61 9.999981 -0.000001 0.000004 0.000000 1.570547 0.000000
    62 0.000000 1.000001 0.000004 -0.000004 0.000000 0.000000
    63 9.395855 0.665158 -0.018902 0.000000 1.570547 0.000007
    64 0.000000 0.000000 0.000004 0.000000 1.570544 -0.000003
    65 0.000000 0.000000 0.000004 0.000000 1.570544 -0.000003
    66 0.000000 0.000000 0.000004 0.000000 1.570544 -0.000003
    67 -0.000002 -0.000021 -0.000008 1.009805 0.144304 0.072942
    68 6.073754 -1.763624 0.917105 -0.001051 -0.003488 -0.555378
    69 6.071373 -1.770528 -0.919559 -0.061128 0.006496 -0.556046
    70 5.218289 0.079762 0.040157 -0.284782 0.005866 -0.003068
    71 9.684253 -0.006014 -0.001686 -0.865704 0.005863 -0.003092
    72 9.684241 -0.006032 0.001698 0.867786 -0.005748 -0.003692
    73 5.218286 0.079850 -0.039951 0.287062 -0.005832 -0.003178
    74 4.634613 0.744039 3.646072 0.000000 1.570767 -1.298324
    75 5.728279 -2.767732 1.149469 0.000000 1.570766 -1.297584
    76 5.420471 -2.348393 -1.947153 0.000000 1.570766 -1.299905
    77 1.150070 1.566597 3.267944 0.000000 1.570766 -1.300228
    78 2.572441 1.713611 -3.857942 0.000000 1.570767 -1.299323
    79 1.253540 1.441648 -3.254588 0.000000 1.570764 -1.298072
    80 2.856277 -1.567339 3.311194 0.000000 1.570767 -1.298983
    81 4.389450 -0.568390 -3.334203 0.000000 1.570767 -1.298396
    82 2.976036 -1.587436 -2.985373 0.000000 1.570767 -1.299623
    83 2.320274 2.156152 -1.948333 0.000000 1.570767 -1.299323
    84 3.570358 4.565742 -0.209379 0.000000 1.570766 -1.299057
    85 3.890305 4.288139 -2.303344 0.000000 1.570763 -1.298947
    86 4.299530 2.550873 -3.227993 0.000000 1.570766 -1.299229
    87 3.840195 4.769688 1.898130 0.000000 1.570767 -1.299323
    88 4.223518 3.281555 3.147135 0.000000 1.570765 -1.297684
    89 0.757805 -1.401818 -2.320375 0.000000 1.570765 -1.300019
    90 0.943230 -1.335798 2.609773 0.000000 1.570767 -1.300554
    91 2.808044 -1.678250 3.004888 0.000000 1.570765 -1.297208
    92 4.216133 -0.340320 3.817385 0.000000 1.570767 -1.299003
    93 4.259743 -1.350627 -2.975466 0.000000 1.570765 -1.299300
    94 5.967102 -2.888951 0.643176 0.000000 1.570766 -1.298371
    95 2.642776 0.132514 3.477835 0.000000 1.570765 -1.296716
    96 0.675591 2.483843 -2.602155 0.000000 1.570766 -1.300350
    97 0.685600 2.636337 2.667086 0.000000 1.570766 -1.298686
    98 3.079514 4.101740 3.646753 0.000000 1.570767 -1.299253
    99 4.185181 -1.723525 3.784893 0.000000 1.570765 -1.296842
    100 8.227280 -1.264390 1.383579 0.000000 1.570766 -1.299060
    101 -3.609062 7.876989 2.626721 -1.563875 -1.229755 -1.531544
    102 -3.609032 7.876991 -2.626754 1.577688 -1.229762 1.610074
    103 3.356303 -0.166393 -1.115098 -1.570737 0.000043 0.000044
    104 -3.356387 -0.166485 -1.115059 -1.570751 -0.000001 0.000000
end
