// Created by Crowbar 0.76
version 1
nodes
  0 "ValveBiped.Bip01_Pelvis" -1
  1 "ValveBiped.Bip01_L_Thigh" 0
  2 "ValveBiped.Bip01_L_Calf" 1
  3 "ValveBiped.Bip01_L_Foot" 2
  4 "ValveBiped.Bip01_L_Toe0" 3
  5 "ValveBiped.Bip01_R_Thigh" 0
  6 "ValveBiped.Bip01_R_Calf" 5
  7 "ValveBiped.Bip01_R_Foot" 6
  8 "ValveBiped.Bip01_R_Toe0" 7
  9 "ValveBiped.Bip01_Spine" 0
  10 "ValveBiped.Bip01_Spine1" 9
  11 "ValveBiped.Bip01_Spine2" 10
  12 "ValveBiped.Bip01_Spine4" 11
  13 "ValveBiped.Bip01_Neck1" 12
  14 "ValveBiped.Bip01_Head1" 13
  15 "ValveBiped.Bip01_L_Clavicle" 12
  16 "ValveBiped.Bip01_L_UpperArm" 15
  17 "ValveBiped.Bip01_L_Forearm" 16
  18 "ValveBiped.Bip01_L_Hand" 17
  19 "ValveBiped.Bip01_L_Finger2" 18
  20 "ValveBiped.Bip01_L_Finger21" 19
  21 "ValveBiped.Bip01_L_Finger22" 20
  22 "ValveBiped.Bip01_L_Finger1" 18
  23 "ValveBiped.Bip01_L_Finger11" 22
  24 "ValveBiped.Bip01_L_Finger12" 23
  25 "ValveBiped.Bip01_L_Finger0" 18
  26 "ValveBiped.Bip01_L_Finger01" 25
  27 "ValveBiped.Bip01_L_Finger02" 26
  28 "ValveBiped.Bip01_L_Finger4" 18
  29 "ValveBiped.Bip01_L_Finger41" 28
  30 "ValveBiped.Bip01_L_Finger42" 29
  31 "ValveBiped.Bip01_L_Finger3" 18
  32 "ValveBiped.Bip01_L_Finger31" 31
  33 "ValveBiped.Bip01_L_Finger32" 32
  34 "ValveBiped.Bip01_R_Clavicle" 12
  35 "ValveBiped.Bip01_R_UpperArm" 34
  36 "ValveBiped.Bip01_R_Forearm" 35
  37 "ValveBiped.Bip01_R_Hand" 36
  38 "ValveBiped.Bip01_R_Finger2" 37
  39 "ValveBiped.Bip01_R_Finger21" 38
  40 "ValveBiped.Bip01_R_Finger22" 39
  41 "ValveBiped.Bip01_R_Finger1" 37
  42 "ValveBiped.Bip01_R_Finger11" 41
  43 "ValveBiped.Bip01_R_Finger12" 42
  44 "ValveBiped.Bip01_R_Finger0" 37
  45 "ValveBiped.Bip01_R_Finger01" 44
  46 "ValveBiped.Bip01_R_Finger02" 45
  47 "ValveBiped.Bip01_R_Finger4" 37
  48 "ValveBiped.Bip01_R_Finger41" 47
  49 "ValveBiped.Bip01_R_Finger42" 48
  50 "ValveBiped.Bip01_R_Finger3" 37
  51 "ValveBiped.Bip01_R_Finger31" 50
  52 "ValveBiped.Bip01_R_Finger32" 51
  53 "ValveBiped.Skirt.R.001" 0
  54 "Skirt2_r" 53
  55 "ValveBiped.Skirt.B" 0
  56 "Skirtb2" 55
  57 "ValveBiped.Skirt.R" 0
  58 "Skirt5_r" 57
  59 "ValveBiped.Skirt.R.002" 0
  60 "Skirt8_r" 59
  61 "ValveBiped.Skirt.L.001" 0
  62 "Skirt2_l" 61
  63 "ValveBiped.Skirt.L" 0
  64 "Skirt5_l" 63
  65 "ValveBiped.Skirt.L.002" 0
  66 "Skirt8_l" 65
  67 "Hair_002" 14
  68 "Hair_001" 67
  69 "Hair_003" 68
  70 "Hair_006_r" 14
  71 "Hair_005_r" 70
  72 "Hair_007_r" 71
  73 "Hair_009_r" 14
  74 "Hair_010_r" 73
  75 "Hair_011_r" 74
  76 "Hair_004" 14
  77 "Hair_005" 14
  78 "Hair_006" 14
  79 "Hair_006_l" 14
  80 "Hair_005_l" 79
  81 "Hair_007_l" 80
  82 "Hair_009_l" 14
  83 "Hair_010_l" 82
  84 "Hair_011_l" 83
end
skeleton
  time 0
    0 -0.000005 -0.788086 38.468750 1.570793 0.000003 -0.000001
    1 3.982422 -0.000004 -0.000003 -1.570114 -0.064472 -1.586906
    2 15.937500 0.000153 0.000005 -0.004983 -0.042487 0.148088
    3 17.703125 -0.000014 -0.000004 0.008799 0.017186 -1.002419
    4 6.203125 0.000009 0.000000 -0.001050 -0.003487 -0.555370
    5 -3.982422 0.000008 0.000007 -1.571430 -0.064474 -1.554685
    6 15.937500 0.000155 0.000000 0.005108 0.042496 0.148083
    7 17.703125 0.000077 0.000000 -0.002132 -0.019446 -1.002277
    8 6.203125 -0.000008 -0.000003 -0.061129 0.006497 -0.556032
    9 0.000005 4.210938 -1.689453 1.570794 0.086294 1.570791
    10 3.835938 0.000028 0.000001 0.000000 0.000001 -0.029231
    11 3.617188 0.000024 -0.000003 0.000000 -0.000044 0.100328
    12 7.539063 0.000026 0.000000 0.000009 0.000052 0.194099
    13 3.177734 -0.000031 0.000003 3.141588 -0.000019 0.372987
    14 2.968750 -0.000011 0.000000 -0.000004 0.000010 0.302769
    15 2.023438 0.907227 0.852539 1.564402 -1.116058 2.970024
    16 4.980469 -0.000004 0.000007 -1.690890 0.113528 -0.347837
    17 11.117188 -0.000036 0.000004 -0.000782 -0.049713 -0.215962
    18 11.203125 -0.000032 -0.000042 1.573449 -0.106735 0.134901
    19 3.767578 0.152466 0.071350 0.098596 -0.073087 -0.394374
    20 2.037109 -0.000015 0.000005 -0.033325 -0.080209 -0.007832
    21 1.066406 0.000008 -0.000004 -0.000001 0.003076 -0.216400
    22 3.783203 -0.017242 0.794434 0.359810 -0.170845 -0.427502
    23 1.628906 0.000004 -0.000003 -0.035165 -0.068703 -0.042506
    24 0.955566 0.000004 -0.000009 -0.000002 0.002592 -0.244316
    25 1.258789 -0.297852 1.251953 -1.580355 -0.574146 -0.382656
    26 1.392578 -0.000004 -0.000004 -0.136855 0.004037 0.177094
    27 1.099609 0.000000 0.000000 0.000005 0.011266 0.362865
    28 3.548828 0.198730 -1.489258 -0.468914 0.035206 -0.318762
    29 1.218750 0.000004 0.000002 -0.036027 0.060901 -0.138997
    30 0.679688 0.000000 -0.000004 -0.000005 0.004979 -0.244284
    31 3.697266 0.267334 -0.728516 -0.178787 0.016797 -0.238821
    32 1.748047 0.000004 -0.000003 -0.025867 0.018247 -0.199668
    33 0.959961 -0.000008 0.000003 0.000003 0.007357 -0.430822
    34 2.023438 0.907227 -0.852051 -1.574435 1.117753 2.959611
    35 4.980469 -0.000004 -0.000001 1.690723 -0.117581 -0.349772
    36 11.117188 -0.000029 0.000008 0.000073 0.050229 -0.215843
    37 11.203125 -0.000024 0.000008 -1.563673 0.106377 0.130261
    38 3.767578 0.151855 -0.072693 -0.089872 0.065718 -0.394758
    39 2.037109 0.000000 0.000013 0.032143 0.080090 -0.008917
    40 1.066406 0.000000 0.000000 0.000001 -0.004460 -0.216358
    41 3.783203 -0.023972 -0.794434 -0.356227 0.163319 -0.428308
    42 1.628906 0.000008 0.000014 0.037467 0.068349 -0.043074
    43 0.955566 0.000008 0.000010 0.000004 -0.004204 -0.244323
    44 1.258789 -0.308350 -1.250000 1.855586 0.566807 -0.385847
    45 1.392578 -0.000002 0.000000 0.208582 0.045009 0.171387
    46 1.099609 0.000006 -0.000004 -0.000005 -0.009622 0.362889
    47 3.548828 0.211304 1.487305 0.470103 -0.042190 -0.318598
    48 1.218750 -0.000011 -0.000004 0.027299 -0.061805 -0.138611
    49 0.679688 -0.000004 0.000004 0.000003 -0.006133 -0.244281
    50 3.697266 0.273682 0.726563 0.171545 -0.023328 -0.238748
    51 1.748047 0.000004 0.000008 0.025132 -0.017993 -0.199686
    52 0.959961 -0.000004 -0.000004 0.000004 -0.009661 -0.430781
    53 -3.756462 5.577850 2.053357 1.570803 -0.000001 0.000000
    54 -2.735646 -0.081365 5.727119 0.000007 0.000015 1.570796
    55 0.000001 5.662003 -0.974302 1.570804 -0.000001 0.000000
    56 -0.000002 -2.275002 5.113525 0.000000 0.000000 -3.141592
    57 -2.477620 5.416855 4.597564 1.570804 -0.000001 0.000000
    58 -1.515218 1.317776 5.998497 0.000000 0.000000 0.000000
    59 -2.455992 5.657928 -0.087295 1.570804 -0.000001 0.000000
    60 -1.485628 -1.617812 5.263969 0.000000 0.000000 3.141592
    61 3.756460 5.577858 2.053359 1.570803 -0.000001 0.000000
    62 2.735645 -0.081364 5.727116 0.000004 -0.000011 -1.570795
    63 2.477613 5.416855 4.597570 1.570804 -0.000001 0.000000
    64 1.515220 1.317777 5.998508 0.000000 0.000000 0.000000
    65 2.455991 5.657928 -0.087293 1.570804 -0.000001 0.000000
    66 1.485620 -1.617803 5.263973 0.000000 0.000000 -3.141592
    67 4.575642 5.632584 0.000132 0.000000 -1.570771 0.249128
    68 -0.000001 0.314078 5.161098 0.000000 0.000000 0.000000
    69 -0.000001 -0.323108 3.750217 0.000000 0.000000 0.000000
    70 5.734947 1.075212 4.685178 1.570830 -0.000004 -1.321669
    71 -0.753896 0.305901 4.971462 -0.000001 0.000002 0.000000
    72 -1.101006 -0.314705 3.448307 0.000001 0.000001 0.000000
    73 5.809101 -1.029643 4.595047 1.570829 -0.000004 -1.321671
    74 -0.714908 -0.199657 5.028973 0.000000 0.000003 0.000000
    75 -0.282898 -0.851690 4.444889 0.000000 0.000000 0.000000
    76 9.578484 -1.290738 0.000240 0.000000 1.570770 -2.892481
    77 9.369518 -1.236408 1.787905 0.000000 1.570770 -2.892481
    78 9.436707 -1.331719 -1.409029 0.000000 1.570770 -2.892477
    79 5.735191 1.075235 -4.684885 -1.570814 0.000004 1.819923
    80 0.753901 0.305904 4.971474 -0.000001 -0.000002 0.000000
    81 1.101010 -0.314705 3.448315 0.000000 -0.000001 0.000000
    82 5.809341 -1.029617 -4.594752 -1.570814 0.000004 1.819922
    83 0.714908 -0.199655 5.028969 0.000000 -0.000003 0.000000
    84 0.282897 -0.851688 4.444893 0.000000 0.000000 0.000000
end
