// Created by Crowbar 0.76
version 1
nodes
  0 "ValveBiped.Bip01_Pelvis" -1
  1 "ValveBiped.Bip01_L_Thigh" 0
  2 "ValveBiped.Bip01_L_Calf" 1
  3 "ValveBiped.Bip01_L_Foot" 2
  4 "ValveBiped.Bip01_L_Toe0" 3
  5 "ValveBiped.Bip01_R_Thigh" 0
  6 "ValveBiped.Bip01_R_Calf" 5
  7 "ValveBiped.Bip01_R_Foot" 6
  8 "ValveBiped.Bip01_R_Toe0" 7
  9 "ValveBiped.Bip01_Spine" 0
  10 "ValveBiped.Bip01_Spine1" 9
  11 "ValveBiped.Bip01_Spine2" 10
  12 "ValveBiped.Bip01_Spine4" 11
  13 "ValveBiped.Bip01_Neck1" 12
  14 "ValveBiped.Bip01_Head1" 13
  15 "ValveBiped.Bip01_L_Clavicle" 12
  16 "ValveBiped.Bip01_L_UpperArm" 15
  17 "ValveBiped.Bip01_L_Forearm" 16
  18 "ValveBiped.Bip01_L_Hand" 17
  19 "ValveBiped.Bip01_L_Finger2" 18
  20 "ValveBiped.Bip01_L_Finger21" 19
  21 "ValveBiped.Bip01_L_Finger22" 20
  22 "ValveBiped.Bip01_L_Finger1" 18
  23 "ValveBiped.Bip01_L_Finger11" 22
  24 "ValveBiped.Bip01_L_Finger12" 23
  25 "ValveBiped.Bip01_L_Finger0" 18
  26 "ValveBiped.Bip01_L_Finger01" 25
  27 "ValveBiped.Bip01_L_Finger02" 26
  28 "ValveBiped.Bip01_L_Finger4" 18
  29 "ValveBiped.Bip01_L_Finger41" 28
  30 "ValveBiped.Bip01_L_Finger42" 29
  31 "ValveBiped.Bip01_L_Finger3" 18
  32 "ValveBiped.Bip01_L_Finger31" 31
  33 "ValveBiped.Bip01_L_Finger32" 32
  34 "ValveBiped.Bip01_R_Clavicle" 12
  35 "ValveBiped.Bip01_R_UpperArm" 34
  36 "ValveBiped.Bip01_R_Forearm" 35
  37 "ValveBiped.Bip01_R_Hand" 36
  38 "ValveBiped.Bip01_R_Finger2" 37
  39 "ValveBiped.Bip01_R_Finger21" 38
  40 "ValveBiped.Bip01_R_Finger22" 39
  41 "ValveBiped.Bip01_R_Finger1" 37
  42 "ValveBiped.Bip01_R_Finger11" 41
  43 "ValveBiped.Bip01_R_Finger12" 42
  44 "ValveBiped.Bip01_R_Finger0" 37
  45 "ValveBiped.Bip01_R_Finger01" 44
  46 "ValveBiped.Bip01_R_Finger02" 45
  47 "ValveBiped.Bip01_R_Finger4" 37
  48 "ValveBiped.Bip01_R_Finger41" 47
  49 "ValveBiped.Bip01_R_Finger42" 48
  50 "ValveBiped.Bip01_R_Finger3" 37
  51 "ValveBiped.Bip01_R_Finger31" 50
  52 "ValveBiped.Bip01_R_Finger32" 51
  53 "ValveBiped.Skirt.R.001" 0
  54 "Skirt2_r" 53
  55 "ValveBiped.Skirt.B" 0
  56 "Skirtb2" 55
  57 "ValveBiped.Skirt.R" 0
  58 "Skirt5_r" 57
  59 "ValveBiped.Skirt.R.002" 0
  60 "Skirt8_r" 59
  61 "ValveBiped.Skirt.L.001" 0
  62 "Skirt2_l" 61
  63 "ValveBiped.Skirt.L" 0
  64 "Skirt5_l" 63
  65 "ValveBiped.Skirt.L.002" 0
  66 "Skirt8_l" 65
  67 "Hair_002" 14
  68 "Hair_001" 67
  69 "Hair_003" 68
  70 "Hair_006_r" 14
  71 "Hair_005_r" 70
  72 "Hair_007_r" 71
  73 "Hair_009_r" 14
  74 "Hair_010_r" 73
  75 "Hair_011_r" 74
  76 "Hair_004" 14
  77 "Hair_005" 14
  78 "Hair_006" 14
  79 "Hair_006_l" 14
  80 "Hair_005_l" 79
  81 "Hair_007_l" 80
  82 "Hair_009_l" 14
  83 "Hair_010_l" 82
  84 "Hair_011_l" 83
end
skeleton
  time 0
    0 0.000000 1.616581 35.388000 1.570796 0.000000 0.000001
    1 3.483831 0.451382 1.253440 -1.570114 -0.064472 -1.586906
    2 15.868502 -0.000100 -0.000005 -0.004983 -0.042487 0.148088
    3 14.855375 -0.000068 0.000003 0.008799 0.017186 -1.002419
    4 4.042293 1.124544 -0.031618 -0.001050 -0.003487 -0.555370
    5 -3.483833 0.451382 1.253433 -1.571430 -0.064474 -1.554685
    6 15.868511 -0.000113 -0.000001 0.005108 0.042496 0.148083
    7 14.855381 0.000018 0.000000 -0.002132 -0.019446 -1.002277
    8 4.042488 1.124206 0.015464 -0.061129 0.006497 -0.556032
    9 -0.000001 3.795177 1.709709 1.570794 0.086294 1.570791
    10 0.000000 0.000000 0.000000 0.000000 0.000001 -0.029231
    11 3.523872 -0.078402 -0.000015 0.000000 -0.000044 0.100328
    12 4.436268 0.882521 -0.000212 0.000009 0.000052 0.194099
    13 5.873093 -1.475047 0.000028 3.141588 -0.000019 0.372987
    14 1.431213 0.758154 0.000023 -0.000004 0.000010 0.302769
    15 3.113647 -1.743535 0.636099 1.564402 -1.116058 2.970024
    16 3.777359 0.774242 -0.032340 -1.690890 0.113528 -0.347837
    17 8.041758 0.000007 0.000004 -0.000782 -0.049713 -0.215962
    18 7.595908 -0.000039 0.000000 1.573449 -0.106735 0.134901
    19 3.587915 -0.593410 0.601401 0.098596 -0.073087 -0.394374
    20 1.610928 -0.000008 0.000000 -0.033325 -0.080209 -0.007832
    21 0.887497 -0.000008 0.000000 -0.000001 0.003076 -0.216400
    22 3.524288 -0.706635 1.333842 0.359810 -0.170845 -0.427502
    23 1.295395 0.000008 0.000000 -0.035165 -0.068703 -0.042506
    24 0.922834 0.000004 0.000001 -0.000002 0.002592 -0.244316
    25 0.032600 -0.512512 0.764443 -1.580355 -0.574146 -0.382656
    26 1.547192 0.000008 -0.000004 -0.136855 0.004037 0.177094
    27 1.557987 0.000011 0.000000 0.000005 0.011266 0.362865
    28 3.477026 -0.509605 -0.938866 -0.468914 0.035206 -0.318762
    29 0.870695 0.000000 0.000000 -0.036027 0.060901 -0.138997
    30 0.802872 -0.000006 0.000000 -0.000005 0.004979 -0.244284
    31 3.482192 -0.581478 -0.146996 -0.178787 0.016797 -0.238821
    32 1.481682 -0.000008 -0.000001 -0.025867 0.018247 -0.199668
    33 0.839493 0.000008 0.000001 0.000003 0.007357 -0.430822
    34 3.113655 -1.743536 -0.636071 -1.574435 1.117753 2.959611
    35 3.778463 0.767876 0.050112 1.690723 -0.117581 -0.349772
    36 8.041756 -0.000005 0.000000 0.000073 0.050229 -0.215843
    37 7.595890 0.000073 0.000008 -1.563673 0.106377 0.130261
    38 3.590814 -0.597862 -0.579298 -0.089872 0.065718 -0.394758
    39 1.610922 -0.000004 0.000000 0.032143 0.080090 -0.008917
    40 0.887501 -0.000004 0.000001 0.000001 -0.004460 -0.216358
    41 3.530805 -0.716415 -1.311210 -0.356227 0.163319 -0.428308
    42 1.295393 -0.000011 -0.000001 0.037467 0.068349 -0.043074
    43 0.922838 -0.000004 0.000000 0.000004 -0.004204 -0.244323
    44 0.036356 -0.518059 -0.760536 1.855586 0.566807 -0.385847
    45 1.547199 -0.000010 0.000000 0.208582 0.045009 0.171387
    46 1.557985 0.000010 -0.000002 -0.000005 -0.009622 0.362889
    47 3.472317 -0.502834 0.959754 0.470103 -0.042190 -0.318598
    48 0.870693 -0.000002 0.000000 0.027299 -0.061805 -0.138611
    49 0.802864 0.000000 -0.000002 0.000003 -0.006133 -0.244281
    50 3.481399 -0.580475 0.168449 0.171545 -0.023328 -0.238748
    51 1.481677 0.000004 0.000000 0.025132 -0.017993 -0.199686
    52 0.839493 0.000004 0.000002 0.000004 -0.009661 -0.430781
    53 -3.756462 5.577850 2.053357 1.570803 -0.000001 0.000000
    54 -2.735646 -0.081365 5.727119 0.000007 0.000015 1.570796
    55 0.000001 5.662003 -0.974302 1.570804 -0.000001 0.000000
    56 -0.000002 -2.275002 5.113525 0.000000 0.000000 -3.141592
    57 -2.477620 5.416855 4.597564 1.570804 -0.000001 0.000000
    58 -1.515218 1.317776 5.998497 0.000000 0.000000 0.000000
    59 -2.455992 5.657928 -0.087295 1.570804 -0.000001 0.000000
    60 -1.485628 -1.617812 5.263969 0.000000 0.000000 3.141592
    61 3.756460 5.577858 2.053359 1.570803 -0.000001 0.000000
    62 2.735645 -0.081364 5.727116 0.000004 -0.000011 -1.570795
    63 2.477613 5.416855 4.597570 1.570804 -0.000001 0.000000
    64 1.515220 1.317777 5.998508 0.000000 0.000000 0.000000
    65 2.455991 5.657928 -0.087293 1.570804 -0.000001 0.000000
    66 1.485620 -1.617803 5.263973 0.000000 0.000000 -3.141592
    67 4.575642 5.632584 0.000132 0.000000 -1.570771 0.249128
    68 -0.000001 0.314078 5.161098 0.000000 0.000000 0.000000
    69 -0.000001 -0.323108 3.750217 0.000000 0.000000 0.000000
    70 5.734947 1.075212 4.685178 1.570830 -0.000004 -1.321669
    71 -0.753896 0.305901 4.971462 -0.000001 0.000002 0.000000
    72 -1.101006 -0.314705 3.448307 0.000001 0.000001 0.000000
    73 5.809101 -1.029643 4.595047 1.570829 -0.000004 -1.321671
    74 -0.714908 -0.199657 5.028973 0.000000 0.000003 0.000000
    75 -0.282898 -0.851690 4.444889 0.000000 0.000000 0.000000
    76 9.578484 -1.290738 0.000240 0.000000 1.570770 -2.892481
    77 9.369518 -1.236408 1.787905 0.000000 1.570770 -2.892481
    78 9.436707 -1.331719 -1.409029 0.000000 1.570770 -2.892477
    79 5.735191 1.075235 -4.684885 -1.570814 0.000004 1.819923
    80 0.753901 0.305904 4.971474 -0.000001 -0.000002 0.000000
    81 1.101010 -0.314705 3.448315 0.000000 -0.000001 0.000000
    82 5.809341 -1.029617 -4.594752 -1.570814 0.000004 1.819922
    83 0.714908 -0.199655 5.028969 0.000000 -0.000003 0.000000
    84 0.282897 -0.851688 4.444893 0.000000 0.000000 0.000000
end
triangles
outline
  14 2.220711 -4.633724 54.780846 -0.456671 0.754546 0.471287 0.808767 0.175385 1 14 1.000000
  14 1.071560 -5.061885 54.579205 -0.217451 0.841947 0.493801 0.650502 0.147455 1 14 1.000000
  14 2.160509 -5.056298 55.562687 -0.470441 0.880855 0.052726 0.800246 0.281499 1 14 1.000000
outline
  14 3.043406 -4.307910 55.534389 -0.640274 0.763123 0.087707 0.921811 0.277364 1 14 1.000000
  14 2.220711 -4.633724 54.780846 -0.456671 0.754546 0.471287 0.808767 0.175385 1 14 1.000000
  14 2.160509 -5.056298 55.562687 -0.470441 0.880855 0.052726 0.800246 0.281499 1 14 1.000000
outline
  14 2.220711 -4.633724 54.780846 -0.456671 0.754546 0.471287 0.808767 0.175385 1 14 1.000000
  14 2.186618 -4.053271 54.146275 -0.463489 0.630753 0.622357 0.804067 0.088082 1 14 1.000000
  14 1.071560 -5.061885 54.579205 -0.217451 0.841947 0.493801 0.650502 0.147455 1 14 1.000000
outline
  14 1.071560 -5.061885 54.579205 -0.217451 0.841947 0.493801 0.650502 0.147455 1 14 1.000000
  14 2.186618 -4.053271 54.146275 -0.463489 0.630753 0.622357 0.804067 0.088082 1 14 1.000000
  14 1.148603 -4.186573 53.608875 -0.246254 0.751378 0.612201 0.661036 0.012910 1 14 1.000000
outline
  14 2.186618 -4.053271 54.146275 -0.463489 0.630753 0.622357 0.804067 0.088082 1 14 1.000000
  14 2.220711 -4.633724 54.780846 -0.456671 0.754546 0.471287 0.808767 0.175385 1 14 1.000000
  14 3.135239 -4.134872 55.034878 -0.775047 0.484040 0.406211 0.934004 0.210119 1 14 1.000000
outline
  14 3.135239 -4.134872 55.034878 -0.775047 0.484040 0.406211 0.934004 0.210119 1 14 1.000000
  14 2.220711 -4.633724 54.780846 -0.456671 0.754546 0.471287 0.808767 0.175385 1 14 1.000000
  14 3.043406 -4.307910 55.534389 -0.640274 0.763123 0.087707 0.921811 0.277364 1 14 1.000000
outline
  14 3.078889 -3.646041 54.796822 -0.778154 0.160629 0.607186 0.925904 0.177825 1 14 1.000000
  14 2.186618 -4.053271 54.146275 -0.463489 0.630753 0.622357 0.804067 0.088082 1 14 1.000000
  14 3.135239 -4.134872 55.034878 -0.775047 0.484040 0.406211 0.934004 0.210119 1 14 1.000000
outline
  14 2.160509 -5.056298 55.562687 -0.470441 0.880855 0.052726 0.800246 0.281499 1 14 1.000000
  14 2.043271 -4.946485 56.180870 -0.391979 0.815607 -0.425602 0.784175 0.348571 1 14 1.000000
  14 3.043406 -4.307910 55.534389 -0.640274 0.763123 0.087707 0.921811 0.277364 1 14 1.000000
outline
  14 3.078889 -3.646041 54.796822 -0.778154 0.160629 0.607186 0.925904 0.177825 1 14 1.000000
  14 3.135239 -4.134872 55.034878 -0.775047 0.484040 0.406211 0.934004 0.210119 1 14 1.000000
  14 3.675790 -3.302423 56.263348 -0.903978 0.426271 0.033422 1.008280 0.362499 1 14 1.000000
outline
  14 3.488013 -3.115551 55.414680 -0.889488 0.363537 0.276860 0.982276 0.262133 1 14 1.000000
  14 3.078889 -3.646041 54.796822 -0.778154 0.160629 0.607186 0.925904 0.177825 1 14 1.000000
  14 3.675790 -3.302423 56.263348 -0.903978 0.426271 0.033422 1.008280 0.362499 1 14 1.000000
outline
  14 3.135239 -4.134872 55.034878 -0.775047 0.484040 0.406211 0.934004 0.210119 1 14 1.000000
  14 3.043406 -4.307910 55.534389 -0.640274 0.763123 0.087707 0.921811 0.277364 1 14 1.000000
  14 3.440393 -3.853144 56.163052 -0.790649 0.590566 -0.161575 0.976173 0.347705 1 14 1.000000
outline
  14 3.675790 -3.302423 56.263348 -0.903978 0.426271 0.033422 1.008280 0.362499 1 14 1.000000
  14 3.135239 -4.134872 55.034878 -0.775047 0.484040 0.406211 0.934004 0.210119 1 14 1.000000
  14 3.440393 -3.853144 56.163052 -0.790649 0.590566 -0.161575 0.976173 0.347705 1 14 1.000000
outline
  14 3.043406 -4.307910 55.534389 -0.640274 0.763123 0.087707 0.921811 0.277364 1 14 1.000000
  14 2.043271 -4.946485 56.180870 -0.391979 0.815607 -0.425602 0.784175 0.348571 1 14 1.000000
  14 3.440393 -3.853144 56.163052 -0.790649 0.590566 -0.161575 0.976173 0.347705 1 14 1.000000
outline
  14 3.326213 -3.727851 56.644276 -0.723430 0.678606 -0.127052 0.960790 0.414756 1 14 1.000000
  14 3.675790 -3.302423 56.263348 -0.903978 0.426271 0.033422 1.008280 0.362499 1 14 1.000000
  14 3.440393 -3.853144 56.163052 -0.790649 0.590566 -0.161575 0.976173 0.347705 1 14 1.000000
outline
  14 3.629980 -3.314497 56.962082 -0.845826 0.528754 0.070694 1.002309 0.459753 1 14 1.000000
  14 3.675790 -3.302423 56.263348 -0.903978 0.426271 0.033422 1.008280 0.362499 1 14 1.000000
  14 3.326213 -3.727851 56.644276 -0.723430 0.678606 -0.127052 0.960790 0.414756 1 14 1.000000
outline
  14 2.043271 -4.946485 56.180870 -0.391979 0.815607 -0.425602 0.784175 0.348571 1 14 1.000000
  14 1.933717 -4.663844 56.543350 -0.391979 0.815607 -0.425602 0.769098 0.398820 1 14 1.000000
  14 3.440393 -3.853144 56.163052 -0.790649 0.590566 -0.161575 0.976173 0.347705 1 14 1.000000
outline
  14 3.440393 -3.853144 56.163052 -0.790649 0.590566 -0.161575 0.976173 0.347705 1 14 1.000000
  14 1.933717 -4.663844 56.543350 -0.391979 0.815607 -0.425602 0.769098 0.398820 1 14 1.000000
  14 3.326213 -3.727851 56.644276 -0.723430 0.678606 -0.127052 0.960790 0.414756 1 14 1.000000
outline
  14 3.511834 -3.801237 58.132011 -0.750445 0.639602 0.166558 0.986337 0.622612 1 14 1.000000
  14 3.629980 -3.314497 56.962082 -0.845826 0.528754 0.070694 1.002309 0.459753 1 14 1.000000
  14 3.326213 -3.727851 56.644276 -0.723430 0.678606 -0.127052 0.960790 0.414756 1 14 1.000000
outline
  14 3.811517 -3.393932 58.449669 -0.853106 0.500250 0.148190 1.015969 0.666535 1 14 1.000000
  14 3.629980 -3.314497 56.962082 -0.845826 0.528754 0.070694 1.002309 0.459753 1 14 1.000000
  14 3.511834 -3.801237 58.132011 -0.750445 0.639602 0.166558 0.986337 0.622612 1 14 1.000000
outline
  14 3.511834 -3.801237 58.132011 -0.750445 0.639602 0.166558 0.986337 0.622612 1 14 1.000000
  14 3.307950 -4.381138 59.064678 -0.655249 0.729660 0.195561 0.958553 0.752172 1 14 1.000000
  14 3.811517 -3.393932 58.449669 -0.853106 0.500250 0.148190 1.015969 0.666535 1 14 1.000000
outline
  14 3.811517 -3.393932 58.449669 -0.853106 0.500250 0.148190 1.015969 0.666535 1 14 1.000000
  14 3.307950 -4.381138 59.064678 -0.655249 0.729660 0.195561 0.958553 0.752172 1 14 1.000000
  14 3.648383 -4.052569 59.905052 -0.707520 0.705495 0.041142 1.005569 0.867967 1 14 1.000000
outline
  14 3.326213 -3.727851 56.644276 -0.723430 0.678606 -0.127052 0.960790 0.414756 1 14 1.000000
  14 3.162616 -4.043077 57.938972 -0.561779 0.816872 0.130862 0.939051 0.595812 1 14 1.000000
  14 3.511834 -3.801237 58.132011 -0.750445 0.639602 0.166558 0.986337 0.622612 1 14 1.000000
outline
  14 3.162616 -4.043077 57.938972 -0.561779 0.816872 0.130862 0.939051 0.595812 1 14 1.000000
  14 3.017486 -4.257674 58.375629 -0.450269 0.850968 0.270389 0.919317 0.657137 1 14 1.000000
  14 3.511834 -3.801237 58.132011 -0.750445 0.639602 0.166558 0.986337 0.622612 1 14 1.000000
outline
  14 3.511834 -3.801237 58.132011 -0.750445 0.639602 0.166558 0.986337 0.622612 1 14 1.000000
  14 3.017486 -4.257674 58.375629 -0.450269 0.850968 0.270389 0.919317 0.657137 1 14 1.000000
  14 3.307950 -4.381138 59.064678 -0.655249 0.729660 0.195561 0.958553 0.752172 1 14 1.000000
outline
  14 3.025319 -3.978921 56.867058 -0.514039 0.837970 0.183223 0.920037 0.446744 1 14 1.000000
  14 3.162616 -4.043077 57.938972 -0.561779 0.816872 0.130862 0.939051 0.595812 1 14 1.000000
  14 3.326213 -3.727851 56.644276 -0.723430 0.678606 -0.127052 0.960790 0.414756 1 14 1.000000
outline
  14 1.933717 -4.663844 56.543350 -0.391979 0.815607 -0.425602 0.769098 0.398820 1 14 1.000000
  14 3.025319 -3.978921 56.867058 -0.514039 0.837970 0.183223 0.920037 0.446744 1 14 1.000000
  14 3.326213 -3.727851 56.644276 -0.723430 0.678606 -0.127052 0.960790 0.414756 1 14 1.000000
outline
  14 3.162616 -4.043077 57.938972 -0.561779 0.816872 0.130862 0.939051 0.595812 1 14 1.000000
  14 1.922948 -4.594586 57.635902 -0.384312 0.914431 0.126966 0.767825 0.553430 1 14 1.000000
  14 3.017486 -4.257674 58.375629 -0.450269 0.850968 0.270389 0.919317 0.657137 1 14 1.000000
outline
  14 3.162616 -4.043077 57.938972 -0.561779 0.816872 0.130862 0.939051 0.595812 1 14 1.000000
  14 3.025319 -3.978921 56.867058 -0.514039 0.837970 0.183223 0.920037 0.446744 1 14 1.000000
  14 1.922948 -4.594586 57.635902 -0.384312 0.914431 0.126966 0.767825 0.553430 1 14 1.000000
outline
  14 1.932806 -4.584305 56.861664 -0.390690 0.912560 -0.120810 0.769008 0.444788 1 14 1.000000
  14 3.025319 -3.978921 56.867058 -0.514039 0.837970 0.183223 0.920037 0.446744 1 14 1.000000
  14 1.933717 -4.663844 56.543350 -0.391979 0.815607 -0.425602 0.769098 0.398820 1 14 1.000000
outline
  14 1.922948 -4.594586 57.635902 -0.384312 0.914431 0.126966 0.767825 0.553430 1 14 1.000000
  14 3.025319 -3.978921 56.867058 -0.514039 0.837970 0.183223 0.920037 0.446744 1 14 1.000000
  14 1.932806 -4.584305 56.861664 -0.390690 0.912560 -0.120810 0.769008 0.444788 1 14 1.000000
outline
  14 1.932806 -4.584305 56.861664 -0.390690 0.912560 -0.120810 0.769008 0.444788 1 14 1.000000
  14 1.933717 -4.663844 56.543350 -0.391979 0.815607 -0.425602 0.769098 0.398820 1 14 1.000000
  14 1.033645 -4.944549 56.890198 -0.484265 0.859685 -0.162572 0.644243 0.448322 1 14 1.000000
outline
  14 1.932806 -4.584305 56.861664 -0.390690 0.912560 -0.120810 0.769008 0.444788 1 14 1.000000
  14 1.033645 -4.944549 56.890198 -0.484265 0.859685 -0.162572 0.644243 0.448322 1 14 1.000000
  14 1.922948 -4.594586 57.635902 -0.384312 0.914431 0.126966 0.767825 0.553430 1 14 1.000000
outline
  14 1.033645 -4.944549 56.890198 -0.484265 0.859685 -0.162572 0.644243 0.448322 1 14 1.000000
  14 1.933717 -4.663844 56.543350 -0.391979 0.815607 -0.425602 0.769098 0.398820 1 14 1.000000
  14 0.695300 -5.227960 56.594398 -0.504544 0.737808 -0.448414 0.596861 0.406156 1 14 1.000000
outline
  14 2.043271 -4.946485 56.180870 -0.391979 0.815607 -0.425602 0.784175 0.348571 1 14 1.000000
  14 0.695300 -5.227960 56.594398 -0.504544 0.737808 -0.448414 0.596861 0.406156 1 14 1.000000
  14 1.933717 -4.663844 56.543350 -0.391979 0.815607 -0.425602 0.769098 0.398820 1 14 1.000000
outline
  14 1.922948 -4.594586 57.635902 -0.384312 0.914431 0.126966 0.767825 0.553430 1 14 1.000000
  14 1.033645 -4.944549 56.890198 -0.484265 0.859685 -0.162572 0.644243 0.448322 1 14 1.000000
  14 0.898117 -4.959207 57.633888 -0.395490 0.918396 -0.011681 0.625738 0.553080 1 14 1.000000
outline
  14 0.898117 -4.959207 57.633888 -0.395490 0.918396 -0.011681 0.625738 0.553080 1 14 1.000000
  14 1.033645 -4.944549 56.890198 -0.484265 0.859685 -0.162572 0.644243 0.448322 1 14 1.000000
  14 0.621144 -5.075530 57.580647 -0.432182 0.895260 0.108293 0.586801 0.545485 1 14 1.000000
outline
  14 0.621144 -5.075530 57.580647 -0.432182 0.895260 0.108293 0.586801 0.545485 1 14 1.000000
  14 1.033645 -4.944549 56.890198 -0.484265 0.859685 -0.162572 0.644243 0.448322 1 14 1.000000
  14 0.695300 -5.227960 56.594398 -0.504544 0.737808 -0.448414 0.596861 0.406156 1 14 1.000000
outline
  14 1.041540 -5.046688 58.254425 -0.402368 0.848492 0.343746 0.645490 0.640625 1 14 1.000000
  14 1.922948 -4.594586 57.635902 -0.384312 0.914431 0.126966 0.767825 0.553430 1 14 1.000000
  14 0.898117 -4.959207 57.633888 -0.395490 0.918396 -0.011681 0.625738 0.553080 1 14 1.000000
outline
  14 0.898117 -4.959207 57.633888 -0.395490 0.918396 -0.011681 0.625738 0.553080 1 14 1.000000
  14 0.621144 -5.075530 57.580647 -0.432182 0.895260 0.108293 0.586801 0.545485 1 14 1.000000
  14 1.041540 -5.046688 58.254425 -0.402368 0.848492 0.343746 0.645490 0.640625 1 14 1.000000
outline
  14 3.017486 -4.257674 58.375629 -0.450269 0.850968 0.270389 0.919317 0.657137 1 14 1.000000
  14 1.922948 -4.594586 57.635902 -0.384312 0.914431 0.126966 0.767825 0.553430 1 14 1.000000
  14 1.868909 -4.757732 58.338051 -0.402368 0.848492 0.343746 0.760396 0.652243 1 14 1.000000
outline
  14 1.868909 -4.757732 58.338051 -0.402368 0.848492 0.343746 0.760396 0.652243 1 14 1.000000
  14 1.922948 -4.594586 57.635902 -0.384312 0.914431 0.126966 0.767825 0.553430 1 14 1.000000
  14 1.041540 -5.046688 58.254425 -0.402368 0.848492 0.343746 0.645490 0.640625 1 14 1.000000
outline
  14 3.017486 -4.257674 58.375629 -0.450269 0.850968 0.270389 0.919317 0.657137 1 14 1.000000
  14 1.868909 -4.757732 58.338051 -0.402368 0.848492 0.343746 0.760396 0.652243 1 14 1.000000
  14 3.307950 -4.381138 59.064678 -0.655249 0.729660 0.195561 0.958553 0.752172 1 14 1.000000
outline
  14 1.868909 -4.757732 58.338051 -0.402368 0.848492 0.343746 0.760396 0.652243 1 14 1.000000
  14 1.041540 -5.046688 58.254425 -0.402368 0.848492 0.343746 0.645490 0.640625 1 14 1.000000
  14 1.831744 -5.394044 59.229534 -0.373012 0.867832 0.328221 0.755347 0.775700 1 14 1.000000
outline
  14 3.307950 -4.381138 59.064678 -0.655249 0.729660 0.195561 0.958553 0.752172 1 14 1.000000
  14 1.868909 -4.757732 58.338051 -0.402368 0.848492 0.343746 0.760396 0.652243 1 14 1.000000
  14 1.831744 -5.394044 59.229534 -0.373012 0.867832 0.328221 0.755347 0.775700 1 14 1.000000
outline
  14 1.041540 -5.046688 58.254425 -0.402368 0.848492 0.343746 0.645490 0.640625 1 14 1.000000
  14 0.621144 -5.075530 57.580647 -0.432182 0.895260 0.108293 0.586801 0.545485 1 14 1.000000
  14 0.757182 -5.441805 58.750740 -0.210807 0.933875 0.288857 0.607095 0.709206 1 14 1.000000
outline
  14 1.831744 -5.394044 59.229534 -0.373012 0.867832 0.328221 0.755347 0.775700 1 14 1.000000
  14 1.041540 -5.046688 58.254425 -0.402368 0.848492 0.343746 0.645490 0.640625 1 14 1.000000
  14 0.757182 -5.441805 58.750740 -0.210807 0.933875 0.288857 0.607095 0.709206 1 14 1.000000
outline
  14 1.884760 -5.504674 60.165977 -0.423708 0.905684 0.014434 0.762619 0.903933 1 14 1.000000
  14 3.307950 -4.381138 59.064678 -0.655249 0.729660 0.195561 0.958553 0.752172 1 14 1.000000
  14 1.831744 -5.394044 59.229534 -0.373012 0.867832 0.328221 0.755347 0.775700 1 14 1.000000
outline
  14 3.648383 -4.052569 59.905052 -0.707520 0.705495 0.041142 1.005569 0.867967 1 14 1.000000
  14 3.307950 -4.381138 59.064678 -0.655249 0.729660 0.195561 0.958553 0.752172 1 14 1.000000
  14 1.884760 -5.504674 60.165977 -0.423708 0.905684 0.014434 0.762619 0.903933 1 14 1.000000
outline
  14 3.648383 -4.052569 59.905052 -0.707520 0.705495 0.041142 1.005569 0.867967 1 14 1.000000
  14 1.884760 -5.504674 60.165977 -0.423708 0.905684 0.014434 0.762619 0.903933 1 14 1.000000
  14 3.423457 -4.286077 60.965740 -0.616736 0.767418 -0.175232 0.974787 0.993125 1 14 1.000000
outline
  14 3.423457 -4.286077 60.965740 -0.616736 0.767418 -0.175232 0.974787 0.993125 1 14 1.000000
  14 1.884760 -5.504674 60.165977 -0.423708 0.905684 0.014434 0.762619 0.903933 1 14 1.000000
  14 2.145795 -5.247329 61.200882 -0.220672 0.959486 -0.175189 0.798480 0.993125 1 14 1.000000
outline
  14 -0.000002 -5.687105 61.378345 -0.000031 0.960875 -0.276981 0.503161 0.993125 1 14 1.000000
  14 2.145795 -5.247329 61.200882 -0.220672 0.959486 -0.175189 0.798480 0.993125 1 14 1.000000
  14 1.884760 -5.504674 60.165977 -0.423708 0.905684 0.014434 0.762619 0.903933 1 14 1.000000
outline
  14 1.884760 -5.504674 60.165977 -0.423708 0.905684 0.014434 0.762619 0.903933 1 14 1.000000
  14 1.831744 -5.394044 59.229534 -0.373012 0.867832 0.328221 0.755347 0.775700 1 14 1.000000
  14 0.801991 -5.653991 59.701401 -0.101852 0.990043 0.097161 0.613869 0.840054 1 14 1.000000
outline
  14 0.801991 -5.653991 59.701401 -0.101852 0.990043 0.097161 0.613869 0.840054 1 14 1.000000
  14 -0.000002 -5.687105 61.378345 -0.000031 0.960875 -0.276981 0.503161 0.993125 1 14 1.000000
  14 1.884760 -5.504674 60.165977 -0.423708 0.905684 0.014434 0.762619 0.903933 1 14 1.000000
outline
  14 0.801991 -5.653991 59.701401 -0.101852 0.990043 0.097161 0.613869 0.840054 1 14 1.000000
  14 1.831744 -5.394044 59.229534 -0.373012 0.867832 0.328221 0.755347 0.775700 1 14 1.000000
  14 0.757182 -5.441805 58.750740 -0.210807 0.933875 0.288857 0.607095 0.709206 1 14 1.000000
outline
  14 0.801991 -5.653991 59.701401 -0.101852 0.990043 0.097161 0.613869 0.840054 1 14 1.000000
  14 -0.000002 -5.695246 59.662868 0.014560 0.996298 0.084727 0.503161 0.834742 1 14 1.000000
  14 -0.000002 -5.687105 61.378345 -0.000031 0.960875 -0.276981 0.503161 0.993125 1 14 1.000000
outline
  14 0.801991 -5.653991 59.701401 -0.101852 0.990043 0.097161 0.613869 0.840054 1 14 1.000000
  14 0.757182 -5.441805 58.750740 -0.210807 0.933875 0.288857 0.607095 0.709206 1 14 1.000000
  14 -0.000002 -5.695246 59.662868 0.014560 0.996298 0.084727 0.503161 0.834742 1 14 1.000000
outline
  14 -0.000002 -5.687105 61.378345 -0.000031 0.960875 -0.276981 0.503161 0.993125 1 14 1.000000
  14 -0.000002 -5.695246 59.662868 0.014560 0.996298 0.084727 0.503161 0.834742 1 14 1.000000
  14 -0.801995 -5.653990 59.701401 0.106945 0.989797 0.094152 0.392454 0.840054 1 14 1.000000
outline
  14 -0.000002 -5.687105 61.378345 -0.000031 0.960875 -0.276981 0.503161 0.993125 1 14 1.000000
  14 -0.801995 -5.653990 59.701401 0.106945 0.989797 0.094152 0.392454 0.840054 1 14 1.000000
  14 -1.884763 -5.504673 60.165977 0.338271 0.940766 0.023063 0.243703 0.903933 1 14 1.000000
outline
  14 -2.145798 -5.247329 61.200882 0.200850 0.967603 -0.152984 0.207843 0.993125 1 14 1.000000
  14 -0.000002 -5.687105 61.378345 -0.000031 0.960875 -0.276981 0.503161 0.993125 1 14 1.000000
  14 -1.884763 -5.504673 60.165977 0.338271 0.940766 0.023063 0.243703 0.903933 1 14 1.000000
outline
  14 -2.145798 -5.247329 61.200882 0.200850 0.967603 -0.152984 0.207843 0.993125 1 14 1.000000
  14 -1.884763 -5.504673 60.165977 0.338271 0.940766 0.023063 0.243703 0.903933 1 14 1.000000
  14 -3.423459 -4.286076 60.965740 0.711981 0.691622 -0.121413 0.031536 0.993125 1 14 1.000000
outline
  14 -3.423459 -4.286076 60.965740 0.711981 0.691622 -0.121413 0.031536 0.993125 1 14 1.000000
  14 -1.884763 -5.504673 60.165977 0.338271 0.940766 0.023063 0.243703 0.903933 1 14 1.000000
  14 -3.648385 -4.052567 59.905056 0.708309 0.704920 0.037238 0.000753 0.867967 1 14 1.000000
outline
  14 -3.648385 -4.052567 59.905056 0.708309 0.704920 0.037238 0.000753 0.867967 1 14 1.000000
  14 -1.884763 -5.504673 60.165977 0.338271 0.940766 0.023063 0.243703 0.903933 1 14 1.000000
  14 -3.307953 -4.381136 59.064678 0.653843 0.733962 0.183818 0.047769 0.752172 1 14 1.000000
outline
  14 -3.648385 -4.052567 59.905056 0.708309 0.704920 0.037238 0.000753 0.867967 1 14 1.000000
  14 -3.307953 -4.381136 59.064678 0.653843 0.733962 0.183818 0.047769 0.752172 1 14 1.000000
  14 -3.811518 -3.393930 58.449669 0.856402 0.501540 0.122615 -0.010999 0.666535 1 14 1.000000
outline
  14 -1.884763 -5.504673 60.165977 0.338271 0.940766 0.023063 0.243703 0.903933 1 14 1.000000
  14 -0.801995 -5.653990 59.701401 0.106945 0.989797 0.094152 0.392454 0.840054 1 14 1.000000
  14 -1.831747 -5.394044 59.229534 0.350001 0.893016 0.282883 0.250975 0.775700 1 14 1.000000
outline
  14 -3.307953 -4.381136 59.064678 0.653843 0.733962 0.183818 0.047769 0.752172 1 14 1.000000
  14 -1.884763 -5.504673 60.165977 0.338271 0.940766 0.023063 0.243703 0.903933 1 14 1.000000
  14 -1.831747 -5.394044 59.229534 0.350001 0.893016 0.282883 0.250975 0.775700 1 14 1.000000
outline
  14 -0.801995 -5.653990 59.701401 0.106945 0.989797 0.094152 0.392454 0.840054 1 14 1.000000
  14 -0.000002 -5.695246 59.662868 0.014560 0.996298 0.084727 0.503161 0.834742 1 14 1.000000
  14 -0.757185 -5.441804 58.750740 0.212051 0.930400 0.298983 0.399228 0.709206 1 14 1.000000
outline
  14 -1.831747 -5.394044 59.229534 0.350001 0.893016 0.282883 0.250975 0.775700 1 14 1.000000
  14 -0.801995 -5.653990 59.701401 0.106945 0.989797 0.094152 0.392454 0.840054 1 14 1.000000
  14 -0.757185 -5.441804 58.750740 0.212051 0.930400 0.298983 0.399228 0.709206 1 14 1.000000
outline
  14 -3.811518 -3.393930 58.449669 0.856402 0.501540 0.122615 -0.010999 0.666535 1 14 1.000000
  14 -3.307953 -4.381136 59.064678 0.653843 0.733962 0.183818 0.047769 0.752172 1 14 1.000000
  14 -3.511835 -3.801235 58.132011 0.763360 0.624870 0.163768 0.019986 0.622612 1 14 1.000000
outline
  14 -3.511835 -3.801235 58.132011 0.763360 0.624870 0.163768 0.019986 0.622612 1 14 1.000000
  14 -3.629982 -3.314495 56.962082 0.843668 0.533839 0.056917 0.004014 0.459753 1 14 1.000000
  14 -3.811518 -3.393930 58.449669 0.856402 0.501540 0.122615 -0.010999 0.666535 1 14 1.000000
outline
  14 -1.868912 -4.757731 58.338051 0.382195 0.857671 0.343987 0.245927 0.652243 1 14 1.000000
  14 -3.307953 -4.381136 59.064678 0.653843 0.733962 0.183818 0.047769 0.752172 1 14 1.000000
  14 -1.831747 -5.394044 59.229534 0.350001 0.893016 0.282883 0.250975 0.775700 1 14 1.000000
outline
  14 -3.326214 -3.727849 56.644276 0.736418 0.674671 -0.050077 0.045533 0.414756 1 14 1.000000
  14 -3.629982 -3.314495 56.962082 0.843668 0.533839 0.056917 0.004014 0.459753 1 14 1.000000
  14 -3.511835 -3.801235 58.132011 0.763360 0.624870 0.163768 0.019986 0.622612 1 14 1.000000
outline
  14 -3.017488 -4.257673 58.375629 0.450542 0.850916 0.270100 0.087006 0.657137 1 14 1.000000
  14 -3.307953 -4.381136 59.064678 0.653843 0.733962 0.183818 0.047769 0.752172 1 14 1.000000
  14 -1.868912 -4.757731 58.338051 0.382195 0.857671 0.343987 0.245927 0.652243 1 14 1.000000
outline
  14 -3.017488 -4.257673 58.375629 0.450542 0.850916 0.270100 0.087006 0.657137 1 14 1.000000
  14 -3.511835 -3.801235 58.132011 0.763360 0.624870 0.163768 0.019986 0.622612 1 14 1.000000
  14 -3.307953 -4.381136 59.064678 0.653843 0.733962 0.183818 0.047769 0.752172 1 14 1.000000
outline
  14 -1.868912 -4.757731 58.338051 0.382195 0.857671 0.343987 0.245927 0.652243 1 14 1.000000
  14 -1.831747 -5.394044 59.229534 0.350001 0.893016 0.282883 0.250975 0.775700 1 14 1.000000
  14 -1.041543 -5.046689 58.254425 0.414722 0.834395 0.363030 0.360832 0.640625 1 14 1.000000
outline
  14 -1.041543 -5.046689 58.254425 0.414722 0.834395 0.363030 0.360832 0.640625 1 14 1.000000
  14 -1.831747 -5.394044 59.229534 0.350001 0.893016 0.282883 0.250975 0.775700 1 14 1.000000
  14 -0.757185 -5.441804 58.750740 0.212051 0.930400 0.298983 0.399228 0.709206 1 14 1.000000
outline
  14 -1.868912 -4.757731 58.338051 0.382195 0.857671 0.343987 0.245927 0.652243 1 14 1.000000
  14 -1.922951 -4.594584 57.635902 0.418642 0.901401 0.110519 0.238497 0.553430 1 14 1.000000
  14 -3.017488 -4.257673 58.375629 0.450542 0.850916 0.270100 0.087006 0.657137 1 14 1.000000
outline
  14 -1.868912 -4.757731 58.338051 0.382195 0.857671 0.343987 0.245927 0.652243 1 14 1.000000
  14 -1.041543 -5.046689 58.254425 0.414722 0.834395 0.363030 0.360832 0.640625 1 14 1.000000
  14 -1.922951 -4.594584 57.635902 0.418642 0.901401 0.110519 0.238497 0.553430 1 14 1.000000
outline
  14 -3.162617 -4.043077 57.938972 0.562268 0.816474 0.131243 0.067271 0.595812 1 14 1.000000
  14 -3.511835 -3.801235 58.132011 0.763360 0.624870 0.163768 0.019986 0.622612 1 14 1.000000
  14 -3.017488 -4.257673 58.375629 0.450542 0.850916 0.270100 0.087006 0.657137 1 14 1.000000
outline
  14 -3.162617 -4.043077 57.938972 0.562268 0.816474 0.131243 0.067271 0.595812 1 14 1.000000
  14 -3.326214 -3.727849 56.644276 0.736418 0.674671 -0.050077 0.045533 0.414756 1 14 1.000000
  14 -3.511835 -3.801235 58.132011 0.763360 0.624870 0.163768 0.019986 0.622612 1 14 1.000000
outline
  14 -3.017488 -4.257673 58.375629 0.450542 0.850916 0.270100 0.087006 0.657137 1 14 1.000000
  14 -1.922951 -4.594584 57.635902 0.418642 0.901401 0.110519 0.238497 0.553430 1 14 1.000000
  14 -3.162617 -4.043077 57.938972 0.562268 0.816474 0.131243 0.067271 0.595812 1 14 1.000000
outline
  14 -0.757185 -5.441804 58.750740 0.212051 0.930400 0.298983 0.399228 0.709206 1 14 1.000000
  14 -0.621147 -5.075530 57.580647 0.424069 0.905477 0.016630 0.419522 0.545485 1 14 1.000000
  14 -1.041543 -5.046689 58.254425 0.414722 0.834395 0.363030 0.360832 0.640625 1 14 1.000000
outline
  14 -1.922951 -4.594584 57.635902 0.418642 0.901401 0.110519 0.238497 0.553430 1 14 1.000000
  14 -1.041543 -5.046689 58.254425 0.414722 0.834395 0.363030 0.360832 0.640625 1 14 1.000000
  14 -0.898120 -4.959206 57.633888 0.379956 0.924895 -0.014226 0.380585 0.553080 1 14 1.000000
outline
  14 -1.041543 -5.046689 58.254425 0.414722 0.834395 0.363030 0.360832 0.640625 1 14 1.000000
  14 -0.621147 -5.075530 57.580647 0.424069 0.905477 0.016630 0.419522 0.545485 1 14 1.000000
  14 -0.898120 -4.959206 57.633888 0.379956 0.924895 -0.014226 0.380585 0.553080 1 14 1.000000
outline
  14 -3.162617 -4.043077 57.938972 0.562268 0.816474 0.131243 0.067271 0.595812 1 14 1.000000
  14 -1.922951 -4.594584 57.635902 0.418642 0.901401 0.110519 0.238497 0.553430 1 14 1.000000
  14 -3.025321 -3.978920 56.867058 0.515297 0.855756 0.046365 0.086286 0.446744 1 14 1.000000
outline
  14 -3.025321 -3.978920 56.867058 0.515297 0.855756 0.046365 0.086286 0.446744 1 14 1.000000
  14 -3.326214 -3.727849 56.644276 0.736418 0.674671 -0.050077 0.045533 0.414756 1 14 1.000000
  14 -3.162617 -4.043077 57.938972 0.562268 0.816474 0.131243 0.067271 0.595812 1 14 1.000000
outline
  14 -3.025321 -3.978920 56.867058 0.515297 0.855756 0.046365 0.086286 0.446744 1 14 1.000000
  14 -1.922951 -4.594584 57.635902 0.418642 0.901401 0.110519 0.238497 0.553430 1 14 1.000000
  14 -1.932808 -4.584304 56.861664 0.390616 0.912643 -0.120421 0.237315 0.444788 1 14 1.000000
outline
  14 -0.898120 -4.959206 57.633888 0.379956 0.924895 -0.014226 0.380585 0.553080 1 14 1.000000
  14 -1.033647 -4.944550 56.890198 0.484376 0.859578 -0.162805 0.362080 0.448322 1 14 1.000000
  14 -1.922951 -4.594584 57.635902 0.418642 0.901401 0.110519 0.238497 0.553430 1 14 1.000000
outline
  14 -1.922951 -4.594584 57.635902 0.418642 0.901401 0.110519 0.238497 0.553430 1 14 1.000000
  14 -1.033647 -4.944550 56.890198 0.484376 0.859578 -0.162805 0.362080 0.448322 1 14 1.000000
  14 -1.932808 -4.584304 56.861664 0.390616 0.912643 -0.120421 0.237315 0.444788 1 14 1.000000
outline
  14 -0.898120 -4.959206 57.633888 0.379956 0.924895 -0.014226 0.380585 0.553080 1 14 1.000000
  14 -0.621147 -5.075530 57.580647 0.424069 0.905477 0.016630 0.419522 0.545485 1 14 1.000000
  14 -1.033647 -4.944550 56.890198 0.484376 0.859578 -0.162805 0.362080 0.448322 1 14 1.000000
outline
  14 -1.932808 -4.584304 56.861664 0.390616 0.912643 -0.120421 0.237315 0.444788 1 14 1.000000
  14 -1.933720 -4.663843 56.543350 0.493163 0.751481 -0.438254 0.237225 0.398820 1 14 1.000000
  14 -3.025321 -3.978920 56.867058 0.515297 0.855756 0.046365 0.086286 0.446744 1 14 1.000000
outline
  14 -3.025321 -3.978920 56.867058 0.515297 0.855756 0.046365 0.086286 0.446744 1 14 1.000000
  14 -1.933720 -4.663843 56.543350 0.493163 0.751481 -0.438254 0.237225 0.398820 1 14 1.000000
  14 -3.326214 -3.727849 56.644276 0.736418 0.674671 -0.050077 0.045533 0.414756 1 14 1.000000
outline
  14 -1.033647 -4.944550 56.890198 0.484376 0.859578 -0.162805 0.362080 0.448322 1 14 1.000000
  14 -1.933720 -4.663843 56.543350 0.493163 0.751481 -0.438254 0.237225 0.398820 1 14 1.000000
  14 -1.932808 -4.584304 56.861664 0.390616 0.912643 -0.120421 0.237315 0.444788 1 14 1.000000
outline
  14 -1.033647 -4.944550 56.890198 0.484376 0.859578 -0.162805 0.362080 0.448322 1 14 1.000000
  14 -0.621147 -5.075530 57.580647 0.424069 0.905477 0.016630 0.419522 0.545485 1 14 1.000000
  14 -0.695302 -5.227960 56.594398 0.493163 0.751481 -0.438254 0.409461 0.406156 1 14 1.000000
outline
  14 -0.695302 -5.227960 56.594398 0.493163 0.751481 -0.438254 0.409461 0.406156 1 14 1.000000
  14 -1.933720 -4.663843 56.543350 0.493163 0.751481 -0.438254 0.237225 0.398820 1 14 1.000000
  14 -1.033647 -4.944550 56.890198 0.484376 0.859578 -0.162805 0.362080 0.448322 1 14 1.000000
outline
  14 -1.933720 -4.663843 56.543350 0.493163 0.751481 -0.438254 0.237225 0.398820 1 14 1.000000
  14 -3.440394 -3.853143 56.163052 0.786912 0.596545 -0.157808 0.030150 0.347705 1 14 1.000000
  14 -3.326214 -3.727849 56.644276 0.736418 0.674671 -0.050077 0.045533 0.414756 1 14 1.000000
outline
  14 -0.695302 -5.227960 56.594398 0.493163 0.751481 -0.438254 0.409461 0.406156 1 14 1.000000
  14 -2.043273 -4.946483 56.180870 0.493163 0.751481 -0.438254 0.222148 0.348571 1 14 1.000000
  14 -1.933720 -4.663843 56.543350 0.493163 0.751481 -0.438254 0.237225 0.398820 1 14 1.000000
outline
  14 -2.043273 -4.946483 56.180870 0.493163 0.751481 -0.438254 0.222148 0.348571 1 14 1.000000
  14 -3.440394 -3.853143 56.163052 0.786912 0.596545 -0.157808 0.030150 0.347705 1 14 1.000000
  14 -1.933720 -4.663843 56.543350 0.493163 0.751481 -0.438254 0.237225 0.398820 1 14 1.000000
outline
  14 -3.440394 -3.853143 56.163052 0.786912 0.596545 -0.157808 0.030150 0.347705 1 14 1.000000
  14 -3.675792 -3.302422 56.263348 0.904910 0.424474 0.030995 -0.001958 0.362499 1 14 1.000000
  14 -3.326214 -3.727849 56.644276 0.736418 0.674671 -0.050077 0.045533 0.414756 1 14 1.000000
outline
  14 -3.326214 -3.727849 56.644276 0.736418 0.674671 -0.050077 0.045533 0.414756 1 14 1.000000
  14 -3.675792 -3.302422 56.263348 0.904910 0.424474 0.030995 -0.001958 0.362499 1 14 1.000000
  14 -3.629982 -3.314495 56.962082 0.843668 0.533839 0.056917 0.004014 0.459753 1 14 1.000000
outline
  14 -3.675792 -3.302422 56.263348 0.904910 0.424474 0.030995 -0.001958 0.362499 1 14 1.000000
  14 -3.078891 -3.646040 54.796822 0.778150 0.160633 0.607189 0.080419 0.177825 1 14 1.000000
  14 -3.488015 -3.115550 55.414680 0.889488 0.363537 0.276860 0.024047 0.262133 1 14 1.000000
outline
  14 -3.675792 -3.302422 56.263348 0.904910 0.424474 0.030995 -0.001958 0.362499 1 14 1.000000
  14 -3.135241 -4.134871 55.034878 0.758090 0.502477 0.415713 0.072319 0.210119 1 14 1.000000
  14 -3.078891 -3.646040 54.796822 0.778150 0.160633 0.607189 0.080419 0.177825 1 14 1.000000
outline
  14 -3.675792 -3.302422 56.263348 0.904910 0.424474 0.030995 -0.001958 0.362499 1 14 1.000000
  14 -3.440394 -3.853143 56.163052 0.786912 0.596545 -0.157808 0.030150 0.347705 1 14 1.000000
  14 -3.135241 -4.134871 55.034878 0.758090 0.502477 0.415713 0.072319 0.210119 1 14 1.000000
outline
  14 -3.078891 -3.646040 54.796822 0.778150 0.160633 0.607189 0.080419 0.177825 1 14 1.000000
  14 -3.135241 -4.134871 55.034878 0.758090 0.502477 0.415713 0.072319 0.210119 1 14 1.000000
  14 -2.186620 -4.053269 54.146275 0.463488 0.630753 0.622358 0.202256 0.088082 1 14 1.000000
outline
  14 -3.440394 -3.853143 56.163052 0.786912 0.596545 -0.157808 0.030150 0.347705 1 14 1.000000
  14 -3.043408 -4.307909 55.534389 0.637150 0.764320 0.099274 0.084512 0.277364 1 14 1.000000
  14 -3.135241 -4.134871 55.034878 0.758090 0.502477 0.415713 0.072319 0.210119 1 14 1.000000
outline
  14 -2.043273 -4.946483 56.180870 0.493163 0.751481 -0.438254 0.222148 0.348571 1 14 1.000000
  14 -3.043408 -4.307909 55.534389 0.637150 0.764320 0.099274 0.084512 0.277364 1 14 1.000000
  14 -3.440394 -3.853143 56.163052 0.786912 0.596545 -0.157808 0.030150 0.347705 1 14 1.000000
outline
  14 -3.135241 -4.134871 55.034878 0.758090 0.502477 0.415713 0.072319 0.210119 1 14 1.000000
  14 -2.220713 -4.633723 54.780846 0.468865 0.737226 0.486481 0.197556 0.175385 1 14 1.000000
  14 -2.186620 -4.053269 54.146275 0.463488 0.630753 0.622358 0.202256 0.088082 1 14 1.000000
outline
  14 -3.135241 -4.134871 55.034878 0.758090 0.502477 0.415713 0.072319 0.210119 1 14 1.000000
  14 -3.043408 -4.307909 55.534389 0.637150 0.764320 0.099274 0.084512 0.277364 1 14 1.000000
  14 -2.220713 -4.633723 54.780846 0.468865 0.737226 0.486481 0.197556 0.175385 1 14 1.000000
outline
  14 -2.160512 -5.056297 55.562687 0.515297 0.855756 0.046365 0.206077 0.281499 1 14 1.000000
  14 -3.043408 -4.307909 55.534389 0.637150 0.764320 0.099274 0.084512 0.277364 1 14 1.000000
  14 -2.043273 -4.946483 56.180870 0.493163 0.751481 -0.438254 0.222148 0.348571 1 14 1.000000
outline
  14 -2.220713 -4.633723 54.780846 0.468865 0.737226 0.486481 0.197556 0.175385 1 14 1.000000
  14 -3.043408 -4.307909 55.534389 0.637150 0.764320 0.099274 0.084512 0.277364 1 14 1.000000
  14 -2.160512 -5.056297 55.562687 0.515297 0.855756 0.046365 0.206077 0.281499 1 14 1.000000
outline
  14 -2.220713 -4.633723 54.780846 0.468865 0.737226 0.486481 0.197556 0.175385 1 14 1.000000
  14 -1.071563 -5.061885 54.579205 0.253768 0.842369 0.475411 0.355821 0.147455 1 14 1.000000
  14 -2.186620 -4.053269 54.146275 0.463488 0.630753 0.622358 0.202256 0.088082 1 14 1.000000
outline
  14 -2.220713 -4.633723 54.780846 0.468865 0.737226 0.486481 0.197556 0.175385 1 14 1.000000
  14 -2.160512 -5.056297 55.562687 0.515297 0.855756 0.046365 0.206077 0.281499 1 14 1.000000
  14 -1.071563 -5.061885 54.579205 0.253768 0.842369 0.475411 0.355821 0.147455 1 14 1.000000
outline
  14 -2.186620 -4.053269 54.146275 0.463488 0.630753 0.622358 0.202256 0.088082 1 14 1.000000
  14 -1.071563 -5.061885 54.579205 0.253768 0.842369 0.475411 0.355821 0.147455 1 14 1.000000
  14 -1.148605 -4.186572 53.608875 0.263126 0.745957 0.611811 0.345287 0.015998 1 14 1.000000
outline
  14 -2.160512 -5.056297 55.562687 0.515297 0.855756 0.046365 0.206077 0.281499 1 14 1.000000
  14 -2.043273 -4.946483 56.180870 0.493163 0.751481 -0.438254 0.222148 0.348571 1 14 1.000000
  14 -0.656959 -5.560971 55.720055 0.394896 0.897806 0.194940 0.414016 0.304094 1 14 1.000000
outline
  14 -2.160512 -5.056297 55.562687 0.515297 0.855756 0.046365 0.206077 0.281499 1 14 1.000000
  14 -0.656959 -5.560971 55.720055 0.394896 0.897806 0.194940 0.414016 0.304094 1 14 1.000000
  14 -1.071563 -5.061885 54.579205 0.253768 0.842369 0.475411 0.355821 0.147455 1 14 1.000000
outline
  14 -0.000001 -5.225354 54.575619 0.002379 0.862638 0.505816 0.503161 0.146963 1 14 1.000000
  14 -1.148605 -4.186572 53.608875 0.263126 0.745957 0.611811 0.345287 0.015998 1 14 1.000000
  14 -1.071563 -5.061885 54.579205 0.253768 0.842369 0.475411 0.355821 0.147455 1 14 1.000000
outline
  14 -1.071563 -5.061885 54.579205 0.253768 0.842369 0.475411 0.355821 0.147455 1 14 1.000000
  14 -0.656959 -5.560971 55.720055 0.394896 0.897806 0.194940 0.414016 0.304094 1 14 1.000000
  14 -0.000001 -5.225354 54.575619 0.002379 0.862638 0.505816 0.503161 0.146963 1 14 1.000000
outline
  14 -0.000001 -4.242419 53.285912 -0.003103 0.819305 0.573349 0.503161 0.003866 1 14 1.000000
  14 -1.148605 -4.186572 53.608875 0.263126 0.745957 0.611811 0.345287 0.015998 1 14 1.000000
  14 -0.000001 -5.225354 54.575619 0.002379 0.862638 0.505816 0.503161 0.146963 1 14 1.000000
outline
  14 -0.000001 -5.225354 54.575619 0.002379 0.862638 0.505816 0.503161 0.146963 1 14 1.000000
  14 1.148603 -4.186573 53.608875 -0.246254 0.751378 0.612201 0.661036 0.012910 1 14 1.000000
  14 -0.000001 -4.242419 53.285912 -0.003103 0.819305 0.573349 0.503161 0.003866 1 14 1.000000
outline
  14 1.071560 -5.061885 54.579205 -0.217451 0.841947 0.493801 0.650502 0.147455 1 14 1.000000
  14 1.148603 -4.186573 53.608875 -0.246254 0.751378 0.612201 0.661036 0.012910 1 14 1.000000
  14 -0.000001 -5.225354 54.575619 0.002379 0.862638 0.505816 0.503161 0.146963 1 14 1.000000
outline
  14 -0.000001 -5.225354 54.575619 0.002379 0.862638 0.505816 0.503161 0.146963 1 14 1.000000
  14 0.656956 -5.560972 55.720055 -0.373493 0.898146 0.232027 0.592306 0.304094 1 14 1.000000
  14 1.071560 -5.061885 54.579205 -0.217451 0.841947 0.493801 0.650502 0.147455 1 14 1.000000
outline
  14 1.071560 -5.061885 54.579205 -0.217451 0.841947 0.493801 0.650502 0.147455 1 14 1.000000
  14 0.656956 -5.560972 55.720055 -0.373493 0.898146 0.232027 0.592306 0.304094 1 14 1.000000
  14 2.160509 -5.056298 55.562687 -0.470441 0.880855 0.052726 0.800246 0.281499 1 14 1.000000
outline
  14 0.656956 -5.560972 55.720055 -0.373493 0.898146 0.232027 0.592306 0.304094 1 14 1.000000
  14 2.043271 -4.946485 56.180870 -0.391979 0.815607 -0.425602 0.784175 0.348571 1 14 1.000000
  14 2.160509 -5.056298 55.562687 -0.470441 0.880855 0.052726 0.800246 0.281499 1 14 1.000000
outline
  14 -0.000002 -5.626933 55.442513 0.025545 0.881319 0.471830 0.503161 0.267102 1 14 1.000000
  14 0.656956 -5.560972 55.720055 -0.373493 0.898146 0.232027 0.592306 0.304094 1 14 1.000000
  14 -0.000001 -5.225354 54.575619 0.002379 0.862638 0.505816 0.503161 0.146963 1 14 1.000000
outline
  14 -0.000001 -5.225354 54.575619 0.002379 0.862638 0.505816 0.503161 0.146963 1 14 1.000000
  14 -0.656959 -5.560971 55.720055 0.394896 0.897806 0.194940 0.414016 0.304094 1 14 1.000000
  14 -0.000002 -5.626933 55.442513 0.025545 0.881319 0.471830 0.503161 0.267102 1 14 1.000000
outline
  14 0.700530 -5.517692 56.185966 -0.499293 0.819991 -0.279860 0.597435 0.350153 1 14 1.000000
  14 2.043271 -4.946485 56.180870 -0.391979 0.815607 -0.425602 0.784175 0.348571 1 14 1.000000
  14 0.656956 -5.560972 55.720055 -0.373493 0.898146 0.232027 0.592306 0.304094 1 14 1.000000
outline
  14 0.700530 -5.517692 56.185966 -0.499293 0.819991 -0.279860 0.597435 0.350153 1 14 1.000000
  14 0.695300 -5.227960 56.594398 -0.504544 0.737808 -0.448414 0.596861 0.406156 1 14 1.000000
  14 2.043271 -4.946485 56.180870 -0.391979 0.815607 -0.425602 0.784175 0.348571 1 14 1.000000
outline
  14 -0.000002 -5.626933 55.442513 0.025545 0.881319 0.471830 0.503161 0.267102 1 14 1.000000
  14 0.312869 -5.819751 55.916157 -0.516478 0.777090 0.359697 0.535707 0.316229 1 14 1.000000
  14 0.656956 -5.560972 55.720055 -0.373493 0.898146 0.232027 0.592306 0.304094 1 14 1.000000
outline
  14 0.656956 -5.560972 55.720055 -0.373493 0.898146 0.232027 0.592306 0.304094 1 14 1.000000
  14 0.312869 -5.819751 55.916157 -0.516478 0.777090 0.359697 0.535707 0.316229 1 14 1.000000
  14 0.700530 -5.517692 56.185966 -0.499293 0.819991 -0.279860 0.597435 0.350153 1 14 1.000000
outline
  14 -0.656959 -5.560971 55.720055 0.394896 0.897806 0.194940 0.414016 0.304094 1 14 1.000000
  14 -0.312872 -5.819751 55.916157 0.516728 0.776901 0.359745 0.454581 0.316229 1 14 1.000000
  14 -0.000002 -5.626933 55.442513 0.025545 0.881319 0.471830 0.503161 0.267102 1 14 1.000000
outline
  14 -0.000002 -5.874906 55.799232 0.008748 0.796597 0.604448 0.495144 0.301327 1 14 1.000000
  14 0.312869 -5.819751 55.916157 -0.516478 0.777090 0.359697 0.535707 0.316229 1 14 1.000000
  14 -0.000002 -5.626933 55.442513 0.025545 0.881319 0.471830 0.503161 0.267102 1 14 1.000000
outline
  14 -0.000002 -5.626933 55.442513 0.025545 0.881319 0.471830 0.503161 0.267102 1 14 1.000000
  14 -0.312872 -5.819751 55.916157 0.516728 0.776901 0.359745 0.454581 0.316229 1 14 1.000000
  14 -0.000002 -5.874906 55.799232 0.008748 0.796597 0.604448 0.495144 0.301327 1 14 1.000000
outline
  14 -0.656959 -5.560971 55.720055 0.394896 0.897806 0.194940 0.414016 0.304094 1 14 1.000000
  14 -0.700533 -5.517691 56.185966 0.499280 0.820015 -0.279811 0.408887 0.350153 1 14 1.000000
  14 -0.312872 -5.819751 55.916157 0.516728 0.776901 0.359745 0.454581 0.316229 1 14 1.000000
outline
  14 -0.656959 -5.560971 55.720055 0.394896 0.897806 0.194940 0.414016 0.304094 1 14 1.000000
  14 -2.043273 -4.946483 56.180870 0.493163 0.751481 -0.438254 0.222148 0.348571 1 14 1.000000
  14 -0.700533 -5.517691 56.185966 0.499280 0.820015 -0.279811 0.408887 0.350153 1 14 1.000000
outline
  14 -0.700533 -5.517691 56.185966 0.499280 0.820015 -0.279811 0.408887 0.350153 1 14 1.000000
  14 -2.043273 -4.946483 56.180870 0.493163 0.751481 -0.438254 0.222148 0.348571 1 14 1.000000
  14 -0.695302 -5.227960 56.594398 0.493163 0.751481 -0.438254 0.409461 0.406156 1 14 1.000000
outline
  14 -0.312872 -5.819751 55.916157 0.516728 0.776901 0.359745 0.454581 0.316229 1 14 1.000000
  14 -0.700533 -5.517691 56.185966 0.499280 0.820015 -0.279811 0.408887 0.350153 1 14 1.000000
  14 -0.400233 -5.803314 56.209621 0.701437 0.692455 -0.168799 0.443606 0.354060 1 14 1.000000
outline
  14 -0.695302 -5.227960 56.594398 0.493163 0.751481 -0.438254 0.409461 0.406156 1 14 1.000000
  14 -0.307977 -5.699640 56.477356 0.585352 0.621465 -0.520715 0.455638 0.389084 1 14 1.000000
  14 -0.700533 -5.517691 56.185966 0.499280 0.820015 -0.279811 0.408887 0.350153 1 14 1.000000
outline
  14 -0.700533 -5.517691 56.185966 0.499280 0.820015 -0.279811 0.408887 0.350153 1 14 1.000000
  14 -0.307977 -5.699640 56.477356 0.585352 0.621465 -0.520715 0.455638 0.389084 1 14 1.000000
  14 -0.400233 -5.803314 56.209621 0.701437 0.692455 -0.168799 0.443606 0.354060 1 14 1.000000
outline
  14 -0.400233 -5.803314 56.209621 0.701437 0.692455 -0.168799 0.443606 0.354060 1 14 1.000000
  14 -0.116596 -6.108919 56.143105 0.519933 0.796388 0.308926 0.481963 0.347372 1 14 1.000000
  14 -0.312872 -5.819751 55.916157 0.516728 0.776901 0.359745 0.454581 0.316229 1 14 1.000000
outline
  14 -0.312872 -5.819751 55.916157 0.516728 0.776901 0.359745 0.454581 0.316229 1 14 1.000000
  14 -0.116596 -6.108919 56.143105 0.519933 0.796388 0.308926 0.481963 0.347372 1 14 1.000000
  14 -0.000002 -5.874906 55.799232 0.008748 0.796597 0.604448 0.495144 0.301327 1 14 1.000000
outline
  14 -0.131189 -6.110348 56.255764 0.613337 0.761108 -0.211026 0.480308 0.360228 1 14 1.000000
  14 -0.116596 -6.108919 56.143105 0.519933 0.796388 0.308926 0.481963 0.347372 1 14 1.000000
  14 -0.400233 -5.803314 56.209621 0.701437 0.692455 -0.168799 0.443606 0.354060 1 14 1.000000
outline
  14 -0.695302 -5.227960 56.594398 0.493163 0.751481 -0.438254 0.409461 0.406156 1 14 1.000000
  14 -0.216932 -5.541646 56.748516 0.464538 0.781975 -0.415596 0.475686 0.427316 1 14 1.000000
  14 -0.307977 -5.699640 56.477356 0.585352 0.621465 -0.520715 0.455638 0.389084 1 14 1.000000
outline
  14 -0.621147 -5.075530 57.580647 0.424069 0.905477 0.016630 0.419522 0.545485 1 14 1.000000
  14 -0.216932 -5.541646 56.748516 0.464538 0.781975 -0.415596 0.475686 0.427316 1 14 1.000000
  14 -0.695302 -5.227960 56.594398 0.493163 0.751481 -0.438254 0.409461 0.406156 1 14 1.000000
outline
  14 -0.307977 -5.699640 56.477356 0.585352 0.621465 -0.520715 0.455638 0.389084 1 14 1.000000
  14 -0.100566 -6.059595 56.361694 0.488286 0.615037 -0.619117 0.484022 0.372647 1 14 1.000000
  14 -0.400233 -5.803314 56.209621 0.701437 0.692455 -0.168799 0.443606 0.354060 1 14 1.000000
outline
  14 -0.400233 -5.803314 56.209621 0.701437 0.692455 -0.168799 0.443606 0.354060 1 14 1.000000
  14 -0.100566 -6.059595 56.361694 0.488286 0.615037 -0.619117 0.484022 0.372647 1 14 1.000000
  14 -0.131189 -6.110348 56.255764 0.613337 0.761108 -0.211026 0.480308 0.360228 1 14 1.000000
outline
  14 -0.216932 -5.541646 56.748516 0.464538 0.781975 -0.415596 0.475686 0.427316 1 14 1.000000
  14 -0.000002 -5.828832 56.574387 0.006064 0.651083 -0.758982 0.495144 0.401345 1 14 1.000000
  14 -0.307977 -5.699640 56.477356 0.585352 0.621465 -0.520715 0.455638 0.389084 1 14 1.000000
outline
  14 -0.000002 -5.828832 56.574387 0.006064 0.651083 -0.758982 0.495144 0.401345 1 14 1.000000
  14 -0.100566 -6.059595 56.361694 0.488286 0.615037 -0.619117 0.484022 0.372647 1 14 1.000000
  14 -0.307977 -5.699640 56.477356 0.585352 0.621465 -0.520715 0.455638 0.389084 1 14 1.000000
outline
  14 -0.168564 -5.294242 57.567131 0.310382 0.949590 -0.044065 0.481470 0.542988 1 14 1.000000
  14 -0.216932 -5.541646 56.748516 0.464538 0.781975 -0.415596 0.475686 0.427316 1 14 1.000000
  14 -0.621147 -5.075530 57.580647 0.424069 0.905477 0.016630 0.419522 0.545485 1 14 1.000000
outline
  14 -0.621147 -5.075530 57.580647 0.424069 0.905477 0.016630 0.419522 0.545485 1 14 1.000000
  14 -0.757185 -5.441804 58.750740 0.212051 0.930400 0.298983 0.399228 0.709206 1 14 1.000000
  14 -0.168564 -5.294242 57.567131 0.310382 0.949590 -0.044065 0.481470 0.542988 1 14 1.000000
outline
  14 -0.168564 -5.294242 57.567131 0.310382 0.949590 -0.044065 0.481470 0.542988 1 14 1.000000
  14 -0.000002 -5.601532 56.799397 -0.000964 0.855451 -0.517883 0.503161 0.433896 1 14 1.000000
  14 -0.216932 -5.541646 56.748516 0.464538 0.781975 -0.415596 0.475686 0.427316 1 14 1.000000
outline
  14 -0.216932 -5.541646 56.748516 0.464538 0.781975 -0.415596 0.475686 0.427316 1 14 1.000000
  14 -0.000002 -5.601532 56.799397 -0.000964 0.855451 -0.517883 0.503161 0.433896 1 14 1.000000
  14 -0.000002 -5.828832 56.574387 0.006064 0.651083 -0.758982 0.495144 0.401345 1 14 1.000000
outline
  14 -0.000001 -5.327511 57.592159 0.026308 0.997692 -0.062596 0.503161 0.546420 1 14 1.000000
  14 -0.000002 -5.601532 56.799397 -0.000964 0.855451 -0.517883 0.503161 0.433896 1 14 1.000000
  14 -0.168564 -5.294242 57.567131 0.310382 0.949590 -0.044065 0.481470 0.542988 1 14 1.000000
outline
  14 -0.168564 -5.294242 57.567131 0.310382 0.949590 -0.044065 0.481470 0.542988 1 14 1.000000
  14 -0.757185 -5.441804 58.750740 0.212051 0.930400 0.298983 0.399228 0.709206 1 14 1.000000
  14 -0.000002 -5.521663 58.806488 0.035208 0.981721 0.187043 0.503161 0.716322 1 14 1.000000
outline
  14 -0.168564 -5.294242 57.567131 0.310382 0.949590 -0.044065 0.481470 0.542988 1 14 1.000000
  14 -0.000002 -5.521663 58.806488 0.035208 0.981721 0.187043 0.503161 0.716322 1 14 1.000000
  14 -0.000001 -5.327511 57.592159 0.026308 0.997692 -0.062596 0.503161 0.546420 1 14 1.000000
outline
  14 -0.757185 -5.441804 58.750740 0.212051 0.930400 0.298983 0.399228 0.709206 1 14 1.000000
  14 -0.000002 -5.695246 59.662868 0.014560 0.996298 0.084727 0.503161 0.834742 1 14 1.000000
  14 -0.000002 -5.521663 58.806488 0.035208 0.981721 0.187043 0.503161 0.716322 1 14 1.000000
outline
  14 -0.000002 -5.695246 59.662868 0.014560 0.996298 0.084727 0.503161 0.834742 1 14 1.000000
  14 0.757182 -5.441805 58.750740 -0.210807 0.933875 0.288857 0.607095 0.709206 1 14 1.000000
  14 -0.000002 -5.521663 58.806488 0.035208 0.981721 0.187043 0.503161 0.716322 1 14 1.000000
outline
  14 -0.000001 -5.327511 57.592159 0.026308 0.997692 -0.062596 0.503161 0.546420 1 14 1.000000
  14 -0.000002 -5.521663 58.806488 0.035208 0.981721 0.187043 0.503161 0.716322 1 14 1.000000
  14 0.168561 -5.294243 57.567131 -0.291692 0.955055 -0.052769 0.524853 0.542988 1 14 1.000000
outline
  14 -0.000002 -5.521663 58.806488 0.035208 0.981721 0.187043 0.503161 0.716322 1 14 1.000000
  14 0.757182 -5.441805 58.750740 -0.210807 0.933875 0.288857 0.607095 0.709206 1 14 1.000000
  14 0.168561 -5.294243 57.567131 -0.291692 0.955055 -0.052769 0.524853 0.542988 1 14 1.000000
outline
  14 0.168561 -5.294243 57.567131 -0.291692 0.955055 -0.052769 0.524853 0.542988 1 14 1.000000
  14 -0.000002 -5.601532 56.799397 -0.000964 0.855451 -0.517883 0.503161 0.433896 1 14 1.000000
  14 -0.000001 -5.327511 57.592159 0.026308 0.997692 -0.062596 0.503161 0.546420 1 14 1.000000
outline
  14 0.168561 -5.294243 57.567131 -0.291692 0.955055 -0.052769 0.524853 0.542988 1 14 1.000000
  14 0.757182 -5.441805 58.750740 -0.210807 0.933875 0.288857 0.607095 0.709206 1 14 1.000000
  14 0.621144 -5.075530 57.580647 -0.432182 0.895260 0.108293 0.586801 0.545485 1 14 1.000000
outline
  14 0.216929 -5.541646 56.748516 -0.457112 0.769919 -0.445279 0.530637 0.427316 1 14 1.000000
  14 -0.000002 -5.601532 56.799397 -0.000964 0.855451 -0.517883 0.503161 0.433896 1 14 1.000000
  14 0.168561 -5.294243 57.567131 -0.291692 0.955055 -0.052769 0.524853 0.542988 1 14 1.000000
outline
  14 0.621144 -5.075530 57.580647 -0.432182 0.895260 0.108293 0.586801 0.545485 1 14 1.000000
  14 0.216929 -5.541646 56.748516 -0.457112 0.769919 -0.445279 0.530637 0.427316 1 14 1.000000
  14 0.168561 -5.294243 57.567131 -0.291692 0.955055 -0.052769 0.524853 0.542988 1 14 1.000000
outline
  14 -0.000002 -5.828832 56.574387 0.006064 0.651083 -0.758982 0.495144 0.401345 1 14 1.000000
  14 -0.000002 -5.601532 56.799397 -0.000964 0.855451 -0.517883 0.503161 0.433896 1 14 1.000000
  14 0.216929 -5.541646 56.748516 -0.457112 0.769919 -0.445279 0.530637 0.427316 1 14 1.000000
outline
  14 0.695300 -5.227960 56.594398 -0.504544 0.737808 -0.448414 0.596861 0.406156 1 14 1.000000
  14 0.216929 -5.541646 56.748516 -0.457112 0.769919 -0.445279 0.530637 0.427316 1 14 1.000000
  14 0.621144 -5.075530 57.580647 -0.432182 0.895260 0.108293 0.586801 0.545485 1 14 1.000000
outline
  14 0.307974 -5.699641 56.477356 -0.565559 0.610811 -0.554123 0.534650 0.389084 1 14 1.000000
  14 0.216929 -5.541646 56.748516 -0.457112 0.769919 -0.445279 0.530637 0.427316 1 14 1.000000
  14 0.695300 -5.227960 56.594398 -0.504544 0.737808 -0.448414 0.596861 0.406156 1 14 1.000000
outline
  14 0.307974 -5.699641 56.477356 -0.565559 0.610811 -0.554123 0.534650 0.389084 1 14 1.000000
  14 -0.000002 -5.828832 56.574387 0.006064 0.651083 -0.758982 0.495144 0.401345 1 14 1.000000
  14 0.216929 -5.541646 56.748516 -0.457112 0.769919 -0.445279 0.530637 0.427316 1 14 1.000000
outline
  14 0.700530 -5.517692 56.185966 -0.499293 0.819991 -0.279860 0.597435 0.350153 1 14 1.000000
  14 0.307974 -5.699641 56.477356 -0.565559 0.610811 -0.554123 0.534650 0.389084 1 14 1.000000
  14 0.695300 -5.227960 56.594398 -0.504544 0.737808 -0.448414 0.596861 0.406156 1 14 1.000000
outline
  14 0.400230 -5.803314 56.209621 -0.701829 0.691794 -0.169871 0.546682 0.354060 1 14 1.000000
  14 0.307974 -5.699641 56.477356 -0.565559 0.610811 -0.554123 0.534650 0.389084 1 14 1.000000
  14 0.700530 -5.517692 56.185966 -0.499293 0.819991 -0.279860 0.597435 0.350153 1 14 1.000000
outline
  14 0.700530 -5.517692 56.185966 -0.499293 0.819991 -0.279860 0.597435 0.350153 1 14 1.000000
  14 0.312869 -5.819751 55.916157 -0.516478 0.777090 0.359697 0.535707 0.316229 1 14 1.000000
  14 0.400230 -5.803314 56.209621 -0.701829 0.691794 -0.169871 0.546682 0.354060 1 14 1.000000
outline
  14 0.307974 -5.699641 56.477356 -0.565559 0.610811 -0.554123 0.534650 0.389084 1 14 1.000000
  14 0.100563 -6.059594 56.361694 -0.515861 0.617900 -0.593369 0.506266 0.372647 1 14 1.000000
  14 -0.000002 -5.828832 56.574387 0.006064 0.651083 -0.758982 0.495144 0.401345 1 14 1.000000
outline
  14 0.307974 -5.699641 56.477356 -0.565559 0.610811 -0.554123 0.534650 0.389084 1 14 1.000000
  14 0.400230 -5.803314 56.209621 -0.701829 0.691794 -0.169871 0.546682 0.354060 1 14 1.000000
  14 0.100563 -6.059594 56.361694 -0.515861 0.617900 -0.593369 0.506266 0.372647 1 14 1.000000
outline
  14 -0.000002 -5.828832 56.574387 0.006064 0.651083 -0.758982 0.495144 0.401345 1 14 1.000000
  14 0.100563 -6.059594 56.361694 -0.515861 0.617900 -0.593369 0.506266 0.372647 1 14 1.000000
  14 -0.000001 -6.095871 56.378494 -0.008383 0.711456 -0.702681 0.495144 0.374417 1 14 1.000000
outline
  14 -0.000001 -6.095871 56.378494 -0.008383 0.711456 -0.702681 0.495144 0.374417 1 14 1.000000
  14 -0.100566 -6.059595 56.361694 0.488286 0.615037 -0.619117 0.484022 0.372647 1 14 1.000000
  14 -0.000002 -5.828832 56.574387 0.006064 0.651083 -0.758982 0.495144 0.401345 1 14 1.000000
outline
  14 -0.000002 -6.161098 56.292042 0.006354 0.949673 -0.313177 0.495144 0.364563 1 14 1.000000
  14 -0.100566 -6.059595 56.361694 0.488286 0.615037 -0.619117 0.484022 0.372647 1 14 1.000000
  14 -0.000001 -6.095871 56.378494 -0.008383 0.711456 -0.702681 0.495144 0.374417 1 14 1.000000
outline
  14 0.100563 -6.059594 56.361694 -0.515861 0.617900 -0.593369 0.506266 0.372647 1 14 1.000000
  14 -0.000002 -6.161098 56.292042 0.006354 0.949673 -0.313177 0.495144 0.364563 1 14 1.000000
  14 -0.000001 -6.095871 56.378494 -0.008383 0.711456 -0.702681 0.495144 0.374417 1 14 1.000000
outline
  14 -0.131189 -6.110348 56.255764 0.613337 0.761108 -0.211026 0.480308 0.360228 1 14 1.000000
  14 -0.100566 -6.059595 56.361694 0.488286 0.615037 -0.619117 0.484022 0.372647 1 14 1.000000
  14 -0.000002 -6.161098 56.292042 0.006354 0.949673 -0.313177 0.495144 0.364563 1 14 1.000000
outline
  14 0.100563 -6.059594 56.361694 -0.515861 0.617900 -0.593369 0.506266 0.372647 1 14 1.000000
  14 0.400230 -5.803314 56.209621 -0.701829 0.691794 -0.169871 0.546682 0.354060 1 14 1.000000
  14 0.131185 -6.110348 56.255764 -0.616736 0.767418 -0.175232 0.509979 0.360228 1 14 1.000000
outline
  14 0.131185 -6.110348 56.255764 -0.616736 0.767418 -0.175232 0.509979 0.360228 1 14 1.000000
  14 -0.000002 -6.161098 56.292042 0.006354 0.949673 -0.313177 0.495144 0.364563 1 14 1.000000
  14 0.100563 -6.059594 56.361694 -0.515861 0.617900 -0.593369 0.506266 0.372647 1 14 1.000000
outline
  14 -0.000002 -6.157266 56.126598 -0.002215 0.931300 0.364247 0.495144 0.345434 1 14 1.000000
  14 -0.131189 -6.110348 56.255764 0.613337 0.761108 -0.211026 0.480308 0.360228 1 14 1.000000
  14 -0.000002 -6.161098 56.292042 0.006354 0.949673 -0.313177 0.495144 0.364563 1 14 1.000000
outline
  14 0.131185 -6.110348 56.255764 -0.616736 0.767418 -0.175232 0.509979 0.360228 1 14 1.000000
  14 -0.000002 -6.157266 56.126598 -0.002215 0.931300 0.364247 0.495144 0.345434 1 14 1.000000
  14 -0.000002 -6.161098 56.292042 0.006354 0.949673 -0.313177 0.495144 0.364563 1 14 1.000000
outline
  14 -0.116596 -6.108919 56.143105 0.519933 0.796388 0.308926 0.481963 0.347372 1 14 1.000000
  14 -0.131189 -6.110348 56.255764 0.613337 0.761108 -0.211026 0.480308 0.360228 1 14 1.000000
  14 -0.000002 -6.157266 56.126598 -0.002215 0.931300 0.364247 0.495144 0.345434 1 14 1.000000
outline
  14 -0.000002 -5.874906 55.799232 0.008748 0.796597 0.604448 0.495144 0.301327 1 14 1.000000
  14 -0.116596 -6.108919 56.143105 0.519933 0.796388 0.308926 0.481963 0.347372 1 14 1.000000
  14 -0.000002 -6.157266 56.126598 -0.002215 0.931300 0.364247 0.495144 0.345434 1 14 1.000000
outline
  14 0.116593 -6.108919 56.143105 -0.534332 0.787161 0.308004 0.508325 0.347372 1 14 1.000000
  14 -0.000002 -6.157266 56.126598 -0.002215 0.931300 0.364247 0.495144 0.345434 1 14 1.000000
  14 0.131185 -6.110348 56.255764 -0.616736 0.767418 -0.175232 0.509979 0.360228 1 14 1.000000
outline
  14 0.116593 -6.108919 56.143105 -0.534332 0.787161 0.308004 0.508325 0.347372 1 14 1.000000
  14 -0.000002 -5.874906 55.799232 0.008748 0.796597 0.604448 0.495144 0.301327 1 14 1.000000
  14 -0.000002 -6.157266 56.126598 -0.002215 0.931300 0.364247 0.495144 0.345434 1 14 1.000000
outline
  14 0.400230 -5.803314 56.209621 -0.701829 0.691794 -0.169871 0.546682 0.354060 1 14 1.000000
  14 0.116593 -6.108919 56.143105 -0.534332 0.787161 0.308004 0.508325 0.347372 1 14 1.000000
  14 0.131185 -6.110348 56.255764 -0.616736 0.767418 -0.175232 0.509979 0.360228 1 14 1.000000
outline
  14 0.312869 -5.819751 55.916157 -0.516478 0.777090 0.359697 0.535707 0.316229 1 14 1.000000
  14 -0.000002 -5.874906 55.799232 0.008748 0.796597 0.604448 0.495144 0.301327 1 14 1.000000
  14 0.116593 -6.108919 56.143105 -0.534332 0.787161 0.308004 0.508325 0.347372 1 14 1.000000
outline
  14 0.312869 -5.819751 55.916157 -0.516478 0.777090 0.359697 0.535707 0.316229 1 14 1.000000
  14 0.116593 -6.108919 56.143105 -0.534332 0.787161 0.308004 0.508325 0.347372 1 14 1.000000
  14 0.400230 -5.803314 56.209621 -0.701829 0.691794 -0.169871 0.546682 0.354060 1 14 1.000000
end
