// Created by Crowbar 0.76
version 1
nodes
  0 "ValveBiped.Bip01_Pelvis" -1
  1 "ValveBiped.Bip01_L_Thigh" 0
  2 "ValveBiped.Bip01_L_Calf" 1
  3 "ValveBiped.Bip01_L_Foot" 2
  4 "ValveBiped.Bip01_Spine" 0
  5 "ValveBiped.Bip01_Spine1" 4
  6 "ValveBiped.Bip01_Spine2" 5
  7 "ValveBiped.Bip01_Spine4" 6
  8 "ValveBiped.Bip01_R_Clavicle" 7
  9 "ValveBiped.Bip01_R_UpperArm" 8
  10 "ValveBiped.Bip01_R_Forearm" 9
  11 "ValveBiped.Bip01_R_Thigh" 0
  12 "ValveBiped.Bip01_R_Calf" 11
  13 "ValveBiped.Bip01_R_Foot" 12
  14 "ValveBiped.Bip01_L_Clavicle" 7
  15 "ValveBiped.Bip01_L_UpperArm" 14
  16 "ValveBiped.Bip01_L_Forearm" 15
  17 "ValveBiped.Bip01_L_Hand" 16
  18 "ValveBiped.Bip01_R_Hand" 10
  19 "ValveBiped.Bip01_L_Toe0" 3
  20 "ValveBiped.Bip01_R_Toe0" 13
end
skeleton
  time 0
    0 0.002348 0.531250 -28.984375 0.000000 0.000000 -1.570796
    1 2.203125 -0.000004 -0.677246 0.000000 0.000000 0.000000
    2 -15.843750 0.000001 0.000000 0.000000 0.000000 0.000000
    3 -13.187500 0.000001 0.000000 0.000000 0.000000 0.000000
    4 -0.000004 -0.609863 1.186523 0.000000 0.000000 0.000000
    5 -2.666016 0.116882 -0.000007 0.000000 0.000000 0.000000
    6 -1.555664 0.736816 -0.000008 0.000000 0.000000 0.000000
    7 -5.382813 0.054077 -0.000171 0.000000 0.000000 0.000000
    8 -1.244141 1.645508 0.255615 0.000000 0.000000 0.000000
    9 -3.806641 1.080078 0.037781 0.000000 0.000000 0.000000
    10 -2.843750 -0.000035 0.000002 0.000000 0.000000 0.000000
    11 -2.203125 -0.000008 -0.677246 0.000000 0.000000 0.000000
    12 -15.843750 0.000000 0.000000 0.000000 0.000000 0.000000
    13 -13.187500 -0.000001 0.000001 0.000000 0.000000 0.000000
    14 -1.244141 1.645508 -0.255615 0.000000 0.000000 0.000000
    15 -3.808594 1.083984 -0.026917 0.000000 0.000000 0.000000
    16 -2.843750 0.000010 -0.000021 0.000000 0.000000 0.000000
    17 -6.097656 -0.000092 0.000031 0.000000 0.000000 0.000000
    18 -6.097656 0.000018 0.000004 0.000000 0.000000 0.000000
    19 -1.572266 1.237305 0.060699 0.000000 0.000000 0.000000
    20 -1.572266 1.236328 -0.080933 0.000000 0.000000 0.000000
  time 1
    0 0.002348 0.531250 -28.984375 0.000000 0.000000 -1.570796
    1 2.203125 -0.000004 -0.677246 0.000000 0.000000 0.000000
    2 -15.843750 0.000001 0.000000 0.000000 0.000000 0.000000
    3 -13.187500 0.000001 0.000000 0.000000 0.000000 0.000000
    4 -0.000004 -0.609863 1.186523 0.000000 0.000000 0.000000
    5 -2.666016 0.116882 -0.000007 0.000000 0.000000 0.000000
    6 -1.555664 0.736816 -0.000008 0.000000 0.000000 0.000000
    7 -5.382813 0.054077 -0.000171 0.000000 0.000000 0.000000
    8 -1.244141 1.645508 0.255615 0.000000 0.000000 0.000000
    9 -3.806641 1.080078 0.037781 0.000000 0.000000 0.000000
    10 -2.843750 -0.000035 0.000002 0.000000 0.000000 0.000000
    11 -2.203125 -0.000008 -0.677246 0.000000 0.000000 0.000000
    12 -15.843750 0.000000 0.000000 0.000000 0.000000 0.000000
    13 -13.187500 -0.000001 0.000001 0.000000 0.000000 0.000000
    14 -1.244141 1.645508 -0.255615 0.000000 0.000000 0.000000
    15 -3.808594 1.083984 -0.026917 0.000000 0.000000 0.000000
    16 -2.843750 0.000010 -0.000021 0.000000 0.000000 0.000000
    17 -6.097656 -0.000092 0.000031 0.000000 0.000000 0.000000
    18 -6.097656 0.000018 0.000004 0.000000 0.000000 0.000000
    19 -1.572266 1.237305 0.060699 0.000000 0.000000 0.000000
    20 -1.572266 1.236328 -0.080933 0.000000 0.000000 0.000000
end
