// Created by Crowbar 0.76
version 1
nodes
  0 "ValveBiped.Bip01_Pelvis" -1
  1 "ValveBiped.Bip01_L_Thigh" 0
  2 "ValveBiped.Bip01_L_Calf" 1
  3 "ValveBiped.Bip01_L_Foot" 2
  4 "ValveBiped.Bip01_Spine" 0
  5 "ValveBiped.Bip01_Spine1" 4
  6 "ValveBiped.Bip01_Spine2" 5
  7 "ValveBiped.Bip01_Spine4" 6
  8 "ValveBiped.Bip01_R_Clavicle" 7
  9 "ValveBiped.Bip01_R_UpperArm" 8
  10 "ValveBiped.Bip01_R_Forearm" 9
  11 "ValveBiped.Bip01_R_Thigh" 0
  12 "ValveBiped.Bip01_R_Calf" 11
  13 "ValveBiped.Bip01_R_Foot" 12
  14 "ValveBiped.Bip01_L_Clavicle" 7
  15 "ValveBiped.Bip01_L_UpperArm" 14
  16 "ValveBiped.Bip01_L_Forearm" 15
  17 "ValveBiped.Bip01_L_Hand" 16
  18 "ValveBiped.Bip01_R_Hand" 10
  19 "ValveBiped.Bip01_L_Toe0" 3
  20 "ValveBiped.Bip01_R_Toe0" 13
end
skeleton
  time 0
    0 0.000000 0.000000 0.000000 0.000000 0.000000 -1.570796
end
