// Created by Crowbar 0.76
version 1
nodes
  0 "ValveBiped.Bip01_Pelvis" -1
  1 "ValveBiped.Bip01_L_Thigh" 0
  2 "ValveBiped.Bip01_L_Calf" 1
  3 "ValveBiped.Bip01_L_Foot" 2
  4 "ValveBiped.Bip01_Spine" 0
  5 "ValveBiped.Bip01_Spine1" 4
  6 "ValveBiped.Bip01_Spine2" 5
  7 "ValveBiped.Bip01_Spine4" 6
  8 "ValveBiped.Bip01_R_Clavicle" 7
  9 "ValveBiped.Bip01_R_UpperArm" 8
  10 "ValveBiped.Bip01_R_Forearm" 9
  11 "ValveBiped.Bip01_R_Thigh" 0
  12 "ValveBiped.Bip01_R_Calf" 11
  13 "ValveBiped.Bip01_R_Foot" 12
  14 "ValveBiped.Bip01_L_Clavicle" 7
  15 "ValveBiped.Bip01_L_UpperArm" 14
  16 "ValveBiped.Bip01_L_Forearm" 15
  17 "ValveBiped.Bip01_L_Hand" 16
  18 "ValveBiped.Bip01_R_Hand" 10
  19 "ValveBiped.Bip01_L_Toe0" 3
  20 "ValveBiped.Bip01_R_Toe0" 13
end
skeleton
  time 0
    0 0.000000 0.000000 9.573914 1.570793 0.000003 -0.000001
    1 6.095448 0.000000 -0.677267 -1.571081 0.000000 -1.570796
    2 2.000001 0.000000 0.000000 -0.004933 0.000000 0.000000
    3 3.333829 0.000000 0.000000 0.008763 0.017255 -1.010369
    4 0.000001 2.734946 -1.794768 1.570795 0.086294 1.570791
    5 1.351545 0.116921 -0.000007 0.000000 0.000001 -0.029231
    6 1.961972 0.737148 -0.000008 0.000000 -0.000044 0.100329
    7 3.559368 0.054094 -0.000171 0.000009 0.000052 0.194100
    8 0.788353 2.646778 -1.681969 -1.574432 1.117754 2.959611
    9 2.220224 1.080833 0.037789 1.570038 -0.001591 0.453045
    10 8.848644 -0.000004 0.000002 -0.000419 0.000000 0.000000
    11 -6.095448 0.000000 -0.677275 -1.570525 0.000000 -1.570796
    12 2.000000 0.000000 0.000000 0.004880 0.000000 0.000000
    13 3.333828 0.000000 0.000000 -0.002096 -0.019462 -1.010223
    14 0.788342 2.646777 1.681979 1.564403 -1.116058 2.970024
    15 2.218554 1.084578 -0.026930 -1.573133 -0.002806 0.454726
    16 8.848644 -0.000006 0.000000 -0.000192 0.000000 0.000000
    17 5.383376 -0.000004 0.000004 1.573454 -0.106738 0.134901
    18 5.383375 -0.000003 0.000000 -1.563666 0.106381 0.130249
    19 5.307049 1.238041 0.060709 -0.001025 -0.003549 -0.555366
    20 5.307053 1.236859 -0.080940 -0.061126 0.006074 -0.556014
  time 1
    0 0.000000 0.000000 9.573914 1.570793 0.000003 -0.000001
    1 6.095448 0.000000 -0.677267 -1.571081 0.000000 -1.570796
    2 2.000001 0.000000 0.000000 -0.004933 0.000000 0.000000
    3 3.333829 0.000000 0.000000 0.008763 0.017255 -1.010369
    4 0.000001 2.734946 -1.794768 1.570795 0.086294 1.570791
    5 1.351545 0.116921 -0.000007 0.000000 0.000001 -0.029231
    6 1.961972 0.737148 -0.000008 0.000000 -0.000044 0.100329
    7 3.559368 0.054094 -0.000171 0.000009 0.000052 0.194100
    8 0.788353 2.646778 -1.681969 -1.574432 1.117754 2.959611
    9 2.220224 1.080833 0.037789 1.570038 -0.001591 0.453045
    10 8.848644 -0.000004 0.000002 -0.000419 0.000000 0.000000
    11 -6.095448 0.000000 -0.677275 -1.570525 0.000000 -1.570796
    12 2.000000 0.000000 0.000000 0.004880 0.000000 0.000000
    13 3.333828 0.000000 0.000000 -0.002096 -0.019462 -1.010223
    14 0.788342 2.646777 1.681979 1.564403 -1.116058 2.970024
    15 2.218554 1.084578 -0.026930 -1.573133 -0.002806 0.454726
    16 8.848644 -0.000006 0.000000 -0.000192 0.000000 0.000000
    17 5.383376 -0.000004 0.000004 1.573454 -0.106738 0.134901
    18 5.383375 -0.000003 0.000000 -1.563666 0.106381 0.130249
    19 5.307049 1.238041 0.060709 -0.001025 -0.003549 -0.555366
    20 5.307053 1.236859 -0.080940 -0.061126 0.006074 -0.556014
end
