// Created by Crowbar 0.76
version 1
nodes
  0 "ValveBiped.Bip01_Pelvis" -1
  1 "ValveBiped.Bip01_L_Thigh" 0
  2 "ValveBiped.Bip01_L_Calf" 1
  3 "ValveBiped.Bip01_L_Foot" 2
  4 "ValveBiped.Bip01_Spine" 0
  5 "ValveBiped.Bip01_Spine1" 4
  6 "ValveBiped.Bip01_Spine2" 5
  7 "ValveBiped.Bip01_Spine4" 6
  8 "ValveBiped.Bip01_R_Clavicle" 7
  9 "ValveBiped.Bip01_R_UpperArm" 8
  10 "ValveBiped.Bip01_R_Forearm" 9
  11 "ValveBiped.Bip01_R_Thigh" 0
  12 "ValveBiped.Bip01_R_Calf" 11
  13 "ValveBiped.Bip01_R_Foot" 12
  14 "ValveBiped.Bip01_L_Clavicle" 7
  15 "ValveBiped.Bip01_L_UpperArm" 14
  16 "ValveBiped.Bip01_L_Forearm" 15
  17 "ValveBiped.Bip01_L_Hand" 16
  18 "ValveBiped.Bip01_R_Hand" 10
  19 "ValveBiped.Bip01_L_Toe0" 3
  20 "ValveBiped.Bip01_R_Toe0" 13
end
skeleton
  time 0
    0 0.000000 0.000000 9.573914 1.570796 0.000000 0.000001
    1 6.095448 0.000000 -0.677267 -1.571081 0.000000 -1.570796
    2 2.000001 0.000000 0.000000 -0.004933 0.000000 0.000000
    3 3.333829 0.000000 0.000000 0.008763 0.017255 -1.010369
    4 0.000001 2.734946 -1.794768 1.570795 0.086294 1.570791
    5 1.351545 0.116921 -0.000007 0.000000 0.000001 -0.029231
    6 1.961972 0.737148 -0.000008 0.000000 -0.000044 0.100329
    7 3.559368 0.054094 -0.000171 0.000009 0.000052 0.194100
    8 0.788353 2.646778 -1.681969 -1.574432 1.117754 2.959611
    9 2.220224 1.080833 0.037789 1.570038 -0.001591 0.453045
    10 8.848644 -0.000004 0.000002 -0.000419 0.000000 0.000000
    11 -6.095448 0.000000 -0.677275 -1.570525 0.000000 -1.570796
    12 2.000000 0.000000 0.000000 0.004880 0.000000 0.000000
    13 3.333828 0.000000 0.000000 -0.002096 -0.019462 -1.010223
    14 0.788342 2.646777 1.681979 1.564403 -1.116058 2.970024
    15 2.218554 1.084578 -0.026930 -1.573133 -0.002806 0.454726
    16 8.848644 -0.000006 0.000000 -0.000192 0.000000 0.000000
    17 5.383376 -0.000004 0.000004 1.573454 -0.106738 0.134901
    18 5.383375 -0.000003 0.000000 -1.563666 0.106381 0.130249
    19 5.307049 1.238041 0.060709 -0.001025 -0.003549 -0.555366
    20 5.307053 1.236859 -0.080940 -0.061126 0.006074 -0.556014
end
triangles
  phy
    0 -2.414273 4.810620 10.370562 -0.258985 0.943107 -0.208510 0 0
    0 0.000001 5.256778 10.322434 0.000001 0.951471 -0.307737 0 0
    0 -3.108672 3.438307 8.184661 -0.094656 0.335582 -0.937243 0 0
  phy
    0 -4.598157 3.932689 10.044746 -0.496089 0.865559 -0.068577 0 0
    0 -2.414273 4.810620 10.370562 -0.258985 0.943107 -0.208510 0 0
    0 -3.108672 3.438307 8.184661 -0.094656 0.335582 -0.937243 0 0
  phy
    0 0.000001 5.256778 10.322434 0.000001 0.951471 -0.307737 0 0
    0 -2.414273 4.810620 10.370562 -0.258985 0.943107 -0.208510 0 0
    0 -1.348216 5.638584 15.950027 -0.289386 0.875564 0.386838 0 0
  phy
    0 -2.414273 4.810620 10.370562 -0.258985 0.943107 -0.208510 0 0
    0 -4.598157 3.932689 10.044746 -0.496089 0.865559 -0.068577 0 0
    0 -1.348216 5.638584 15.950027 -0.289386 0.875564 0.386838 0 0
  phy
    0 -6.308914 -1.883989 9.530872 -0.726306 -0.598948 -0.337255 0 0
    0 -4.216751 -4.133751 15.878370 -0.391675 -0.832058 0.392772 0 0
    0 -6.803316 -1.406831 13.130176 -0.843515 -0.525663 0.110275 0 0
  phy
    0 -6.308914 -1.883989 9.530872 -0.726306 -0.598948 -0.337255 0 0
    0 -3.968204 -4.210223 11.638657 -0.091742 -0.955987 -0.278697 0 0
    0 -4.216751 -4.133751 15.878370 -0.391675 -0.832058 0.392772 0 0
  phy
    0 -6.308914 -1.883989 9.530872 -0.726306 -0.598948 -0.337255 0 0
    0 -6.682338 2.421106 9.295466 -0.861967 0.422925 -0.279549 0 0
    0 -4.641896 -0.669540 7.932753 -0.087408 -0.466671 -0.880101 0 0
  phy
    0 -6.682338 2.421106 9.295466 -0.861967 0.422925 -0.279549 0 0
    0 -6.308914 -1.883989 9.530872 -0.726306 -0.598948 -0.337255 0 0
    0 -7.141571 -0.121105 10.490121 -0.992715 -0.068157 -0.099356 0 0
  phy
    0 -6.308914 -1.883989 9.530872 -0.726306 -0.598948 -0.337255 0 0
    0 -6.803316 -1.406831 13.130176 -0.843515 -0.525663 0.110275 0 0
    0 -7.141571 -0.121105 10.490121 -0.992715 -0.068157 -0.099356 0 0
  phy
    0 -4.641896 -0.669540 7.932753 -0.087408 -0.466671 -0.880101 0 0
    0 -3.968204 -4.210223 11.638657 -0.091742 -0.955987 -0.278697 0 0
    0 -6.308914 -1.883989 9.530872 -0.726306 -0.598948 -0.337255 0 0
  phy
    0 0.000001 5.256778 10.322434 0.000001 0.951471 -0.307737 0 0
    0 2.414266 4.810621 10.370566 0.258987 0.943106 -0.208509 0 0
    0 3.108682 3.438307 8.184661 0.144450 0.477551 -0.866648 0 0
  phy
    0 -3.108672 3.438307 8.184661 -0.094656 0.335582 -0.937243 0 0
    0 0.000001 5.256778 10.322434 0.000001 0.951471 -0.307737 0 0
    0 3.108682 3.438307 8.184661 0.144450 0.477551 -0.866648 0 0
  phy
    0 0.000001 5.256778 10.322434 0.000001 0.951471 -0.307737 0 0
    0 -1.348216 5.638584 15.950027 -0.289386 0.875564 0.386838 0 0
    0 1.348212 5.638586 15.950055 0.166029 0.540026 0.825110 0 0
  phy
    0 2.414266 4.810621 10.370566 0.258987 0.943106 -0.208509 0 0
    0 0.000001 5.256778 10.322434 0.000001 0.951471 -0.307737 0 0
    0 1.348212 5.638586 15.950055 0.166029 0.540026 0.825110 0 0
  phy
    0 -4.641896 -0.669540 7.932753 -0.087408 -0.466671 -0.880101 0 0
    0 -6.682338 2.421106 9.295466 -0.861967 0.422925 -0.279549 0 0
    0 -3.108672 3.438307 8.184661 -0.094656 0.335582 -0.937243 0 0
  phy
    0 -6.682338 2.421106 9.295466 -0.861967 0.422925 -0.279549 0 0
    0 -4.598157 3.932689 10.044746 -0.496089 0.865559 -0.068577 0 0
    0 -3.108672 3.438307 8.184661 -0.094656 0.335582 -0.937243 0 0
  phy
    0 -6.682338 2.421106 9.295466 -0.861967 0.422925 -0.279549 0 0
    0 -6.826948 -0.658569 13.866179 -0.941997 0.249284 0.224718 0 0
    0 -4.888891 3.353044 16.050065 -0.744573 0.592074 0.308318 0 0
  phy
    0 -6.826948 -0.658569 13.866179 -0.941997 0.249284 0.224718 0 0
    0 -6.682338 2.421106 9.295466 -0.861967 0.422925 -0.279549 0 0
    0 -7.141571 -0.121105 10.490121 -0.992715 -0.068157 -0.099356 0 0
  phy
    0 -4.598157 3.932689 10.044746 -0.496089 0.865559 -0.068577 0 0
    0 -6.682338 2.421106 9.295466 -0.861967 0.422925 -0.279549 0 0
    0 -4.888891 3.353044 16.050065 -0.744573 0.592074 0.308318 0 0
  phy
    0 -3.968204 -4.210223 11.638657 -0.091742 -0.955987 -0.278697 0 0
    0 -4.641896 -0.669540 7.932753 -0.087408 -0.466671 -0.880101 0 0
    0 3.968197 -4.210227 11.638661 0.083477 -0.859777 -0.503800 0 0
  phy
    0 -4.641896 -0.669540 7.932753 -0.087408 -0.466671 -0.880101 0 0
    0 4.641893 -0.669540 7.932753 0.096863 -0.278459 -0.955551 0 0
    0 3.968197 -4.210227 11.638661 0.083477 -0.859777 -0.503800 0 0
  phy
    0 4.641893 -0.669540 7.932753 0.096863 -0.278459 -0.955551 0 0
    0 -4.641896 -0.669540 7.932753 -0.087408 -0.466671 -0.880101 0 0
    0 -3.108672 3.438307 8.184661 -0.094656 0.335582 -0.937243 0 0
  phy
    0 4.641893 -0.669540 7.932753 0.096863 -0.278459 -0.955551 0 0
    0 -3.108672 3.438307 8.184661 -0.094656 0.335582 -0.937243 0 0
    0 3.108682 3.438307 8.184661 0.144450 0.477551 -0.866648 0 0
  phy
    0 -1.348216 5.638584 15.950027 -0.289386 0.875564 0.386838 0 0
    0 -4.598157 3.932689 10.044746 -0.496089 0.865559 -0.068577 0 0
    0 -4.888891 3.353044 16.050065 -0.744573 0.592074 0.308318 0 0
  phy
    0 4.598157 3.932688 10.044743 0.496090 0.865559 -0.068577 0 0
    0 4.888887 3.353050 16.050037 0.744574 0.592072 0.308318 0 0
    0 6.682338 2.421114 9.295464 0.861969 0.422921 -0.279549 0 0
  phy
    0 4.888887 3.353050 16.050037 0.744574 0.592072 0.308318 0 0
    0 4.598157 3.932688 10.044743 0.496090 0.865559 -0.068577 0 0
    0 1.348212 5.638586 15.950055 0.166029 0.540026 0.825110 0 0
  phy
    0 4.598157 3.932688 10.044743 0.496090 0.865559 -0.068577 0 0
    0 2.414266 4.810621 10.370566 0.258987 0.943106 -0.208509 0 0
    0 1.348212 5.638586 15.950055 0.166029 0.540026 0.825110 0 0
  phy
    0 2.414266 4.810621 10.370566 0.258987 0.943106 -0.208509 0 0
    0 4.598157 3.932688 10.044743 0.496090 0.865559 -0.068577 0 0
    0 3.108682 3.438307 8.184661 0.144450 0.477551 -0.866648 0 0
  phy
    0 4.598157 3.932688 10.044743 0.496090 0.865559 -0.068577 0 0
    0 6.682338 2.421114 9.295464 0.861969 0.422921 -0.279549 0 0
    0 3.108682 3.438307 8.184661 0.144450 0.477551 -0.866648 0 0
  phy
    0 6.308915 -1.883986 9.530939 0.726304 -0.598951 -0.337253 0 0
    0 4.641893 -0.669540 7.932753 0.096863 -0.278459 -0.955551 0 0
    0 6.682338 2.421114 9.295464 0.861969 0.422921 -0.279549 0 0
  phy
    0 6.682338 2.421114 9.295464 0.861969 0.422921 -0.279549 0 0
    0 7.141572 -0.121107 10.490120 0.992715 -0.068160 -0.099357 0 0
    0 6.308915 -1.883986 9.530939 0.726304 -0.598951 -0.337253 0 0
  phy
    0 6.308915 -1.883986 9.530939 0.726304 -0.598951 -0.337253 0 0
    0 3.968197 -4.210227 11.638661 0.083477 -0.859777 -0.503800 0 0
    0 4.641893 -0.669540 7.932753 0.096863 -0.278459 -0.955551 0 0
  phy
    0 6.308915 -1.883986 9.530939 0.726304 -0.598951 -0.337253 0 0
    0 7.141572 -0.121107 10.490120 0.992715 -0.068160 -0.099357 0 0
    0 6.803317 -1.406831 13.130174 0.843513 -0.525666 0.110277 0 0
  phy
    0 6.803317 -1.406831 13.130174 0.843513 -0.525666 0.110277 0 0
    0 4.216728 -4.133750 15.878415 0.239564 -0.808504 0.537522 0 0
    0 6.308915 -1.883986 9.530939 0.726304 -0.598951 -0.337253 0 0
  phy
    0 6.308915 -1.883986 9.530939 0.726304 -0.598951 -0.337253 0 0
    0 4.216728 -4.133750 15.878415 0.239564 -0.808504 0.537522 0 0
    0 3.968197 -4.210227 11.638661 0.083477 -0.859777 -0.503800 0 0
  phy
    0 6.826948 -0.658567 13.866179 0.941997 0.249283 0.224720 0 0
    0 6.682338 2.421114 9.295464 0.861969 0.422921 -0.279549 0 0
    0 4.888887 3.353050 16.050037 0.744574 0.592072 0.308318 0 0
  phy
    0 6.826948 -0.658567 13.866179 0.941997 0.249283 0.224720 0 0
    0 7.141572 -0.121107 10.490120 0.992715 -0.068160 -0.099357 0 0
    0 6.682338 2.421114 9.295464 0.861969 0.422921 -0.279549 0 0
  phy
    0 4.888887 3.353050 16.050037 0.744574 0.592072 0.308318 0 0
    0 5.886180 -0.874013 16.356998 0.166290 -0.026436 0.985723 0 0
    0 6.826948 -0.658567 13.866179 0.941997 0.249283 0.224720 0 0
  phy
    0 6.826948 -0.658567 13.866179 0.941997 0.249283 0.224720 0 0
    0 5.886180 -0.874013 16.356998 0.166290 -0.026436 0.985723 0 0
    0 6.803317 -1.406831 13.130174 0.843513 -0.525666 0.110277 0 0
  phy
    0 6.803317 -1.406831 13.130174 0.843513 -0.525666 0.110277 0 0
    0 7.141572 -0.121107 10.490120 0.992715 -0.068160 -0.099357 0 0
    0 6.826948 -0.658567 13.866179 0.941997 0.249283 0.224720 0 0
  phy
    0 6.682338 2.421114 9.295464 0.861969 0.422921 -0.279549 0 0
    0 4.641893 -0.669540 7.932753 0.096863 -0.278459 -0.955551 0 0
    0 3.108682 3.438307 8.184661 0.144450 0.477551 -0.866648 0 0
  phy
    0 -4.888891 3.353044 16.050065 -0.744573 0.592074 0.308318 0 0
    0 -5.886194 -0.874012 16.356978 -0.125748 -0.036040 0.991407 0 0
    0 -1.348216 5.638584 15.950027 -0.289386 0.875564 0.386838 0 0
  phy
    0 -5.886194 -0.874012 16.356978 -0.125748 -0.036040 0.991407 0 0
    0 1.348212 5.638586 15.950055 0.166029 0.540026 0.825110 0 0
    0 -1.348216 5.638584 15.950027 -0.289386 0.875564 0.386838 0 0
  phy
    0 4.888887 3.353050 16.050037 0.744574 0.592072 0.308318 0 0
    0 1.348212 5.638586 15.950055 0.166029 0.540026 0.825110 0 0
    0 5.886180 -0.874013 16.356998 0.166290 -0.026436 0.985723 0 0
  phy
    0 -6.826948 -0.658569 13.866179 -0.941997 0.249284 0.224718 0 0
    0 -6.803316 -1.406831 13.130176 -0.843515 -0.525663 0.110275 0 0
    0 -5.886194 -0.874012 16.356978 -0.125748 -0.036040 0.991407 0 0
  phy
    0 -6.803316 -1.406831 13.130176 -0.843515 -0.525663 0.110275 0 0
    0 -6.826948 -0.658569 13.866179 -0.941997 0.249284 0.224718 0 0
    0 -7.141571 -0.121105 10.490121 -0.992715 -0.068157 -0.099356 0 0
  phy
    0 -4.888891 3.353044 16.050065 -0.744573 0.592074 0.308318 0 0
    0 -6.826948 -0.658569 13.866179 -0.941997 0.249284 0.224718 0 0
    0 -5.886194 -0.874012 16.356978 -0.125748 -0.036040 0.991407 0 0
  phy
    0 5.886180 -0.874013 16.356998 0.166290 -0.026436 0.985723 0 0
    0 4.216728 -4.133750 15.878415 0.239564 -0.808504 0.537522 0 0
    0 6.803317 -1.406831 13.130174 0.843513 -0.525666 0.110277 0 0
  phy
    0 -5.886194 -0.874012 16.356978 -0.125748 -0.036040 0.991407 0 0
    0 4.216728 -4.133750 15.878415 0.239564 -0.808504 0.537522 0 0
    0 5.886180 -0.874013 16.356998 0.166290 -0.026436 0.985723 0 0
  phy
    0 -5.886194 -0.874012 16.356978 -0.125748 -0.036040 0.991407 0 0
    0 -4.216751 -4.133751 15.878370 -0.391675 -0.832058 0.392772 0 0
    0 4.216728 -4.133750 15.878415 0.239564 -0.808504 0.537522 0 0
  phy
    0 4.216728 -4.133750 15.878415 0.239564 -0.808504 0.537522 0 0
    0 -3.968204 -4.210223 11.638657 -0.091742 -0.955987 -0.278697 0 0
    0 3.968197 -4.210227 11.638661 0.083477 -0.859777 -0.503800 0 0
  phy
    0 4.216728 -4.133750 15.878415 0.239564 -0.808504 0.537522 0 0
    0 -4.216751 -4.133751 15.878370 -0.391675 -0.832058 0.392772 0 0
    0 -3.968204 -4.210223 11.638657 -0.091742 -0.955987 -0.278697 0 0
  phy
    0 -6.803316 -1.406831 13.130176 -0.843515 -0.525663 0.110275 0 0
    0 -4.216751 -4.133751 15.878370 -0.391675 -0.832058 0.392772 0 0
    0 -5.886194 -0.874012 16.356978 -0.125748 -0.036040 0.991407 0 0
  phy
    0 5.886180 -0.874013 16.356998 0.166290 -0.026436 0.985723 0 0
    0 1.348212 5.638586 15.950055 0.166029 0.540026 0.825110 0 0
    0 -5.886194 -0.874012 16.356978 -0.125748 -0.036040 0.991407 0 0
  phy
    6 3.870688 2.160564 22.495048 0.566960 -0.740808 -0.360222 0 0
    6 2.251452 4.300215 22.390157 0.548513 -0.585025 -0.597393 0 0
    6 1.978744 1.580379 24.144004 0.880562 -0.398352 -0.256762 0 0
  phy
    6 1.978744 1.580379 24.144004 0.880562 -0.398352 -0.256762 0 0
    6 3.428791 -0.165503 23.643198 0.752730 -0.656142 0.053615 0 0
    6 3.870688 2.160564 22.495048 0.566960 -0.740808 -0.360222 0 0
  phy
    6 3.870688 2.160564 22.495048 0.566960 -0.740808 -0.360222 0 0
    6 3.428791 -0.165503 23.643198 0.752730 -0.656142 0.053615 0 0
    6 5.767770 0.222582 20.241456 0.220583 -0.956289 -0.191976 0 0
  phy
    6 5.767770 0.222582 20.241456 0.220583 -0.956289 -0.191976 0 0
    6 4.841003 2.645092 19.716660 0.244221 -0.791138 -0.560765 0 0
    6 3.870688 2.160564 22.495048 0.566960 -0.740808 -0.360222 0 0
  phy
    6 3.870688 2.160564 22.495048 0.566960 -0.740808 -0.360222 0 0
    6 4.841003 2.645092 19.716660 0.244221 -0.791138 -0.560765 0 0
    6 2.251452 4.300215 22.390157 0.548513 -0.585025 -0.597393 0 0
  phy
    6 -2.251449 4.300221 22.390157 0.548457 0.585079 -0.597393 0 0
    6 -1.978744 1.580380 24.143993 0.841767 0.413820 -0.346670 0 0
    6 0.000002 3.786533 23.637794 0.832893 0.000041 -0.553434 0 0
  phy
    6 -1.978744 1.580380 24.143993 0.841767 0.413820 -0.346670 0 0
    6 0.000002 1.243706 24.849951 0.990594 0.072827 -0.115846 0 0
    6 0.000002 3.786533 23.637794 0.832893 0.000041 -0.553434 0 0
  phy
    6 0.000002 3.786533 23.637794 0.832893 0.000041 -0.553434 0 0
    6 -1.178598 5.512208 21.691791 0.468244 0.204339 -0.859647 0 0
    6 -2.251449 4.300221 22.390157 0.548457 0.585079 -0.597393 0 0
  phy
    6 0.000002 3.786533 23.637794 0.832893 0.000041 -0.553434 0 0
    6 1.178596 5.512212 21.691787 0.468264 -0.204295 -0.859647 0 0
    6 -1.178598 5.512208 21.691791 0.468244 0.204339 -0.859647 0 0
  phy
    6 1.978744 1.580379 24.144004 0.880562 -0.398352 -0.256762 0 0
    6 2.251452 4.300215 22.390157 0.548513 -0.585025 -0.597393 0 0
    6 0.000002 3.786533 23.637794 0.832893 0.000041 -0.553434 0 0
  phy
    6 0.000002 3.786533 23.637794 0.832893 0.000041 -0.553434 0 0
    6 0.000002 1.243706 24.849951 0.990594 0.072827 -0.115846 0 0
    6 1.978744 1.580379 24.144004 0.880562 -0.398352 -0.256762 0 0
  phy
    6 0.000002 3.786533 23.637794 0.832893 0.000041 -0.553434 0 0
    6 2.251452 4.300215 22.390157 0.548513 -0.585025 -0.597393 0 0
    6 1.178596 5.512212 21.691787 0.468264 -0.204295 -0.859647 0 0
  phy
    6 3.428791 -0.165503 23.643198 0.752730 -0.656142 0.053615 0 0
    6 1.978744 1.580379 24.144004 0.880562 -0.398352 -0.256762 0 0
    6 0.735640 -1.906653 24.614664 0.888092 -0.232523 0.396517 0 0
  phy
    6 1.978744 1.580379 24.144004 0.880562 -0.398352 -0.256762 0 0
    6 0.000002 1.243706 24.849951 0.990594 0.072827 -0.115846 0 0
    6 0.735640 -1.906653 24.614664 0.888092 -0.232523 0.396517 0 0
  phy
    6 3.428791 -0.165503 23.643198 0.752730 -0.656142 0.053615 0 0
    6 5.350364 -0.785741 21.004309 0.289984 -0.853753 0.432453 0 0
    6 5.767770 0.222582 20.241456 0.220583 -0.956289 -0.191976 0 0
  phy
    6 5.350364 -0.785741 21.004309 0.289984 -0.853753 0.432453 0 0
    6 5.863904 -1.266982 16.341347 -0.207040 -0.967525 0.145014 0 0
    6 5.767770 0.222582 20.241456 0.220583 -0.956289 -0.191976 0 0
  phy
    6 5.767770 0.222582 20.241456 0.220583 -0.956289 -0.191976 0 0
    6 5.003947 3.221922 16.061041 -0.648281 -0.645090 -0.404464 0 0
    6 4.841003 2.645092 19.716660 0.244221 -0.791138 -0.560765 0 0
  phy
    6 5.767770 0.222582 20.241456 0.220583 -0.956289 -0.191976 0 0
    6 5.863904 -1.266982 16.341347 -0.207040 -0.967525 0.145014 0 0
    6 5.003947 3.221922 16.061041 -0.648281 -0.645090 -0.404464 0 0
  phy
    6 1.178596 5.512212 21.691787 0.468264 -0.204295 -0.859647 0 0
    6 2.251452 4.300215 22.390157 0.548513 -0.585025 -0.597393 0 0
    6 2.215071 5.525614 19.638472 0.093020 -0.572324 -0.814734 0 0
  phy
    6 -0.000001 6.022761 19.660014 0.030723 0.000001 -0.999528 0 0
    6 1.178596 5.512212 21.691787 0.468264 -0.204295 -0.859647 0 0
    6 2.215071 5.525614 19.638472 0.093020 -0.572324 -0.814734 0 0
  phy
    6 1.178596 5.512212 21.691787 0.468264 -0.204295 -0.859647 0 0
    6 -0.000001 6.022761 19.660014 0.030723 0.000001 -0.999528 0 0
    6 -1.178598 5.512208 21.691791 0.468244 0.204339 -0.859647 0 0
  phy
    6 -4.841001 2.645095 19.716658 0.244144 0.791161 -0.560766 0 0
    6 -2.251449 4.300221 22.390157 0.548457 0.585079 -0.597393 0 0
    6 -2.215067 5.525622 19.638453 0.092964 0.572333 -0.814735 0 0
  phy
    6 -2.251449 4.300221 22.390157 0.548457 0.585079 -0.597393 0 0
    6 -4.841001 2.645095 19.716658 0.244144 0.791161 -0.560766 0 0
    6 -3.870688 2.160567 22.495047 0.566889 0.740863 -0.360222 0 0
  phy
    6 -4.841001 2.645095 19.716658 0.244144 0.791161 -0.560766 0 0
    6 -5.003949 3.221921 16.061038 -0.648344 0.645026 -0.404464 0 0
    6 -5.767753 0.222616 20.241455 0.220491 0.956310 -0.191976 0 0
  phy
    6 -3.870688 2.160567 22.495047 0.566889 0.740863 -0.360222 0 0
    6 -4.841001 2.645095 19.716658 0.244144 0.791161 -0.560766 0 0
    6 -5.767753 0.222616 20.241455 0.220491 0.956310 -0.191976 0 0
  phy
    6 -4.841001 2.645095 19.716658 0.244144 0.791161 -0.560766 0 0
    6 -2.215067 5.525622 19.638453 0.092964 0.572333 -0.814735 0 0
    6 -5.003949 3.221921 16.061038 -0.648344 0.645026 -0.404464 0 0
  phy
    6 -2.251449 4.300221 22.390157 0.548457 0.585079 -0.597393 0 0
    6 -3.870688 2.160567 22.495047 0.566889 0.740863 -0.360222 0 0
    6 -1.978744 1.580380 24.143993 0.841767 0.413820 -0.346670 0 0
  phy
    6 -2.215067 5.525622 19.638453 0.092964 0.572333 -0.814735 0 0
    6 -2.251449 4.300221 22.390157 0.548457 0.585079 -0.597393 0 0
    6 -1.178598 5.512208 21.691791 0.468244 0.204339 -0.859647 0 0
  phy
    6 -1.978744 1.580380 24.143993 0.841767 0.413820 -0.346670 0 0
    6 -3.428788 -0.165504 23.643199 0.786454 0.615833 0.047320 0 0
    6 0.000002 1.243706 24.849951 0.990594 0.072827 -0.115846 0 0
  phy
    6 -3.428788 -0.165504 23.643199 0.786454 0.615833 0.047320 0 0
    6 -0.735635 -1.906658 24.614664 0.900658 0.303064 0.311396 0 0
    6 0.000002 1.243706 24.849951 0.990594 0.072827 -0.115846 0 0
  phy
    6 -1.978744 1.580380 24.143993 0.841767 0.413820 -0.346670 0 0
    6 -3.870688 2.160567 22.495047 0.566889 0.740863 -0.360222 0 0
    6 -3.428788 -0.165504 23.643199 0.786454 0.615833 0.047320 0 0
  phy
    6 -4.254229 -4.373114 16.222804 0.063133 0.448515 0.891543 0 0
    6 -5.350362 -0.785738 21.004319 0.289902 0.853783 0.432447 0 0
    6 -5.863906 -1.266980 16.341347 -0.207132 0.967506 0.145011 0 0
  phy
    6 -5.863906 -1.266980 16.341347 -0.207132 0.967506 0.145011 0 0
    6 -5.350362 -0.785738 21.004319 0.289902 0.853783 0.432447 0 0
    6 -5.767753 0.222616 20.241455 0.220491 0.956310 -0.191976 0 0
  phy
    6 -3.259367 -2.895269 22.735838 0.465658 0.707814 0.531190 0 0
    6 -5.350362 -0.785738 21.004319 0.289902 0.853783 0.432447 0 0
    6 -4.254229 -4.373114 16.222804 0.063133 0.448515 0.891543 0 0
  phy
    6 -3.428788 -0.165504 23.643199 0.786454 0.615833 0.047320 0 0
    6 -5.350362 -0.785738 21.004319 0.289902 0.853783 0.432447 0 0
    6 -3.259367 -2.895269 22.735838 0.465658 0.707814 0.531190 0 0
  phy
    6 -5.350362 -0.785738 21.004319 0.289902 0.853783 0.432447 0 0
    6 -3.428788 -0.165504 23.643199 0.786454 0.615833 0.047320 0 0
    6 -5.767753 0.222616 20.241455 0.220491 0.956310 -0.191976 0 0
  phy
    6 -0.735635 -1.906658 24.614664 0.900658 0.303064 0.311396 0 0
    6 -1.929585 -4.580458 22.224352 0.188307 0.125186 0.974099 0 0
    6 0.735640 -1.906653 24.614664 0.888092 -0.232523 0.396517 0 0
  phy
    6 -1.929585 -4.580458 22.224352 0.188307 0.125186 0.974099 0 0
    6 1.929586 -4.580456 22.224351 0.355606 -0.253920 0.899483 0 0
    6 0.735640 -1.906653 24.614664 0.888092 -0.232523 0.396517 0 0
  phy
    6 0.735640 -1.906653 24.614664 0.888092 -0.232523 0.396517 0 0
    6 1.929586 -4.580456 22.224351 0.355606 -0.253920 0.899483 0 0
    6 3.259359 -2.895271 22.735835 0.465725 -0.707769 0.531190 0 0
  phy
    6 0.735640 -1.906653 24.614664 0.888092 -0.232523 0.396517 0 0
    6 0.000002 1.243706 24.849951 0.990594 0.072827 -0.115846 0 0
    6 -0.735635 -1.906658 24.614664 0.900658 0.303064 0.311396 0 0
  phy
    6 3.259359 -2.895271 22.735835 0.465725 -0.707769 0.531190 0 0
    6 3.428791 -0.165503 23.643198 0.752730 -0.656142 0.053615 0 0
    6 0.735640 -1.906653 24.614664 0.888092 -0.232523 0.396517 0 0
  phy
    6 4.841003 2.645092 19.716660 0.244221 -0.791138 -0.560765 0 0
    6 2.215071 5.525614 19.638472 0.093020 -0.572324 -0.814734 0 0
    6 2.251452 4.300215 22.390157 0.548513 -0.585025 -0.597393 0 0
  phy
    6 4.841003 2.645092 19.716660 0.244221 -0.791138 -0.560765 0 0
    6 5.003947 3.221922 16.061041 -0.648281 -0.645090 -0.404464 0 0
    6 2.215071 5.525614 19.638472 0.093020 -0.572324 -0.814734 0 0
  phy
    6 -2.215067 5.525622 19.638453 0.092964 0.572333 -0.814735 0 0
    6 -0.000001 6.022761 19.660014 0.030723 0.000001 -0.999528 0 0
    6 -1.260949 5.587066 15.976699 -0.176993 0.371364 -0.911462 0 0
  phy
    6 -0.000001 6.022761 19.660014 0.030723 0.000001 -0.999528 0 0
    6 0.000000 5.626823 15.809111 -0.995694 -0.000048 -0.092702 0 0
    6 -1.260949 5.587066 15.976699 -0.176993 0.371364 -0.911462 0 0
  phy
    6 1.260949 5.587065 15.976701 -0.176955 -0.371382 -0.911462 0 0
    6 -0.000001 6.022761 19.660014 0.030723 0.000001 -0.999528 0 0
    6 2.215071 5.525614 19.638472 0.093020 -0.572324 -0.814734 0 0
  phy
    6 -0.000001 6.022761 19.660014 0.030723 0.000001 -0.999528 0 0
    6 1.260949 5.587065 15.976701 -0.176955 -0.371382 -0.911462 0 0
    6 0.000000 5.626823 15.809111 -0.995694 -0.000048 -0.092702 0 0
  phy
    6 -0.000001 6.022761 19.660014 0.030723 0.000001 -0.999528 0 0
    6 -2.215067 5.525622 19.638453 0.092964 0.572333 -0.814735 0 0
    6 -1.178598 5.512208 21.691791 0.468244 0.204339 -0.859647 0 0
  phy
    6 1.260949 5.587065 15.976701 -0.176955 -0.371382 -0.911462 0 0
    6 2.215071 5.525614 19.638472 0.093020 -0.572324 -0.814734 0 0
    6 5.003947 3.221922 16.061041 -0.648281 -0.645090 -0.404464 0 0
  phy
    6 0.000000 5.626823 15.809111 -0.995694 -0.000048 -0.092702 0 0
    6 1.260949 5.587065 15.976701 -0.176955 -0.371382 -0.911462 0 0
    6 5.003947 3.221922 16.061041 -0.648281 -0.645090 -0.404464 0 0
  phy
    6 -1.929585 -4.580458 22.224352 0.188307 0.125186 0.974099 0 0
    6 4.254215 -4.373114 16.222810 0.028037 -0.356887 0.933727 0 0
    6 1.929586 -4.580456 22.224351 0.355606 -0.253920 0.899483 0 0
  phy
    6 -1.929585 -4.580458 22.224352 0.188307 0.125186 0.974099 0 0
    6 -4.254229 -4.373114 16.222804 0.063133 0.448515 0.891543 0 0
    6 4.254215 -4.373114 16.222810 0.028037 -0.356887 0.933727 0 0
  phy
    6 -1.929585 -4.580458 22.224352 0.188307 0.125186 0.974099 0 0
    6 -3.259367 -2.895269 22.735838 0.465658 0.707814 0.531190 0 0
    6 -4.254229 -4.373114 16.222804 0.063133 0.448515 0.891543 0 0
  phy
    6 -0.735635 -1.906658 24.614664 0.900658 0.303064 0.311396 0 0
    6 -3.259367 -2.895269 22.735838 0.465658 0.707814 0.531190 0 0
    6 -1.929585 -4.580458 22.224352 0.188307 0.125186 0.974099 0 0
  phy
    6 -5.003949 3.221921 16.061038 -0.648344 0.645026 -0.404464 0 0
    6 -2.215067 5.525622 19.638453 0.092964 0.572333 -0.814735 0 0
    6 -1.260949 5.587066 15.976699 -0.176993 0.371364 -0.911462 0 0
  phy
    6 -3.428788 -0.165504 23.643199 0.786454 0.615833 0.047320 0 0
    6 -3.259367 -2.895269 22.735838 0.465658 0.707814 0.531190 0 0
    6 -0.735635 -1.906658 24.614664 0.900658 0.303064 0.311396 0 0
  phy
    6 -3.428788 -0.165504 23.643199 0.786454 0.615833 0.047320 0 0
    6 -3.870688 2.160567 22.495047 0.566889 0.740863 -0.360222 0 0
    6 -5.767753 0.222616 20.241455 0.220491 0.956310 -0.191976 0 0
  phy
    6 3.259359 -2.895271 22.735835 0.465725 -0.707769 0.531190 0 0
    6 4.254215 -4.373114 16.222810 0.028037 -0.356887 0.933727 0 0
    6 5.350364 -0.785741 21.004309 0.289984 -0.853753 0.432453 0 0
  phy
    6 3.259359 -2.895271 22.735835 0.465725 -0.707769 0.531190 0 0
    6 1.929586 -4.580456 22.224351 0.355606 -0.253920 0.899483 0 0
    6 4.254215 -4.373114 16.222810 0.028037 -0.356887 0.933727 0 0
  phy
    6 3.259359 -2.895271 22.735835 0.465725 -0.707769 0.531190 0 0
    6 5.350364 -0.785741 21.004309 0.289984 -0.853753 0.432453 0 0
    6 3.428791 -0.165503 23.643198 0.752730 -0.656142 0.053615 0 0
  phy
    6 0.000000 5.626823 15.809111 -0.995694 -0.000048 -0.092702 0 0
    6 -5.003949 3.221921 16.061038 -0.648344 0.645026 -0.404464 0 0
    6 -1.260949 5.587066 15.976699 -0.176993 0.371364 -0.911462 0 0
  phy
    6 -5.003949 3.221921 16.061038 -0.648344 0.645026 -0.404464 0 0
    6 0.000000 5.626823 15.809111 -0.995694 -0.000048 -0.092702 0 0
    6 -4.109466 -4.199256 15.804179 -0.998056 0.052333 0.033850 0 0
  phy
    6 -5.863906 -1.266980 16.341347 -0.207132 0.967506 0.145011 0 0
    6 -5.003949 3.221921 16.061038 -0.648344 0.645026 -0.404464 0 0
    6 -4.109466 -4.199256 15.804179 -0.998056 0.052333 0.033850 0 0
  phy
    6 -5.003949 3.221921 16.061038 -0.648344 0.645026 -0.404464 0 0
    6 -5.863906 -1.266980 16.341347 -0.207132 0.967506 0.145011 0 0
    6 -5.767753 0.222616 20.241455 0.220491 0.956310 -0.191976 0 0
  phy
    6 -4.254229 -4.373114 16.222804 0.063133 0.448515 0.891543 0 0
    6 -4.109466 -4.199256 15.804179 -0.998056 0.052333 0.033850 0 0
    6 4.254215 -4.373114 16.222810 0.028037 -0.356887 0.933727 0 0
  phy
    6 -4.109466 -4.199256 15.804179 -0.998056 0.052333 0.033850 0 0
    6 4.109463 -4.199255 15.804178 -0.998562 -0.053062 0.007615 0 0
    6 4.254215 -4.373114 16.222810 0.028037 -0.356887 0.933727 0 0
  phy
    6 4.109463 -4.199255 15.804178 -0.998562 -0.053062 0.007615 0 0
    6 0.000000 5.626823 15.809111 -0.995694 -0.000048 -0.092702 0 0
    6 5.003947 3.221922 16.061041 -0.648281 -0.645090 -0.404464 0 0
  phy
    6 0.000000 5.626823 15.809111 -0.995694 -0.000048 -0.092702 0 0
    6 4.109463 -4.199255 15.804178 -0.998562 -0.053062 0.007615 0 0
    6 -4.109466 -4.199256 15.804179 -0.998056 0.052333 0.033850 0 0
  phy
    6 4.109463 -4.199255 15.804178 -0.998562 -0.053062 0.007615 0 0
    6 5.863904 -1.266982 16.341347 -0.207040 -0.967525 0.145014 0 0
    6 4.254215 -4.373114 16.222810 0.028037 -0.356887 0.933727 0 0
  phy
    6 4.109463 -4.199255 15.804178 -0.998562 -0.053062 0.007615 0 0
    6 5.003947 3.221922 16.061041 -0.648281 -0.645090 -0.404464 0 0
    6 5.863904 -1.266982 16.341347 -0.207040 -0.967525 0.145014 0 0
  phy
    6 -4.254229 -4.373114 16.222804 0.063133 0.448515 0.891543 0 0
    6 -5.863906 -1.266980 16.341347 -0.207132 0.967506 0.145011 0 0
    6 -4.109466 -4.199256 15.804179 -0.998056 0.052333 0.033850 0 0
  phy
    6 4.254215 -4.373114 16.222810 0.028037 -0.356887 0.933727 0 0
    6 5.863904 -1.266982 16.341347 -0.207040 -0.967525 0.145014 0 0
    6 5.350364 -0.785741 21.004309 0.289984 -0.853753 0.432453 0 0
  phy
    15 13.078741 -0.343331 18.938020 0.036705 0.706650 0.706610 0 0
    15 13.314030 -1.974857 18.172388 0.132382 0.964966 -0.226529 0 0
    15 5.403111 -1.933730 17.887786 -0.088171 0.918429 0.385634 0 0
  phy
    15 13.314030 -1.974857 18.172388 0.132382 0.964966 -0.226529 0 0
    15 13.078741 -0.343331 18.938020 0.036705 0.706650 0.706610 0 0
    15 13.714763 -1.147170 18.879374 0.988409 -0.009961 0.151487 0 0
  phy
    15 5.770428 0.271779 19.919732 -0.236596 0.263389 0.935227 0 0
    15 13.078741 -0.343331 18.938020 0.036705 0.706650 0.706610 0 0
    15 5.403111 -1.933730 17.887786 -0.088171 0.918429 0.385634 0 0
  phy
    15 5.770428 0.271779 19.919732 -0.236596 0.263389 0.935227 0 0
    15 13.107440 -0.081619 20.237398 0.152238 -0.575778 0.803308 0 0
    15 13.078741 -0.343331 18.938020 0.036705 0.706650 0.706610 0 0
  phy
    15 13.107440 -0.081619 20.237398 0.152238 -0.575778 0.803308 0 0
    15 13.714763 -1.147170 18.879374 0.988409 -0.009961 0.151487 0 0
    15 13.078741 -0.343331 18.938020 0.036705 0.706650 0.706610 0 0
  phy
    15 3.808394 -2.092352 20.637936 -0.807176 -0.455507 0.375472 0 0
    15 5.770428 0.271779 19.919732 -0.236596 0.263389 0.935227 0 0
    15 2.980754 -2.990109 18.748649 -0.701758 0.413367 0.580227 0 0
  phy
    15 5.770428 0.271779 19.919732 -0.236596 0.263389 0.935227 0 0
    15 3.808394 -2.092352 20.637936 -0.807176 -0.455507 0.375472 0 0
    15 5.207803 -0.938971 21.172324 -0.029557 -0.996255 0.081249 0 0
  phy
    15 5.770428 0.271779 19.919732 -0.236596 0.263389 0.935227 0 0
    15 5.403111 -1.933730 17.887786 -0.088171 0.918429 0.385634 0 0
    15 2.980754 -2.990109 18.748649 -0.701758 0.413367 0.580227 0 0
  phy
    15 5.770428 0.271779 19.919732 -0.236596 0.263389 0.935227 0 0
    15 5.207803 -0.938971 21.172324 -0.029557 -0.996255 0.081249 0 0
    15 13.107440 -0.081619 20.237398 0.152238 -0.575778 0.803308 0 0
  phy
    15 13.158313 -1.460645 20.974305 0.342212 -0.928495 0.144180 0 0
    15 13.106815 -2.470659 20.631083 0.071844 -0.839569 -0.538482 0 0
    15 13.526539 -2.728712 19.314784 0.285678 0.081047 -0.954892 0 0
  phy
    15 13.526539 -2.728712 19.314784 0.285678 0.081047 -0.954892 0 0
    15 13.714763 -1.147170 18.879374 0.988409 -0.009961 0.151487 0 0
    15 13.158313 -1.460645 20.974305 0.342212 -0.928495 0.144180 0 0
  phy
    15 13.158313 -1.460645 20.974305 0.342212 -0.928495 0.144180 0 0
    15 13.714763 -1.147170 18.879374 0.988409 -0.009961 0.151487 0 0
    15 13.107440 -0.081619 20.237398 0.152238 -0.575778 0.803308 0 0
  phy
    15 13.107440 -0.081619 20.237398 0.152238 -0.575778 0.803308 0 0
    15 5.207803 -0.938971 21.172324 -0.029557 -0.996255 0.081249 0 0
    15 13.158313 -1.460645 20.974305 0.342212 -0.928495 0.144180 0 0
  phy
    15 13.158313 -1.460645 20.974305 0.342212 -0.928495 0.144180 0 0
    15 5.207803 -0.938971 21.172324 -0.029557 -0.996255 0.081249 0 0
    15 13.106815 -2.470659 20.631083 0.071844 -0.839569 -0.538482 0 0
  phy
    15 3.808394 -2.092352 20.637936 -0.807176 -0.455507 0.375472 0 0
    15 2.980754 -2.990109 18.748649 -0.701758 0.413367 0.580227 0 0
    15 2.852481 -3.802120 19.017750 -0.881223 -0.422243 -0.212502 0 0
  phy
    15 3.889646 -4.025846 20.124510 0.021156 -0.646064 -0.762990 0 0
    15 5.207803 -0.938971 21.172324 -0.029557 -0.996255 0.081249 0 0
    15 3.808394 -2.092352 20.637936 -0.807176 -0.455507 0.375472 0 0
  phy
    15 3.889646 -4.025846 20.124510 0.021156 -0.646064 -0.762990 0 0
    15 3.808394 -2.092352 20.637936 -0.807176 -0.455507 0.375472 0 0
    15 2.852481 -3.802120 19.017750 -0.881223 -0.422243 -0.212502 0 0
  phy
    15 3.211920 -4.191023 18.339318 0.062605 0.643362 -0.762998 0 0
    15 13.314030 -1.974857 18.172388 0.132382 0.964966 -0.226529 0 0
    15 13.526539 -2.728712 19.314784 0.285678 0.081047 -0.954892 0 0
  phy
    15 13.314030 -1.974857 18.172388 0.132382 0.964966 -0.226529 0 0
    15 3.211920 -4.191023 18.339318 0.062605 0.643362 -0.762998 0 0
    15 5.403111 -1.933730 17.887786 -0.088171 0.918429 0.385634 0 0
  phy
    15 13.314030 -1.974857 18.172388 0.132382 0.964966 -0.226529 0 0
    15 13.714763 -1.147170 18.879374 0.988409 -0.009961 0.151487 0 0
    15 13.526539 -2.728712 19.314784 0.285678 0.081047 -0.954892 0 0
  phy
    15 3.889646 -4.025846 20.124510 0.021156 -0.646064 -0.762990 0 0
    15 3.211920 -4.191023 18.339318 0.062605 0.643362 -0.762998 0 0
    15 13.526539 -2.728712 19.314784 0.285678 0.081047 -0.954892 0 0
  phy
    15 3.211920 -4.191023 18.339318 0.062605 0.643362 -0.762998 0 0
    15 3.889646 -4.025846 20.124510 0.021156 -0.646064 -0.762990 0 0
    15 2.852481 -3.802120 19.017750 -0.881223 -0.422243 -0.212502 0 0
  phy
    15 3.211920 -4.191023 18.339318 0.062605 0.643362 -0.762998 0 0
    15 2.980754 -2.990109 18.748649 -0.701758 0.413367 0.580227 0 0
    15 5.403111 -1.933730 17.887786 -0.088171 0.918429 0.385634 0 0
  phy
    15 2.980754 -2.990109 18.748649 -0.701758 0.413367 0.580227 0 0
    15 3.211920 -4.191023 18.339318 0.062605 0.643362 -0.762998 0 0
    15 2.852481 -3.802120 19.017750 -0.881223 -0.422243 -0.212502 0 0
  phy
    15 3.889646 -4.025846 20.124510 0.021156 -0.646064 -0.762990 0 0
    15 13.526539 -2.728712 19.314784 0.285678 0.081047 -0.954892 0 0
    15 13.106815 -2.470659 20.631083 0.071844 -0.839569 -0.538482 0 0
  phy
    15 13.106815 -2.470659 20.631083 0.071844 -0.839569 -0.538482 0 0
    15 5.207803 -0.938971 21.172324 -0.029557 -0.996255 0.081249 0 0
    15 3.889646 -4.025846 20.124510 0.021156 -0.646064 -0.762990 0 0
  phy
    16 16.262928 -2.701949 20.009122 -0.005227 -0.376631 -0.926349 0 0
    16 15.714261 -2.104286 20.935836 -0.008935 -0.792033 -0.610413 0 0
    16 13.458100 -2.673060 19.509420 -0.084629 0.194746 -0.977196 0 0
  phy
    16 13.458100 -2.673060 19.509420 -0.084629 0.194746 -0.977196 0 0
    16 15.714261 -2.104286 20.935836 -0.008935 -0.792033 -0.610413 0 0
    16 13.215067 -1.945997 20.401497 -0.668387 -0.733480 0.123555 0 0
  phy
    16 15.876249 -1.302309 20.930178 -0.080157 -0.678314 0.730387 0 0
    16 13.215067 -1.945997 20.401497 -0.668387 -0.733480 0.123555 0 0
    16 15.714261 -2.104286 20.935836 -0.008935 -0.792033 -0.610413 0 0
  phy
    16 15.714261 -2.104286 20.935836 -0.008935 -0.792033 -0.610413 0 0
    16 19.542243 -1.556603 20.730612 0.266454 -0.799507 0.538322 0 0
    16 15.876249 -1.302309 20.930178 -0.080157 -0.678314 0.730387 0 0
  phy
    16 15.714261 -2.104286 20.935836 -0.008935 -0.792033 -0.610413 0 0
    16 16.262928 -2.701949 20.009122 -0.005227 -0.376631 -0.926349 0 0
    16 22.354422 -2.596323 19.820801 0.123704 -0.291840 -0.948434 0 0
  phy
    16 15.714261 -2.104286 20.935836 -0.008935 -0.792033 -0.610413 0 0
    16 22.354422 -2.596323 19.820801 0.123704 -0.291840 -0.948434 0 0
    16 19.542243 -1.556603 20.730612 0.266454 -0.799507 0.538322 0 0
  phy
    16 13.530886 -0.731785 19.233725 -0.467477 -0.267971 0.842411 0 0
    16 15.074942 -0.454031 18.950155 0.003278 0.611738 0.791053 0 0
    16 13.463462 -1.909244 18.622813 -0.226547 0.964452 -0.136051 0 0
  phy
    16 15.074942 -0.454031 18.950155 0.003278 0.611738 0.791053 0 0
    16 21.545158 -2.327642 18.295178 0.075643 0.959630 -0.270904 0 0
    16 13.463462 -1.909244 18.622813 -0.226547 0.964452 -0.136051 0 0
  phy
    16 15.074942 -0.454031 18.950155 0.003278 0.611738 0.791053 0 0
    16 13.530886 -0.731785 19.233725 -0.467477 -0.267971 0.842411 0 0
    16 15.876249 -1.302309 20.930178 -0.080157 -0.678314 0.730387 0 0
  phy
    16 15.876249 -1.302309 20.930178 -0.080157 -0.678314 0.730387 0 0
    16 17.797818 -0.646849 19.654096 0.184667 -0.027134 0.982427 0 0
    16 15.074942 -0.454031 18.950155 0.003278 0.611738 0.791053 0 0
  phy
    16 15.074942 -0.454031 18.950155 0.003278 0.611738 0.791053 0 0
    16 17.797818 -0.646849 19.654096 0.184667 -0.027134 0.982427 0 0
    16 21.545158 -2.327642 18.295178 0.075643 0.959630 -0.270904 0 0
  phy
    16 13.530886 -0.731785 19.233725 -0.467477 -0.267971 0.842411 0 0
    16 13.215067 -1.945997 20.401497 -0.668387 -0.733480 0.123555 0 0
    16 15.876249 -1.302309 20.930178 -0.080157 -0.678314 0.730387 0 0
  phy
    16 19.542243 -1.556603 20.730612 0.266454 -0.799507 0.538322 0 0
    16 17.797818 -0.646849 19.654096 0.184667 -0.027134 0.982427 0 0
    16 15.876249 -1.302309 20.930178 -0.080157 -0.678314 0.730387 0 0
  phy
    16 16.262928 -2.701949 20.009122 -0.005227 -0.376631 -0.926349 0 0
    16 13.458100 -2.673060 19.509420 -0.084629 0.194746 -0.977196 0 0
    16 22.354422 -2.596323 19.820801 0.123704 -0.291840 -0.948434 0 0
  phy
    16 22.195653 -2.076214 19.027714 0.392180 -0.032334 0.919320 0 0
    16 17.797818 -0.646849 19.654096 0.184667 -0.027134 0.982427 0 0
    16 19.542243 -1.556603 20.730612 0.266454 -0.799507 0.538322 0 0
  phy
    16 19.542243 -1.556603 20.730612 0.266454 -0.799507 0.538322 0 0
    16 22.354422 -2.596323 19.820801 0.123704 -0.291840 -0.948434 0 0
    16 22.195653 -2.076214 19.027714 0.392180 -0.032334 0.919320 0 0
  phy
    16 21.545158 -2.327642 18.295178 0.075643 0.959630 -0.270904 0 0
    16 17.797818 -0.646849 19.654096 0.184667 -0.027134 0.982427 0 0
    16 22.195653 -2.076214 19.027714 0.392180 -0.032334 0.919320 0 0
  phy
    16 22.195653 -2.076214 19.027714 0.392180 -0.032334 0.919320 0 0
    16 22.354422 -2.596323 19.820801 0.123704 -0.291840 -0.948434 0 0
    16 21.545158 -2.327642 18.295178 0.075643 0.959630 -0.270904 0 0
  phy
    16 13.530886 -0.731785 19.233725 -0.467477 -0.267971 0.842411 0 0
    16 13.463462 -1.909244 18.622813 -0.226547 0.964452 -0.136051 0 0
    16 13.215067 -1.945997 20.401497 -0.668387 -0.733480 0.123555 0 0
  phy
    16 21.545158 -2.327642 18.295178 0.075643 0.959630 -0.270904 0 0
    16 13.458100 -2.673060 19.509420 -0.084629 0.194746 -0.977196 0 0
    16 13.463462 -1.909244 18.622813 -0.226547 0.964452 -0.136051 0 0
  phy
    16 13.458100 -2.673060 19.509420 -0.084629 0.194746 -0.977196 0 0
    16 21.545158 -2.327642 18.295178 0.075643 0.959630 -0.270904 0 0
    16 22.354422 -2.596323 19.820801 0.123704 -0.291840 -0.948434 0 0
  phy
    16 13.463462 -1.909244 18.622813 -0.226547 0.964452 -0.136051 0 0
    16 13.458100 -2.673060 19.509420 -0.084629 0.194746 -0.977196 0 0
    16 13.215067 -1.945997 20.401497 -0.668387 -0.733480 0.123555 0 0
  phy
    9 -13.078738 -0.343326 18.938028 0.036704 -0.707845 0.705413 0 0
    9 -5.403114 -1.933726 17.887789 -0.088172 -0.919081 0.384079 0 0
    9 -13.314032 -1.974849 18.172392 0.132382 -0.964581 -0.228162 0 0
  phy
    9 -13.314032 -1.974849 18.172392 0.132382 -0.964581 -0.228162 0 0
    9 -13.714767 -1.147166 18.879380 0.988409 0.009703 0.151506 0 0
    9 -13.078738 -0.343326 18.938028 0.036704 -0.707845 0.705413 0 0
  phy
    9 -5.770429 0.271779 19.919742 -0.236596 -0.264971 0.934779 0 0
    9 -5.403114 -1.933726 17.887789 -0.088172 -0.919081 0.384079 0 0
    9 -13.078738 -0.343326 18.938028 0.036704 -0.707845 0.705413 0 0
  phy
    9 -13.078738 -0.343326 18.938028 0.036704 -0.707845 0.705413 0 0
    9 -13.107440 -0.081617 20.237407 0.152239 0.574422 0.804277 0 0
    9 -5.770429 0.271779 19.919742 -0.236596 -0.264971 0.934779 0 0
  phy
    9 -13.078738 -0.343326 18.938028 0.036704 -0.707845 0.705413 0 0
    9 -13.714767 -1.147166 18.879380 0.988409 0.009703 0.151506 0 0
    9 -13.107440 -0.081617 20.237407 0.152239 0.574422 0.804277 0 0
  phy
    9 -5.770429 0.271779 19.919742 -0.236596 -0.264971 0.934779 0 0
    9 -3.808397 -2.092354 20.637939 -0.807177 0.454871 0.376242 0 0
    9 -2.980758 -2.990107 18.748649 -0.701758 -0.414348 0.579526 0 0
  phy
    9 -3.808397 -2.092354 20.637939 -0.807177 0.454871 0.376242 0 0
    9 -5.770429 0.271779 19.919742 -0.236596 -0.264971 0.934779 0 0
    9 -5.207804 -0.938975 21.172330 -0.029556 0.996117 0.082935 0 0
  phy
    9 -2.980758 -2.990107 18.748649 -0.701758 -0.414348 0.579526 0 0
    9 -5.403114 -1.933726 17.887789 -0.088172 -0.919081 0.384079 0 0
    9 -5.770429 0.271779 19.919742 -0.236596 -0.264971 0.934779 0 0
  phy
    9 -13.107440 -0.081617 20.237407 0.152239 0.574422 0.804277 0 0
    9 -5.207804 -0.938975 21.172330 -0.029556 0.996117 0.082935 0 0
    9 -5.770429 0.271779 19.919742 -0.236596 -0.264971 0.934779 0 0
  phy
    9 -13.526542 -2.728708 19.314786 0.285678 -0.079431 -0.955028 0 0
    9 -13.106816 -2.470658 20.631086 0.071844 0.840478 -0.537061 0 0
    9 -13.158317 -1.460669 20.974302 0.342212 0.928250 0.145751 0 0
  phy
    9 -13.158317 -1.460669 20.974302 0.342212 0.928250 0.145751 0 0
    9 -13.714767 -1.147166 18.879380 0.988409 0.009703 0.151506 0 0
    9 -13.526542 -2.728708 19.314786 0.285678 -0.079431 -0.955028 0 0
  phy
    9 -13.107440 -0.081617 20.237407 0.152239 0.574422 0.804277 0 0
    9 -13.714767 -1.147166 18.879380 0.988409 0.009703 0.151506 0 0
    9 -13.158317 -1.460669 20.974302 0.342212 0.928250 0.145751 0 0
  phy
    9 -13.107440 -0.081617 20.237407 0.152239 0.574422 0.804277 0 0
    9 -13.158317 -1.460669 20.974302 0.342212 0.928250 0.145751 0 0
    9 -5.207804 -0.938975 21.172330 -0.029556 0.996117 0.082935 0 0
  phy
    9 -13.158317 -1.460669 20.974302 0.342212 0.928250 0.145751 0 0
    9 -13.106816 -2.470658 20.631086 0.071844 0.840478 -0.537061 0 0
    9 -5.207804 -0.938975 21.172330 -0.029556 0.996117 0.082935 0 0
  phy
    9 -2.980758 -2.990107 18.748649 -0.701758 -0.414348 0.579526 0 0
    9 -3.808397 -2.092354 20.637939 -0.807177 0.454871 0.376242 0 0
    9 -2.852485 -3.802118 19.017748 -0.881223 0.422602 -0.211787 0 0
  phy
    9 -3.889650 -4.025847 20.124508 0.021156 0.647354 -0.761896 0 0
    9 -3.808397 -2.092354 20.637939 -0.807177 0.454871 0.376242 0 0
    9 -5.207804 -0.938975 21.172330 -0.029556 0.996117 0.082935 0 0
  phy
    9 -3.808397 -2.092354 20.637939 -0.807177 0.454871 0.376242 0 0
    9 -3.889650 -4.025847 20.124508 0.021156 0.647354 -0.761896 0 0
    9 -2.852485 -3.802118 19.017748 -0.881223 0.422602 -0.211787 0 0
  phy
    9 -13.314032 -1.974849 18.172392 0.132382 -0.964581 -0.228162 0 0
    9 -3.211924 -4.191022 18.339315 0.062606 -0.642070 -0.764085 0 0
    9 -13.526542 -2.728708 19.314786 0.285678 -0.079431 -0.955028 0 0
  phy
    9 -13.314032 -1.974849 18.172392 0.132382 -0.964581 -0.228162 0 0
    9 -5.403114 -1.933726 17.887789 -0.088172 -0.919081 0.384079 0 0
    9 -3.211924 -4.191022 18.339315 0.062606 -0.642070 -0.764085 0 0
  phy
    9 -13.526542 -2.728708 19.314786 0.285678 -0.079431 -0.955028 0 0
    9 -13.714767 -1.147166 18.879380 0.988409 0.009703 0.151506 0 0
    9 -13.314032 -1.974849 18.172392 0.132382 -0.964581 -0.228162 0 0
  phy
    9 -3.211924 -4.191022 18.339315 0.062606 -0.642070 -0.764085 0 0
    9 -3.889650 -4.025847 20.124508 0.021156 0.647354 -0.761896 0 0
    9 -13.526542 -2.728708 19.314786 0.285678 -0.079431 -0.955028 0 0
  phy
    9 -3.889650 -4.025847 20.124508 0.021156 0.647354 -0.761896 0 0
    9 -3.211924 -4.191022 18.339315 0.062606 -0.642070 -0.764085 0 0
    9 -2.852485 -3.802118 19.017748 -0.881223 0.422602 -0.211787 0 0
  phy
    9 -3.211924 -4.191022 18.339315 0.062606 -0.642070 -0.764085 0 0
    9 -5.403114 -1.933726 17.887789 -0.088172 -0.919081 0.384079 0 0
    9 -2.980758 -2.990107 18.748649 -0.701758 -0.414348 0.579526 0 0
  phy
    9 -3.211924 -4.191022 18.339315 0.062606 -0.642070 -0.764085 0 0
    9 -2.980758 -2.990107 18.748649 -0.701758 -0.414348 0.579526 0 0
    9 -2.852485 -3.802118 19.017748 -0.881223 0.422602 -0.211787 0 0
  phy
    9 -13.526542 -2.728708 19.314786 0.285678 -0.079431 -0.955028 0 0
    9 -3.889650 -4.025847 20.124508 0.021156 0.647354 -0.761896 0 0
    9 -13.106816 -2.470658 20.631086 0.071844 0.840478 -0.537061 0 0
  phy
    9 -13.106816 -2.470658 20.631086 0.071844 0.840478 -0.537061 0 0
    9 -3.889650 -4.025847 20.124508 0.021156 0.647354 -0.761896 0 0
    9 -5.207804 -0.938975 21.172330 -0.029556 0.996117 0.082935 0 0
  phy
    11 -7.392386 0.753353 0.102359 0.383900 0.870461 0.308088 0 0
    11 -7.899123 0.760688 4.709259 -0.007736 0.981757 -0.189984 0 0
    11 -7.869859 2.124554 4.979746 -0.062164 0.917454 0.392955 0 0
  phy
    11 -7.899123 0.760688 4.709259 -0.007736 0.981757 -0.189984 0 0
    11 -7.392386 0.753353 0.102359 0.383900 0.870461 0.308088 0 0
    11 -6.949511 -2.829943 0.279998 0.130744 0.855217 -0.501507 0 0
  phy
    11 -7.869859 2.124554 4.979746 -0.062164 0.917454 0.392955 0 0
    11 -7.899123 0.760688 4.709259 -0.007736 0.981757 -0.189984 0 0
    11 -7.141570 -0.121106 10.490115 -0.302067 0.928947 -0.214041 0 0
  phy
    11 -7.899123 0.760688 4.709259 -0.007736 0.981757 -0.189984 0 0
    11 -6.949511 -2.829943 0.279998 0.130744 0.855217 -0.501507 0 0
    11 -7.141570 -0.121106 10.490115 -0.302067 0.928947 -0.214041 0 0
  phy
    11 -4.997885 0.808357 0.939037 0.109734 -0.933838 0.340447 0 0
    11 -6.963271 2.363565 4.841027 0.127241 -0.298319 0.945947 0 0
    11 -5.015925 1.262041 8.845028 -0.245681 -0.829044 0.502321 0 0
  phy
    11 -6.963271 2.363565 4.841027 0.127241 -0.298319 0.945947 0 0
    11 -6.682344 2.421108 9.295465 -0.383174 0.250486 0.889064 0 0
    11 -5.015925 1.262041 8.845028 -0.245681 -0.829044 0.502321 0 0
  phy
    11 -7.392386 0.753353 0.102359 0.383900 0.870461 0.308088 0 0
    11 -7.869859 2.124554 4.979746 -0.062164 0.917454 0.392955 0 0
    11 -6.963271 2.363565 4.841027 0.127241 -0.298319 0.945947 0 0
  phy
    11 -6.963271 2.363565 4.841027 0.127241 -0.298319 0.945947 0 0
    11 -5.823461 0.975316 -0.297321 0.826280 -0.252937 0.503274 0 0
    11 -7.392386 0.753353 0.102359 0.383900 0.870461 0.308088 0 0
  phy
    11 -4.997885 0.808357 0.939037 0.109734 -0.933838 0.340447 0 0
    11 -5.823461 0.975316 -0.297321 0.826280 -0.252937 0.503274 0 0
    11 -6.963271 2.363565 4.841027 0.127241 -0.298319 0.945947 0 0
  phy
    11 -7.869859 2.124554 4.979746 -0.062164 0.917454 0.392955 0 0
    11 -6.682344 2.421108 9.295465 -0.383174 0.250486 0.889064 0 0
    11 -6.963271 2.363565 4.841027 0.127241 -0.298319 0.945947 0 0
  phy
    11 -7.392386 0.753353 0.102359 0.383900 0.870461 0.308088 0 0
    11 -5.823461 0.975316 -0.297321 0.826280 -0.252937 0.503274 0 0
    11 -6.949511 -2.829943 0.279998 0.130744 0.855217 -0.501507 0 0
  phy
    11 -4.997885 0.808357 0.939037 0.109734 -0.933838 0.340447 0 0
    11 -4.641891 -0.669535 7.932752 -0.082508 -0.967209 -0.240204 0 0
    11 -5.353285 -2.893168 0.689405 0.123749 -0.805286 -0.579829 0 0
  phy
    11 -5.353285 -2.893168 0.689405 0.123749 -0.805286 -0.579829 0 0
    11 -5.823461 0.975316 -0.297321 0.826280 -0.252937 0.503274 0 0
    11 -4.997885 0.808357 0.939037 0.109734 -0.933838 0.340447 0 0
  phy
    11 -5.015925 1.262041 8.845028 -0.245681 -0.829044 0.502321 0 0
    11 -4.641891 -0.669535 7.932752 -0.082508 -0.967209 -0.240204 0 0
    11 -4.997885 0.808357 0.939037 0.109734 -0.933838 0.340447 0 0
  phy
    11 -6.949511 -2.829943 0.279998 0.130744 0.855217 -0.501507 0 0
    11 -5.823461 0.975316 -0.297321 0.826280 -0.252937 0.503274 0 0
    11 -5.353285 -2.893168 0.689405 0.123749 -0.805286 -0.579829 0 0
  phy
    11 -5.353285 -2.893168 0.689405 0.123749 -0.805286 -0.579829 0 0
    11 -6.417818 -2.037163 9.290039 -0.365681 -0.108333 -0.924414 0 0
    11 -6.949511 -2.829943 0.279998 0.130744 0.855217 -0.501507 0 0
  phy
    11 -6.417818 -2.037163 9.290039 -0.365681 -0.108333 -0.924414 0 0
    11 -5.353285 -2.893168 0.689405 0.123749 -0.805286 -0.579829 0 0
    11 -4.641891 -0.669535 7.932752 -0.082508 -0.967209 -0.240204 0 0
  phy
    11 -6.682344 2.421108 9.295465 -0.383174 0.250486 0.889064 0 0
    11 -7.869859 2.124554 4.979746 -0.062164 0.917454 0.392955 0 0
    11 -7.141570 -0.121106 10.490115 -0.302067 0.928947 -0.214041 0 0
  phy
    11 -5.015925 1.262041 8.845028 -0.245681 -0.829044 0.502321 0 0
    11 -6.417818 -2.037163 9.290039 -0.365681 -0.108333 -0.924414 0 0
    11 -4.641891 -0.669535 7.932752 -0.082508 -0.967209 -0.240204 0 0
  phy
    11 -6.417818 -2.037163 9.290039 -0.365681 -0.108333 -0.924414 0 0
    11 -5.015925 1.262041 8.845028 -0.245681 -0.829044 0.502321 0 0
    11 -7.141570 -0.121106 10.490115 -0.302067 0.928947 -0.214041 0 0
  phy
    11 -5.015925 1.262041 8.845028 -0.245681 -0.829044 0.502321 0 0
    11 -6.682344 2.421108 9.295465 -0.383174 0.250486 0.889064 0 0
    11 -7.141570 -0.121106 10.490115 -0.302067 0.928947 -0.214041 0 0
  phy
    11 -6.949511 -2.829943 0.279998 0.130744 0.855217 -0.501507 0 0
    11 -6.417818 -2.037163 9.290039 -0.365681 -0.108333 -0.924414 0 0
    11 -7.141570 -0.121106 10.490115 -0.302067 0.928947 -0.214041 0 0
  phy
    1 7.392386 0.753358 0.102360 0.383900 -0.870465 0.308078 0 0
    1 7.869852 2.124564 4.979746 -0.062164 -0.917458 0.392945 0 0
    1 7.899123 0.760696 4.709258 -0.007735 -0.981755 -0.189994 0 0
  phy
    1 7.899123 0.760696 4.709258 -0.007735 -0.981755 -0.189994 0 0
    1 6.949530 -2.829938 0.279998 0.130744 -0.855211 -0.501517 0 0
    1 7.392386 0.753358 0.102360 0.383900 -0.870465 0.308078 0 0
  phy
    1 7.869852 2.124564 4.979746 -0.062164 -0.917458 0.392945 0 0
    1 7.141574 -0.121101 10.490119 -0.302066 -0.928945 -0.214051 0 0
    1 7.899123 0.760696 4.709258 -0.007735 -0.981755 -0.189994 0 0
  phy
    1 7.899123 0.760696 4.709258 -0.007735 -0.981755 -0.189994 0 0
    1 7.141574 -0.121101 10.490119 -0.302066 -0.928945 -0.214051 0 0
    1 6.949530 -2.829938 0.279998 0.130744 -0.855211 -0.501517 0 0
  phy
    1 6.963265 2.363568 4.841023 0.127241 0.298309 0.945950 0 0
    1 5.015922 1.262036 8.845029 -0.245681 0.829039 0.502330 0 0
    1 6.682335 2.421111 9.295468 -0.383173 -0.250495 0.889062 0 0
  phy
    1 6.963265 2.363568 4.841023 0.127241 0.298309 0.945950 0 0
    1 4.997884 0.808353 0.939042 0.109733 0.933834 0.340458 0 0
    1 5.015922 1.262036 8.845029 -0.245681 0.829039 0.502330 0 0
  phy
    1 6.963265 2.363568 4.841023 0.127241 0.298309 0.945950 0 0
    1 7.869852 2.124564 4.979746 -0.062164 -0.917458 0.392945 0 0
    1 7.392386 0.753358 0.102360 0.383900 -0.870465 0.308078 0 0
  phy
    1 7.392386 0.753358 0.102360 0.383900 -0.870465 0.308078 0 0
    1 5.823461 0.975315 -0.297321 0.826279 0.252932 0.503277 0 0
    1 6.963265 2.363568 4.841023 0.127241 0.298309 0.945950 0 0
  phy
    1 6.963265 2.363568 4.841023 0.127241 0.298309 0.945950 0 0
    1 5.823461 0.975315 -0.297321 0.826279 0.252932 0.503277 0 0
    1 4.997884 0.808353 0.939042 0.109733 0.933834 0.340458 0 0
  phy
    1 6.963265 2.363568 4.841023 0.127241 0.298309 0.945950 0 0
    1 6.682335 2.421111 9.295468 -0.383173 -0.250495 0.889062 0 0
    1 7.869852 2.124564 4.979746 -0.062164 -0.917458 0.392945 0 0
  phy
    1 6.949530 -2.829938 0.279998 0.130744 -0.855211 -0.501517 0 0
    1 5.823461 0.975315 -0.297321 0.826279 0.252932 0.503277 0 0
    1 7.392386 0.753358 0.102360 0.383900 -0.870465 0.308078 0 0
  phy
    1 4.997884 0.808353 0.939042 0.109733 0.933834 0.340458 0 0
    1 5.353302 -2.893157 0.689403 0.123749 0.805292 -0.579820 0 0
    1 4.641897 -0.669543 7.932752 -0.082509 0.967212 -0.240195 0 0
  phy
    1 5.353302 -2.893157 0.689403 0.123749 0.805292 -0.579820 0 0
    1 4.997884 0.808353 0.939042 0.109733 0.933834 0.340458 0 0
    1 5.823461 0.975315 -0.297321 0.826279 0.252932 0.503277 0 0
  phy
    1 5.015922 1.262036 8.845029 -0.245681 0.829039 0.502330 0 0
    1 4.997884 0.808353 0.939042 0.109733 0.933834 0.340458 0 0
    1 4.641897 -0.669543 7.932752 -0.082509 0.967212 -0.240195 0 0
  phy
    1 5.353302 -2.893157 0.689403 0.123749 0.805292 -0.579820 0 0
    1 5.823461 0.975315 -0.297321 0.826279 0.252932 0.503277 0 0
    1 6.949530 -2.829938 0.279998 0.130744 -0.855211 -0.501517 0 0
  phy
    1 6.417831 -2.037161 9.290039 -0.365680 0.108345 -0.924413 0 0
    1 5.353302 -2.893157 0.689403 0.123749 0.805292 -0.579820 0 0
    1 6.949530 -2.829938 0.279998 0.130744 -0.855211 -0.501517 0 0
  phy
    1 5.353302 -2.893157 0.689403 0.123749 0.805292 -0.579820 0 0
    1 6.417831 -2.037161 9.290039 -0.365680 0.108345 -0.924413 0 0
    1 4.641897 -0.669543 7.932752 -0.082509 0.967212 -0.240195 0 0
  phy
    1 6.682335 2.421111 9.295468 -0.383173 -0.250495 0.889062 0 0
    1 7.141574 -0.121101 10.490119 -0.302066 -0.928945 -0.214051 0 0
    1 7.869852 2.124564 4.979746 -0.062164 -0.917458 0.392945 0 0
  phy
    1 6.417831 -2.037161 9.290039 -0.365680 0.108345 -0.924413 0 0
    1 5.015922 1.262036 8.845029 -0.245681 0.829039 0.502330 0 0
    1 4.641897 -0.669543 7.932752 -0.082509 0.967212 -0.240195 0 0
  phy
    1 5.015922 1.262036 8.845029 -0.245681 0.829039 0.502330 0 0
    1 6.417831 -2.037161 9.290039 -0.365680 0.108345 -0.924413 0 0
    1 7.141574 -0.121101 10.490119 -0.302066 -0.928945 -0.214051 0 0
  phy
    1 6.682335 2.421111 9.295468 -0.383173 -0.250495 0.889062 0 0
    1 5.015922 1.262036 8.845029 -0.245681 0.829039 0.502330 0 0
    1 7.141574 -0.121101 10.490119 -0.302066 -0.928945 -0.214051 0 0
  phy
    1 6.949530 -2.829938 0.279998 0.130744 -0.855211 -0.501517 0 0
    1 7.141574 -0.121101 10.490119 -0.302066 -0.928945 -0.214051 0 0
    1 6.417831 -2.037161 9.290039 -0.365680 0.108345 -0.924413 0 0
  phy
    10 -15.714262 -2.104292 20.935835 -0.008935 0.793436 -0.608588 0 0
    10 -16.262930 -2.701952 20.009120 -0.005226 0.378763 -0.925479 0 0
    10 -13.458100 -2.673063 19.509417 -0.084628 -0.192496 -0.977642 0 0
  phy
    10 -15.714262 -2.104292 20.935835 -0.008935 0.793436 -0.608588 0 0
    10 -13.458100 -2.673063 19.509417 -0.084628 -0.192496 -0.977642 0 0
    10 -13.215070 -1.946002 20.401497 -0.668387 0.733193 0.125245 0 0
  phy
    10 -15.876251 -1.302315 20.930180 -0.080157 0.676630 0.731947 0 0
    10 -15.714262 -2.104292 20.935835 -0.008935 0.793436 -0.608588 0 0
    10 -13.215070 -1.946002 20.401497 -0.668387 0.733193 0.125245 0 0
  phy
    10 -15.714262 -2.104292 20.935835 -0.008935 0.793436 -0.608588 0 0
    10 -15.876251 -1.302315 20.930180 -0.080157 0.676630 0.731947 0 0
    10 -19.542241 -1.556607 20.730613 0.266454 0.798265 0.540162 0 0
  phy
    10 -16.262930 -2.701952 20.009120 -0.005226 0.378763 -0.925479 0 0
    10 -15.714262 -2.104292 20.935835 -0.008935 0.793436 -0.608588 0 0
    10 -22.354425 -2.596323 19.820800 0.123704 0.294022 -0.947760 0 0
  phy
    10 -15.714262 -2.104292 20.935835 -0.008935 0.793436 -0.608588 0 0
    10 -19.542241 -1.556607 20.730613 0.266454 0.798265 0.540162 0 0
    10 -22.354425 -2.596323 19.820800 0.123704 0.294022 -0.947760 0 0
  phy
    10 -13.530888 -0.731788 19.233728 -0.467478 0.266031 0.843026 0 0
    10 -13.463464 -1.909244 18.622813 -0.226547 -0.964136 -0.138271 0 0
    10 -15.074943 -0.454032 18.950159 0.003277 -0.613558 0.789643 0 0
  phy
    10 -15.074943 -0.454032 18.950159 0.003277 -0.613558 0.789643 0 0
    10 -13.463464 -1.909244 18.622813 -0.226547 -0.964136 -0.138271 0 0
    10 -21.545141 -2.327633 18.295178 0.075643 -0.959003 -0.273114 0 0
  phy
    10 -15.876251 -1.302315 20.930180 -0.080157 0.676630 0.731947 0 0
    10 -13.530888 -0.731788 19.233728 -0.467478 0.266031 0.843026 0 0
    10 -15.074943 -0.454032 18.950159 0.003277 -0.613558 0.789643 0 0
  phy
    10 -15.074943 -0.454032 18.950159 0.003277 -0.613558 0.789643 0 0
    10 -17.797819 -0.646851 19.654099 0.184666 0.024871 0.982487 0 0
    10 -15.876251 -1.302315 20.930180 -0.080157 0.676630 0.731947 0 0
  phy
    10 -21.545141 -2.327633 18.295178 0.075643 -0.959003 -0.273114 0 0
    10 -17.797819 -0.646851 19.654099 0.184666 0.024871 0.982487 0 0
    10 -15.074943 -0.454032 18.950159 0.003277 -0.613558 0.789643 0 0
  phy
    10 -15.876251 -1.302315 20.930180 -0.080157 0.676630 0.731947 0 0
    10 -13.215070 -1.946002 20.401497 -0.668387 0.733193 0.125245 0 0
    10 -13.530888 -0.731788 19.233728 -0.467478 0.266031 0.843026 0 0
  phy
    10 -15.876251 -1.302315 20.930180 -0.080157 0.676630 0.731947 0 0
    10 -17.797819 -0.646851 19.654099 0.184666 0.024871 0.982487 0 0
    10 -19.542241 -1.556607 20.730613 0.266454 0.798265 0.540162 0 0
  phy
    10 -13.458100 -2.673063 19.509417 -0.084628 -0.192496 -0.977642 0 0
    10 -16.262930 -2.701952 20.009120 -0.005226 0.378763 -0.925479 0 0
    10 -22.354425 -2.596323 19.820800 0.123704 0.294022 -0.947760 0 0
  phy
    10 -19.542241 -1.556607 20.730613 0.266454 0.798265 0.540162 0 0
    10 -17.797819 -0.646851 19.654099 0.184666 0.024871 0.982487 0 0
    10 -22.195656 -2.076211 19.027713 0.392179 0.030215 0.919392 0 0
  phy
    10 -22.195656 -2.076211 19.027713 0.392179 0.030215 0.919392 0 0
    10 -22.354425 -2.596323 19.820800 0.123704 0.294022 -0.947760 0 0
    10 -19.542241 -1.556607 20.730613 0.266454 0.798265 0.540162 0 0
  phy
    10 -22.195656 -2.076211 19.027713 0.392179 0.030215 0.919392 0 0
    10 -17.797819 -0.646851 19.654099 0.184666 0.024871 0.982487 0 0
    10 -21.545141 -2.327633 18.295178 0.075643 -0.959003 -0.273114 0 0
  phy
    10 -21.545141 -2.327633 18.295178 0.075643 -0.959003 -0.273114 0 0
    10 -22.354425 -2.596323 19.820800 0.123704 0.294022 -0.947760 0 0
    10 -22.195656 -2.076211 19.027713 0.392179 0.030215 0.919392 0 0
  phy
    10 -13.463464 -1.909244 18.622813 -0.226547 -0.964136 -0.138271 0 0
    10 -13.530888 -0.731788 19.233728 -0.467478 0.266031 0.843026 0 0
    10 -13.215070 -1.946002 20.401497 -0.668387 0.733193 0.125245 0 0
  phy
    10 -13.458100 -2.673063 19.509417 -0.084628 -0.192496 -0.977642 0 0
    10 -21.545141 -2.327633 18.295178 0.075643 -0.959003 -0.273114 0 0
    10 -13.463464 -1.909244 18.622813 -0.226547 -0.964136 -0.138271 0 0
  phy
    10 -21.545141 -2.327633 18.295178 0.075643 -0.959003 -0.273114 0 0
    10 -13.458100 -2.673063 19.509417 -0.084628 -0.192496 -0.977642 0 0
    10 -22.354425 -2.596323 19.820800 0.123704 0.294022 -0.947760 0 0
  phy
    10 -13.458100 -2.673063 19.509417 -0.084628 -0.192496 -0.977642 0 0
    10 -13.463464 -1.909244 18.622813 -0.226547 -0.964136 -0.138271 0 0
    10 -13.215070 -1.946002 20.401497 -0.668387 0.733193 0.125245 0 0
end
