// Created by Crowbar 0.76
version 1
nodes
  0 "ValveBiped.Bip01_Pelvis" -1
  1 "ValveBiped.Bip01_L_Thigh" 0
  2 "ValveBiped.Bip01_L_Calf" 1
  3 "ValveBiped.Bip01_L_Foot" 2
  4 "ValveBiped.attachment_bandage_legL" 1
  5 "ValveBiped.Bip01_R_Thigh" 0
  6 "ValveBiped.Bip01_R_Calf" 5
  7 "ValveBiped.Bip01_R_Foot" 6
  8 "ValveBiped.attachment_bandage_legR" 5
  9 "ValveBiped.Bip01_Spine" 0
  10 "ValveBiped.Bip01_Spine1" 9
  11 "ValveBiped.Bip01_Spine2" 10
  12 "ValveBiped.Bip01_Spine4" 11
  13 "ValveBiped.Bip01_Neck1" 12
  14 "ValveBiped.Bip01_Head1" 13
  15 "ValveBiped.forward" 14
  16 "ValveBiped.Bip01_L_Clavicle" 12
  17 "ValveBiped.Bip01_L_UpperArm" 16
  18 "ValveBiped.Bip01_L_Forearm" 17
  19 "ValveBiped.Bip01_L_Hand" 18
  20 "ValveBiped.Bip01_L_Finger2" 19
  21 "ValveBiped.Bip01_L_Finger21" 20
  22 "ValveBiped.Bip01_L_Finger22" 21
  23 "ValveBiped.Bip01_L_Finger1" 19
  24 "ValveBiped.Bip01_L_Finger11" 23
  25 "ValveBiped.Bip01_L_Finger12" 24
  26 "ValveBiped.Bip01_L_Finger0" 19
  27 "ValveBiped.Bip01_L_Finger01" 26
  28 "ValveBiped.Bip01_L_Finger02" 27
  29 "ValveBiped.Bip01_L_Finger4" 19
  30 "ValveBiped.Bip01_L_Finger41" 29
  31 "ValveBiped.Bip01_L_Finger42" 30
  32 "ValveBiped.Bip01_L_Finger3" 19
  33 "ValveBiped.Bip01_L_Finger31" 32
  34 "ValveBiped.Bip01_L_Finger32" 33
  35 "ValveBiped.L_weapon_bone" 19
  36 "ValveBiped.weapon_bone_Clip2" 19
  37 "ValveBiped.weapon_bone_Clip2_Bullets" 36
  38 "ValveBiped.weapon_bolt_l" 19
  39 "ValveBiped.attachment_bandage_armL" 18
  40 "ValveBiped.attachment_armL_T" 18
  41 "ValveBiped.Bip01_R_Clavicle" 12
  42 "ValveBiped.Bip01_R_UpperArm" 41
  43 "ValveBiped.Bip01_R_Forearm" 42
  44 "ValveBiped.Bip01_R_Hand" 43
  45 "ValveBiped.Bip01_R_Finger2" 44
  46 "ValveBiped.Bip01_R_Finger21" 45
  47 "ValveBiped.Bip01_R_Finger22" 46
  48 "ValveBiped.Bip01_R_Finger1" 44
  49 "ValveBiped.Bip01_R_Finger11" 48
  50 "ValveBiped.Bip01_R_Finger12" 49
  51 "ValveBiped.Bip01_R_Finger0" 44
  52 "ValveBiped.Bip01_R_Finger01" 51
  53 "ValveBiped.Bip01_R_Finger02" 52
  54 "ValveBiped.Bip01_R_Finger4" 44
  55 "ValveBiped.Bip01_R_Finger41" 54
  56 "ValveBiped.Bip01_R_Finger42" 55
  57 "ValveBiped.Bip01_R_Finger3" 44
  58 "ValveBiped.Bip01_R_Finger31" 57
  59 "ValveBiped.Bip01_R_Finger32" 58
  60 "ValveBiped.weapon_bone" 44
  61 "ValveBiped.weapon_bone_Clip" 60
  62 "ValveBiped.weapon_bone_Clip_Bullets" 61
  63 "ValveBiped.weapon_bone_extra" 60
  64 "ValveBiped.weapon_bolt" 60
  65 "ValveBiped.weapon_bolt_opposite" 60
  66 "ValveBiped.weapon_charger" 60
  67 "ValveBiped.attachment_armR_T" 43
  68 "ValveBiped.Bip01_L_Toe0" 3
  69 "ValveBiped.Bip01_R_Toe0" 7
  70 "ValveBiped.Bip01_L_Ulna" 18
  71 "ValveBiped.Bip01_L_Wrist" 18
  72 "ValveBiped.Bip01_R_Wrist" 43
  73 "ValveBiped.Bip01_R_Ulna" 43
  74 "_yure_hair_h_F04a" 14
  75 "cf_J_hairFCL_00" 14
  76 "cf_J_hairFCL_00 19380" 14
  77 "joint3" 14
  78 "joint3-2" 14
  79 "joint3 19940" 14
  80 "joint3-4" 14
  81 "joint 2" 14
  82 "cf_J_hairFL_02_01" 14
  83 "_yure_hair_h_R03a" 14
  84 "_yure_hair_h_R04a" 14
  85 "_yure_hair_h_R05a" 14
  86 "_yure_hair_h_R06a" 14
  87 "_yure_hair_h_R09a" 14
  88 "_yure_hair_h_R10a" 14
  89 "joint3-4 21480" 14
  90 "joint3-4 21630" 14
  91 "cf_J_hairFR_02_01 21840" 14
  92 "joint 2 22110" 14
  93 "joint3-3 22930" 14
  94 "cf_J_hairFCL_00 23150" 14
  95 "joint1 23560" 14
  96 "joint4 23930" 14
  97 "joint4 24080" 14
  98 "joint5-2" 14
  99 "joint1 24420" 14
  100 "A00_J_kamiF00" 14
  101 "cf_j_bust01_L" 12
  102 "cf_j_bust01_R" 12
  103 "cf_j_siri_L" 0
  104 "cf_j_siri_R" 0
end
skeleton
  time 0
    0 0.000000 -1.826285 44.766918 1.570796 0.000000 0.000001
    1 4.376121 0.000004 0.000003 -1.572134 0.030935 -1.605921
    2 20.987041 0.000044 0.000000 -0.004940 -0.000013 0.009904
    3 20.598913 -0.000163 0.000000 0.008800 0.017186 -1.002421
    4 -0.000004 0.000000 0.000000 -0.076668 -0.067464 -1.299264
    5 -4.376120 0.000004 -0.000003 -1.569500 0.030937 -1.535671
    6 20.987053 0.000012 -0.000001 0.004896 0.000013 0.009895
    7 20.598890 -0.000022 0.000000 -0.002131 -0.019445 -1.002267
    8 7.054199 -0.000155 -0.000003 -0.001297 0.000000 -0.000028
    9 0.000000 2.132603 0.371291 1.570795 0.086294 1.570791
    10 3.395267 0.238967 -0.000019 0.000000 0.000001 -0.029230
    11 5.793369 0.014373 -0.000024 0.000000 -0.000044 0.100325
    12 7.199474 -2.087731 -0.000348 0.000009 0.000052 0.194106
    13 2.528107 2.978355 0.033581 3.141588 -0.000020 0.372978
    14 2.072781 0.596146 0.000035 -0.000004 0.000014 0.302746
    15 2.651367 -2.443398 0.000078 -1.570769 -0.000013 -1.088253
    16 0.409878 1.879074 2.285606 1.564404 -1.116058 2.970022
    17 3.206438 1.647999 0.817590 -1.571833 -0.041414 0.423708
    18 10.082123 0.000008 -0.000008 -0.000157 -0.023758 0.012714
    19 9.916081 -0.000014 0.000004 1.573453 -0.106734 0.134900
    20 2.398470 -0.155090 0.301256 0.047792 -0.128157 -0.153491
    21 1.834572 -0.000008 0.000000 -0.033139 0.009936 0.005258
    22 0.936184 -0.000008 0.000000 0.000001 0.003076 -0.216393
    23 2.256720 -0.240746 1.013133 0.283964 -0.199131 -0.152045
    24 1.657034 0.000000 0.000002 -0.041952 -0.007203 -0.001986
    25 0.835274 -0.000004 0.000002 -0.000007 0.002592 -0.244321
    26 0.952162 -0.509850 1.295240 -1.460257 -0.899974 -0.507027
    27 0.929320 -0.000001 0.000000 -0.125367 -0.070511 0.142778
    28 1.121023 -0.000003 -0.000015 0.000007 0.011267 0.362863
    29 2.177790 -0.495888 -1.031777 -0.461778 0.003761 -0.157410
    30 1.403975 -0.000004 0.000000 0.002231 0.005569 0.006441
    31 0.714828 0.000000 0.000000 -0.000006 0.004978 -0.244261
    32 2.355516 -0.285316 -0.381295 -0.186245 -0.055105 -0.146996
    33 1.723431 0.000004 0.000001 0.003256 0.012407 -0.028294
    34 0.853638 -0.000004 0.000000 0.000001 0.007356 -0.430819
    35 2.776209 -1.936707 -0.109052 -1.334067 -0.543148 -1.732725
    36 3.129091 -1.654705 -1.237501 1.432853 0.264534 1.481887
    37 0.116940 4.311625 0.061869 0.000014 -0.000038 0.000000
    38 0.000000 -0.000004 0.000000 -0.277827 -0.140816 -0.067729
    39 -0.000001 0.000006 -0.000027 1.735497 0.067906 0.153400
    40 -0.000001 0.000006 -0.000027 1.735497 0.067906 0.153400
    41 0.409912 1.879077 -2.285608 -1.574434 1.117754 2.959609
    42 3.212900 1.643150 -0.801834 1.568873 0.036974 0.421981
    43 10.082111 -0.000007 -0.000015 -0.000442 0.023735 0.012754
    44 9.916080 -0.000027 0.000004 -1.627591 -0.333149 -0.444026
    45 2.022200 0.744484 1.106317 0.053617 -0.465428 0.254238
    46 1.834570 0.000008 0.000000 0.031962 -0.009871 0.005361
    47 0.936184 0.000008 0.000000 -0.000001 -0.004460 -0.216350
    48 2.318995 0.778755 0.439281 -0.190447 -0.394848 0.262629
    49 1.657021 0.000004 0.000002 0.043794 0.007188 -0.002046
    50 0.835274 0.000000 0.000000 0.000005 -0.004203 -0.244309
    51 1.594398 0.152031 -0.528198 2.051678 0.344556 0.092379
    52 0.929311 0.000000 -0.000008 0.176247 0.109730 0.115471
    53 1.121016 -0.000002 0.000008 -0.000012 -0.009620 0.362886
    54 1.306009 0.057137 2.084301 0.568452 -0.596396 0.235343
    55 1.403975 -0.000008 0.000004 -0.015850 -0.005543 0.006442
    56 0.714825 -0.000008 0.000000 0.000003 -0.006133 -0.244282
    57 1.690041 0.456825 1.646322 0.273920 -0.538767 0.254195
    58 1.723421 -0.000008 -0.000001 -0.001035 -0.012379 -0.028323
    59 0.853632 -0.000011 -0.000001 0.000002 -0.009662 -0.430785
    60 3.386776 0.000008 0.000003 -1.525777 -0.522598 0.338973
    61 9.999981 -0.000001 0.000004 0.000000 1.570547 0.000000
    62 0.000000 1.000001 0.000004 -0.000004 0.000000 0.000000
    63 9.395855 0.665158 -0.018902 0.000000 1.570547 0.000007
    64 0.000000 0.000000 0.000004 0.000000 1.570544 -0.000003
    65 0.000000 0.000000 0.000004 0.000000 1.570544 -0.000003
    66 0.000000 0.000000 0.000004 0.000000 1.570544 -0.000003
    67 -0.000002 -0.000021 -0.000008 1.009805 0.144304 0.072942
    68 6.073754 -1.763624 0.917105 -0.001051 -0.003488 -0.555378
    69 6.071373 -1.770528 -0.919559 -0.061128 0.006496 -0.556046
    70 5.218289 0.079762 0.040157 -0.284782 0.005866 -0.003068
    71 9.684253 -0.006014 -0.001686 -0.865704 0.005863 -0.003092
    72 9.684241 -0.006032 0.001698 0.867786 -0.005748 -0.003692
    73 5.218286 0.079850 -0.039951 0.287062 -0.005832 -0.003178
    74 4.634613 0.744039 3.646072 0.000000 1.570767 -1.298324
    75 5.728279 -2.767732 1.149469 0.000000 1.570766 -1.297584
    76 5.420471 -2.348393 -1.947153 0.000000 1.570766 -1.299905
    77 1.150070 1.566597 3.267944 0.000000 1.570766 -1.300228
    78 2.572441 1.713611 -3.857942 0.000000 1.570767 -1.299323
    79 1.253540 1.441648 -3.254588 0.000000 1.570764 -1.298072
    80 2.856277 -1.567339 3.311194 0.000000 1.570767 -1.298983
    81 4.389450 -0.568390 -3.334203 0.000000 1.570767 -1.298396
    82 2.976036 -1.587436 -2.985373 0.000000 1.570767 -1.299623
    83 2.320274 2.156152 -1.948333 0.000000 1.570767 -1.299323
    84 3.570358 4.565742 -0.209379 0.000000 1.570766 -1.299057
    85 3.890305 4.288139 -2.303344 0.000000 1.570763 -1.298947
    86 4.299530 2.550873 -3.227993 0.000000 1.570766 -1.299229
    87 3.840195 4.769688 1.898130 0.000000 1.570767 -1.299323
    88 4.223518 3.281555 3.147135 0.000000 1.570765 -1.297684
    89 0.757805 -1.401818 -2.320375 0.000000 1.570765 -1.300019
    90 0.943230 -1.335798 2.609773 0.000000 1.570767 -1.300554
    91 2.808044 -1.678250 3.004888 0.000000 1.570765 -1.297208
    92 4.216133 -0.340320 3.817385 0.000000 1.570767 -1.299003
    93 4.259743 -1.350627 -2.975466 0.000000 1.570765 -1.299300
    94 5.967102 -2.888951 0.643176 0.000000 1.570766 -1.298371
    95 2.642776 0.132514 3.477835 0.000000 1.570765 -1.296716
    96 0.675591 2.483843 -2.602155 0.000000 1.570766 -1.300350
    97 0.685600 2.636337 2.667086 0.000000 1.570766 -1.298686
    98 3.079514 4.101740 3.646753 0.000000 1.570767 -1.299253
    99 4.185181 -1.723525 3.784893 0.000000 1.570765 -1.296842
    100 8.227280 -1.264390 1.383579 0.000000 1.570766 -1.299060
    101 -3.609062 7.876989 2.626721 -1.563875 -1.229755 -1.531544
    102 -3.609032 7.876991 -2.626754 1.577688 -1.229762 1.610074
    103 3.356303 -0.166393 -1.115098 -1.570737 0.000043 0.000044
    104 -3.356387 -0.166485 -1.115059 -1.570751 -0.000001 0.000000
end
triangles
  phy
    0 4.494194 -1.129491 49.464032 0.249889 0.802613 0.541635 0 0
    0 4.591967 -4.256328 47.212014 0.242915 -0.329992 -0.912194 0 0
    0 4.500783 -1.140303 47.196892 0.185213 0.578119 -0.794654 0 0
  phy
    0 4.494194 -1.129491 49.464032 0.249889 0.802613 0.541635 0 0
    0 4.585378 -4.245517 49.479157 0.116190 -0.578071 0.807672 0 0
    0 4.591967 -4.256328 47.212014 0.242915 -0.329992 -0.912194 0 0
  phy
    0 4.494194 -1.129491 49.464032 0.249889 0.802613 0.541635 0 0
    0 -4.491355 -1.392555 49.439172 -0.242915 0.329993 0.912193 0 0
    0 4.585378 -4.245517 49.479157 0.116190 -0.578071 0.807672 0 0
  phy
    0 -4.491355 -1.392555 49.439172 -0.242915 0.329993 0.912193 0 0
    0 -4.400170 -4.508583 49.454297 -0.185213 -0.578120 0.794653 0 0
    0 4.585378 -4.245517 49.479157 0.116190 -0.578071 0.807672 0 0
  phy
    0 4.494194 -1.129491 49.464032 0.249889 0.802613 0.541635 0 0
    0 4.500783 -1.140303 47.196892 0.185213 0.578119 -0.794654 0 0
    0 -4.484764 -1.403366 47.172028 -0.116190 0.578071 -0.807672 0 0
  phy
    0 4.494194 -1.129491 49.464032 0.249889 0.802613 0.541635 0 0
    0 -4.484764 -1.403366 47.172028 -0.116190 0.578071 -0.807672 0 0
    0 -4.491355 -1.392555 49.439172 -0.242915 0.329993 0.912193 0 0
  phy
    0 4.500783 -1.140303 47.196892 0.185213 0.578119 -0.794654 0 0
    0 4.591967 -4.256328 47.212014 0.242915 -0.329992 -0.912194 0 0
    0 -4.484764 -1.403366 47.172028 -0.116190 0.578071 -0.807672 0 0
  phy
    0 -4.484764 -1.403366 47.172028 -0.116190 0.578071 -0.807672 0 0
    0 4.591967 -4.256328 47.212014 0.242915 -0.329992 -0.912194 0 0
    0 -4.393580 -4.519393 47.187150 -0.249889 -0.802613 -0.541635 0 0
  phy
    0 -4.491355 -1.392555 49.439172 -0.242915 0.329993 0.912193 0 0
    0 -4.484764 -1.403366 47.172028 -0.116190 0.578071 -0.807672 0 0
    0 -4.393580 -4.519393 47.187150 -0.249889 -0.802613 -0.541635 0 0
  phy
    0 -4.491355 -1.392555 49.439172 -0.242915 0.329993 0.912193 0 0
    0 -4.393580 -4.519393 47.187150 -0.249889 -0.802613 -0.541635 0 0
    0 -4.400170 -4.508583 49.454297 -0.185213 -0.578120 0.794653 0 0
  phy
    0 -4.393580 -4.519393 47.187150 -0.249889 -0.802613 -0.541635 0 0
    0 4.585378 -4.245517 49.479157 0.116190 -0.578071 0.807672 0 0
    0 -4.400170 -4.508583 49.454297 -0.185213 -0.578120 0.794653 0 0
  phy
    0 -4.393580 -4.519393 47.187150 -0.249889 -0.802613 -0.541635 0 0
    0 4.591967 -4.256328 47.212014 0.242915 -0.329992 -0.912194 0 0
    0 4.585378 -4.245517 49.479157 0.116190 -0.578071 0.807672 0 0
  phy
    11 -4.499875 -6.741065 64.494671 -0.071848 0.581280 0.810526 0 0
    11 4.488804 -6.944405 64.462478 -0.086017 -0.300410 0.949924 0 0
    11 -4.428920 -3.736747 65.330060 0.588917 0.287485 -0.755334 0 0
  phy
    11 4.488804 -6.944405 64.462478 -0.086017 -0.300410 0.949924 0 0
    11 4.559759 -3.940088 65.297868 0.370009 -0.192076 -0.908956 0 0
    11 -4.428920 -3.736747 65.330060 0.588917 0.287485 -0.755334 0 0
  phy
    11 -4.499875 -6.741065 64.494671 -0.071848 0.581280 0.810526 0 0
    11 -4.459030 -2.548278 49.412742 -0.370008 0.192076 0.908956 0 0
    11 4.488804 -6.944405 64.462478 -0.086017 -0.300410 0.949924 0 0
  phy
    11 -4.459030 -2.548278 49.412742 -0.370008 0.192076 0.908956 0 0
    11 4.529649 -2.751621 49.380557 -0.588917 -0.287486 0.755333 0 0
    11 4.488804 -6.944405 64.462478 -0.086017 -0.300410 0.949924 0 0
  phy
    11 4.488804 -6.944405 64.462478 -0.086017 -0.300410 0.949924 0 0
    11 4.600604 0.252696 50.215951 0.071848 -0.581280 -0.810526 0 0
    11 4.559759 -3.940088 65.297868 0.370009 -0.192076 -0.908956 0 0
  phy
    11 4.488804 -6.944405 64.462478 -0.086017 -0.300410 0.949924 0 0
    11 4.529649 -2.751621 49.380557 -0.588917 -0.287486 0.755333 0 0
    11 4.600604 0.252696 50.215951 0.071848 -0.581280 -0.810526 0 0
  phy
    11 -4.459030 -2.548278 49.412742 -0.370008 0.192076 0.908956 0 0
    11 -4.499875 -6.741065 64.494671 -0.071848 0.581280 0.810526 0 0
    11 -4.388074 0.456038 50.248136 0.086017 0.300410 -0.949924 0 0
  phy
    11 -4.388074 0.456038 50.248136 0.086017 0.300410 -0.949924 0 0
    11 -4.499875 -6.741065 64.494671 -0.071848 0.581280 0.810526 0 0
    11 -4.428920 -3.736747 65.330060 0.588917 0.287485 -0.755334 0 0
  phy
    11 -4.388074 0.456038 50.248136 0.086017 0.300410 -0.949924 0 0
    11 4.600604 0.252696 50.215951 0.071848 -0.581280 -0.810526 0 0
    11 4.529649 -2.751621 49.380557 -0.588917 -0.287486 0.755333 0 0
  phy
    11 -4.388074 0.456038 50.248136 0.086017 0.300410 -0.949924 0 0
    11 4.529649 -2.751621 49.380557 -0.588917 -0.287486 0.755333 0 0
    11 -4.459030 -2.548278 49.412742 -0.370008 0.192076 0.908956 0 0
  phy
    11 4.600604 0.252696 50.215951 0.071848 -0.581280 -0.810526 0 0
    11 -4.388074 0.456038 50.248136 0.086017 0.300410 -0.949924 0 0
    11 4.559759 -3.940088 65.297868 0.370009 -0.192076 -0.908956 0 0
  phy
    11 4.559759 -3.940088 65.297868 0.370009 -0.192076 -0.908956 0 0
    11 -4.388074 0.456038 50.248136 0.086017 0.300410 -0.949924 0 0
    11 -4.428920 -3.736747 65.330060 0.588917 0.287485 -0.755334 0 0
  phy
    42 -13.602433 -2.191837 62.852574 -0.069922 -0.765730 0.639350 0 0
    42 -13.648532 -1.524548 64.609230 -0.091711 -0.093459 0.991390 0 0
    42 -4.744507 -3.145516 63.447289 -0.172970 -0.479418 0.860372 0 0
  phy
    42 -13.648532 -1.524548 64.609230 -0.091711 -0.093459 0.991390 0 0
    42 -4.790603 -2.478228 65.203941 -0.257769 -0.086943 0.962287 0 0
    42 -4.744507 -3.145516 63.447289 -0.172970 -0.479418 0.860372 0 0
  phy
    42 -4.744507 -3.145516 63.447289 -0.172970 -0.479418 0.860372 0 0
    42 -4.790603 -2.478228 65.203941 -0.257769 -0.086943 0.962287 0 0
    42 -4.809143 -3.631754 63.630294 0.091711 0.093459 -0.991390 0 0
  phy
    42 -4.809143 -3.631754 63.630294 0.091711 0.093459 -0.991390 0 0
    42 -4.790603 -2.478228 65.203941 -0.257769 -0.086943 0.962287 0 0
    42 -4.855240 -2.964465 65.386949 0.069921 0.765731 -0.639349 0 0
  phy
    42 -4.744507 -3.145516 63.447289 -0.172970 -0.479418 0.860372 0 0
    42 -4.809143 -3.631754 63.630294 0.091711 0.093459 -0.991390 0 0
    42 -13.602433 -2.191837 62.852574 -0.069922 -0.765730 0.639350 0 0
  phy
    42 -4.809143 -3.631754 63.630294 0.091711 0.093459 -0.991390 0 0
    42 -13.667072 -2.678074 63.035578 0.257769 0.086944 -0.962287 0 0
    42 -13.602433 -2.191837 62.852574 -0.069922 -0.765730 0.639350 0 0
  phy
    42 -13.602433 -2.191837 62.852574 -0.069922 -0.765730 0.639350 0 0
    42 -13.667072 -2.678074 63.035578 0.257769 0.086944 -0.962287 0 0
    42 -13.648532 -1.524548 64.609230 -0.091711 -0.093459 0.991390 0 0
  phy
    42 -13.667072 -2.678074 63.035578 0.257769 0.086944 -0.962287 0 0
    42 -13.713169 -2.010784 64.792237 0.172970 0.479418 -0.860372 0 0
    42 -13.648532 -1.524548 64.609230 -0.091711 -0.093459 0.991390 0 0
  phy
    42 -4.855240 -2.964465 65.386949 0.069921 0.765731 -0.639349 0 0
    42 -4.790603 -2.478228 65.203941 -0.257769 -0.086943 0.962287 0 0
    42 -13.648532 -1.524548 64.609230 -0.091711 -0.093459 0.991390 0 0
  phy
    42 -4.855240 -2.964465 65.386949 0.069921 0.765731 -0.639349 0 0
    42 -13.648532 -1.524548 64.609230 -0.091711 -0.093459 0.991390 0 0
    42 -13.713169 -2.010784 64.792237 0.172970 0.479418 -0.860372 0 0
  phy
    42 -13.667072 -2.678074 63.035578 0.257769 0.086944 -0.962287 0 0
    42 -4.809143 -3.631754 63.630294 0.091711 0.093459 -0.991390 0 0
    42 -13.713169 -2.010784 64.792237 0.172970 0.479418 -0.860372 0 0
  phy
    42 -13.713169 -2.010784 64.792237 0.172970 0.479418 -0.860372 0 0
    42 -4.809143 -3.631754 63.630294 0.091711 0.093459 -0.991390 0 0
    42 -4.855240 -2.964465 65.386949 0.069921 0.765731 -0.639349 0 0
  phy
    17 5.178756 -1.746983 64.924472 0.018007 0.082414 0.996435 0 0
    17 14.030972 -3.131078 63.197656 0.112636 0.468941 0.876018 0 0
    17 5.132133 -2.399282 63.162213 -0.047201 0.757959 0.650593 0 0
  phy
    17 5.178756 -1.746983 64.924472 0.018007 0.082414 0.996435 0 0
    17 14.077595 -2.478778 64.959919 0.102445 0.079359 0.991568 0 0
    17 14.030972 -3.131078 63.197656 0.112636 0.468941 0.876018 0 0
  phy
    17 5.178756 -1.746983 64.924472 0.018007 0.082414 0.996435 0 0
    17 5.132133 -2.399282 63.162213 -0.047201 0.757959 0.650593 0 0
    17 5.137806 -2.236110 65.106605 -0.112636 -0.468941 -0.876018 0 0
  phy
    17 5.137806 -2.236110 65.106605 -0.112636 -0.468941 -0.876018 0 0
    17 5.132133 -2.399282 63.162213 -0.047201 0.757959 0.650593 0 0
    17 5.091183 -2.888409 63.344346 -0.102445 -0.079359 -0.991568 0 0
  phy
    17 5.132133 -2.399282 63.162213 -0.047201 0.757959 0.650593 0 0
    17 14.030972 -3.131078 63.197656 0.112636 0.468941 0.876018 0 0
    17 13.990025 -3.620206 63.379789 -0.018007 -0.082414 -0.996435 0 0
  phy
    17 5.132133 -2.399282 63.162213 -0.047201 0.757959 0.650593 0 0
    17 13.990025 -3.620206 63.379789 -0.018007 -0.082414 -0.996435 0 0
    17 5.091183 -2.888409 63.344346 -0.102445 -0.079359 -0.991568 0 0
  phy
    17 5.137806 -2.236110 65.106605 -0.112636 -0.468941 -0.876018 0 0
    17 14.036647 -2.967906 65.142052 0.047201 -0.757958 -0.650593 0 0
    17 5.178756 -1.746983 64.924472 0.018007 0.082414 0.996435 0 0
  phy
    17 14.036647 -2.967906 65.142052 0.047201 -0.757958 -0.650593 0 0
    17 14.077595 -2.478778 64.959919 0.102445 0.079359 0.991568 0 0
    17 5.178756 -1.746983 64.924472 0.018007 0.082414 0.996435 0 0
  phy
    17 13.990025 -3.620206 63.379789 -0.018007 -0.082414 -0.996435 0 0
    17 14.030972 -3.131078 63.197656 0.112636 0.468941 0.876018 0 0
    17 14.036647 -2.967906 65.142052 0.047201 -0.757958 -0.650593 0 0
  phy
    17 14.030972 -3.131078 63.197656 0.112636 0.468941 0.876018 0 0
    17 14.077595 -2.478778 64.959919 0.102445 0.079359 0.991568 0 0
    17 14.036647 -2.967906 65.142052 0.047201 -0.757958 -0.650593 0 0
  phy
    17 5.137806 -2.236110 65.106605 -0.112636 -0.468941 -0.876018 0 0
    17 5.091183 -2.888409 63.344346 -0.102445 -0.079359 -0.991568 0 0
    17 13.990025 -3.620206 63.379789 -0.018007 -0.082414 -0.996435 0 0
  phy
    17 5.137806 -2.236110 65.106605 -0.112636 -0.468941 -0.876018 0 0
    17 13.990025 -3.620206 63.379789 -0.018007 -0.082414 -0.996435 0 0
    17 14.036647 -2.967906 65.142052 0.047201 -0.757958 -0.650593 0 0
  phy
    18 14.944910 -2.002366 62.871308 -0.049200 0.760093 0.647949 0 0
    18 14.905050 -2.491091 63.054756 -0.105908 -0.083692 -0.990848 0 0
    18 14.914932 -1.831248 64.814793 -0.113280 -0.472893 -0.873808 0 0
  phy
    18 14.944910 -2.002366 62.871308 -0.049200 0.760093 0.647949 0 0
    18 14.914932 -1.831248 64.814793 -0.113280 -0.472893 -0.873808 0 0
    18 14.954791 -1.342522 64.631345 0.021473 0.086256 0.996042 0 0
  phy
    18 14.905050 -2.491091 63.054756 -0.105908 -0.083692 -0.990848 0 0
    18 14.944910 -2.002366 62.871308 -0.049200 0.760093 0.647949 0 0
    18 23.807959 -3.144075 63.249572 -0.021473 -0.086256 -0.996042 0 0
  phy
    18 23.807959 -3.144075 63.249572 -0.021473 -0.086256 -0.996042 0 0
    18 14.944910 -2.002366 62.871308 -0.049200 0.760093 0.647949 0 0
    18 23.847819 -2.655349 63.066124 0.113280 0.472893 0.873808 0 0
  phy
    18 14.905050 -2.491091 63.054756 -0.105908 -0.083692 -0.990848 0 0
    18 23.807959 -3.144075 63.249572 -0.021473 -0.086256 -0.996042 0 0
    18 14.914932 -1.831248 64.814793 -0.113280 -0.472893 -0.873808 0 0
  phy
    18 14.914932 -1.831248 64.814793 -0.113280 -0.472893 -0.873808 0 0
    18 23.807959 -3.144075 63.249572 -0.021473 -0.086256 -0.996042 0 0
    18 23.817841 -2.484231 65.009613 0.049200 -0.760093 -0.647950 0 0
  phy
    18 23.847819 -2.655349 63.066124 0.113280 0.472893 0.873808 0 0
    18 23.817841 -2.484231 65.009613 0.049200 -0.760093 -0.647950 0 0
    18 23.807959 -3.144075 63.249572 -0.021473 -0.086256 -0.996042 0 0
  phy
    18 23.847819 -2.655349 63.066124 0.113280 0.472893 0.873808 0 0
    18 23.857701 -1.995503 64.826166 0.105908 0.083692 0.990848 0 0
    18 23.817841 -2.484231 65.009613 0.049200 -0.760093 -0.647950 0 0
  phy
    18 14.954791 -1.342522 64.631345 0.021473 0.086256 0.996042 0 0
    18 23.817841 -2.484231 65.009613 0.049200 -0.760093 -0.647950 0 0
    18 23.857701 -1.995503 64.826166 0.105908 0.083692 0.990848 0 0
  phy
    18 14.954791 -1.342522 64.631345 0.021473 0.086256 0.996042 0 0
    18 14.914932 -1.831248 64.814793 -0.113280 -0.472893 -0.873808 0 0
    18 23.817841 -2.484231 65.009613 0.049200 -0.760093 -0.647950 0 0
  phy
    18 23.857701 -1.995503 64.826166 0.105908 0.083692 0.990848 0 0
    18 23.847819 -2.655349 63.066124 0.113280 0.472893 0.873808 0 0
    18 14.954791 -1.342522 64.631345 0.021473 0.086256 0.996042 0 0
  phy
    18 23.847819 -2.655349 63.066124 0.113280 0.472893 0.873808 0 0
    18 14.944910 -2.002366 62.871308 -0.049200 0.760093 0.647949 0 0
    18 14.954791 -1.342522 64.631345 0.021473 0.086256 0.996042 0 0
  phy
    19 25.657687 -3.750711 63.335722 -0.413763 -0.750596 0.515176 0 0
    19 25.717579 -3.224656 61.531732 -0.556946 -0.585641 -0.588928 0 0
    19 28.820018 -3.534983 63.503621 0.207421 -0.828465 0.520213 0 0
  phy
    19 25.717579 -3.224656 61.531732 -0.556946 -0.585641 -0.588928 0 0
    19 28.879912 -3.008928 61.699631 0.430270 -0.141883 -0.891480 0 0
    19 28.820018 -3.534983 63.503621 0.207421 -0.828465 0.520213 0 0
  phy
    19 25.657687 -3.750711 63.335722 -0.413763 -0.750596 0.515176 0 0
    19 25.487008 -1.707980 63.925730 -0.430270 0.141883 0.891480 0 0
    19 25.717579 -3.224656 61.531732 -0.556946 -0.585641 -0.588928 0 0
  phy
    19 25.717579 -3.224656 61.531732 -0.556946 -0.585641 -0.588928 0 0
    19 25.487008 -1.707980 63.925730 -0.430270 0.141883 0.891480 0 0
    19 25.546900 -1.181924 62.121740 -0.207422 0.828465 -0.520213 0 0
  phy
    19 28.820018 -3.534983 63.503621 0.207421 -0.828465 0.520213 0 0
    19 25.487008 -1.707980 63.925730 -0.430270 0.141883 0.891480 0 0
    19 25.657687 -3.750711 63.335722 -0.413763 -0.750596 0.515176 0 0
  phy
    19 28.820018 -3.534983 63.503621 0.207421 -0.828465 0.520213 0 0
    19 28.649341 -1.492251 64.093629 0.556946 0.585640 0.588929 0 0
    19 25.487008 -1.707980 63.925730 -0.430270 0.141883 0.891480 0 0
  phy
    19 28.820018 -3.534983 63.503621 0.207421 -0.828465 0.520213 0 0
    19 28.879912 -3.008928 61.699631 0.430270 -0.141883 -0.891480 0 0
    19 28.649341 -1.492251 64.093629 0.556946 0.585640 0.588929 0 0
  phy
    19 28.879912 -3.008928 61.699631 0.430270 -0.141883 -0.891480 0 0
    19 28.709235 -0.966195 62.289639 0.413763 0.750596 -0.515176 0 0
    19 28.649341 -1.492251 64.093629 0.556946 0.585640 0.588929 0 0
  phy
    19 25.487008 -1.707980 63.925730 -0.430270 0.141883 0.891480 0 0
    19 28.649341 -1.492251 64.093629 0.556946 0.585640 0.588929 0 0
    19 25.546900 -1.181924 62.121740 -0.207422 0.828465 -0.520213 0 0
  phy
    19 25.546900 -1.181924 62.121740 -0.207422 0.828465 -0.520213 0 0
    19 28.649341 -1.492251 64.093629 0.556946 0.585640 0.588929 0 0
    19 28.709235 -0.966195 62.289639 0.413763 0.750596 -0.515176 0 0
  phy
    19 28.879912 -3.008928 61.699631 0.430270 -0.141883 -0.891480 0 0
    19 25.717579 -3.224656 61.531732 -0.556946 -0.585641 -0.588928 0 0
    19 25.546900 -1.181924 62.121740 -0.207422 0.828465 -0.520213 0 0
  phy
    19 28.879912 -3.008928 61.699631 0.430270 -0.141883 -0.891480 0 0
    19 25.546900 -1.181924 62.121740 -0.207422 0.828465 -0.520213 0 0
    19 28.709235 -0.966195 62.289639 0.413763 0.750596 -0.515176 0 0
  phy
    43 -14.633041 -3.556242 63.460758 0.088336 0.096618 -0.991394 0 0
    43 -14.567371 -3.071233 63.274883 -0.172451 -0.481587 0.859264 0 0
    43 -14.576677 -2.397481 65.029643 -0.254466 -0.088990 0.962979 0 0
  phy
    43 -14.633041 -3.556242 63.460758 0.088336 0.096618 -0.991394 0 0
    43 -14.576677 -2.397481 65.029643 -0.254466 -0.088990 0.962979 0 0
    43 -14.642347 -2.882490 65.215518 0.072017 0.767687 -0.636765 0 0
  phy
    43 -23.491355 -2.526378 63.018353 0.254466 0.088991 -0.962979 0 0
    43 -23.425685 -2.041369 62.832479 -0.072017 -0.767687 0.636766 0 0
    43 -14.633041 -3.556242 63.460758 0.088336 0.096618 -0.991394 0 0
  phy
    43 -23.425685 -2.041369 62.832479 -0.072017 -0.767687 0.636766 0 0
    43 -14.567371 -3.071233 63.274883 -0.172451 -0.481587 0.859264 0 0
    43 -14.633041 -3.556242 63.460758 0.088336 0.096618 -0.991394 0 0
  phy
    43 -14.567371 -3.071233 63.274883 -0.172451 -0.481587 0.859264 0 0
    43 -23.434992 -1.367616 64.587242 -0.088336 -0.096618 0.991394 0 0
    43 -14.576677 -2.397481 65.029643 -0.254466 -0.088990 0.962979 0 0
  phy
    43 -14.567371 -3.071233 63.274883 -0.172451 -0.481587 0.859264 0 0
    43 -23.425685 -2.041369 62.832479 -0.072017 -0.767687 0.636766 0 0
    43 -23.434992 -1.367616 64.587242 -0.088336 -0.096618 0.991394 0 0
  phy
    43 -23.491355 -2.526378 63.018353 0.254466 0.088991 -0.962979 0 0
    43 -23.434992 -1.367616 64.587242 -0.088336 -0.096618 0.991394 0 0
    43 -23.425685 -2.041369 62.832479 -0.072017 -0.767687 0.636766 0 0
  phy
    43 -23.491355 -2.526378 63.018353 0.254466 0.088991 -0.962979 0 0
    43 -23.500661 -1.852625 64.773117 0.172451 0.481587 -0.859264 0 0
    43 -23.434992 -1.367616 64.587242 -0.088336 -0.096618 0.991394 0 0
  phy
    43 -14.642347 -2.882490 65.215518 0.072017 0.767687 -0.636765 0 0
    43 -14.576677 -2.397481 65.029643 -0.254466 -0.088990 0.962979 0 0
    43 -23.434992 -1.367616 64.587242 -0.088336 -0.096618 0.991394 0 0
  phy
    43 -14.642347 -2.882490 65.215518 0.072017 0.767687 -0.636765 0 0
    43 -23.434992 -1.367616 64.587242 -0.088336 -0.096618 0.991394 0 0
    43 -23.500661 -1.852625 64.773117 0.172451 0.481587 -0.859264 0 0
  phy
    43 -23.491355 -2.526378 63.018353 0.254466 0.088991 -0.962979 0 0
    43 -14.633041 -3.556242 63.460758 0.088336 0.096618 -0.991394 0 0
    43 -23.500661 -1.852625 64.773117 0.172451 0.481587 -0.859264 0 0
  phy
    43 -23.500661 -1.852625 64.773117 0.172451 0.481587 -0.859264 0 0
    43 -14.633041 -3.556242 63.460758 0.088336 0.096618 -0.991394 0 0
    43 -14.642347 -2.882490 65.215518 0.072017 0.767687 -0.636765 0 0
  phy
    44 -28.012999 -1.150948 64.147054 -0.324606 -0.566628 0.757340 0 0
    44 -28.080034 -0.657760 62.334045 -0.096764 -0.957020 -0.273404 0 0
    44 -28.600627 -3.134979 63.629067 0.374187 0.083329 0.923602 0 0
  phy
    44 -28.080034 -0.657760 62.334045 -0.096764 -0.957020 -0.273404 0 0
    44 -28.667662 -2.641791 61.816061 0.777577 0.161150 -0.607787 0 0
    44 -28.600627 -3.134979 63.629067 0.374187 0.083329 0.923602 0 0
  phy
    44 -28.012999 -1.150948 64.147054 -0.324606 -0.566628 0.757340 0 0
    44 -24.963798 -1.966687 63.812410 -0.777577 -0.161149 0.607787 0 0
    44 -28.080034 -0.657760 62.334045 -0.096764 -0.957020 -0.273404 0 0
  phy
    44 -28.080034 -0.657760 62.334045 -0.096764 -0.957020 -0.273404 0 0
    44 -24.963798 -1.966687 63.812410 -0.777577 -0.161149 0.607787 0 0
    44 -25.030830 -1.473500 61.999405 -0.374187 -0.083328 -0.923602 0 0
  phy
    44 -28.012999 -1.150948 64.147054 -0.324606 -0.566628 0.757340 0 0
    44 -28.600627 -3.134979 63.629067 0.374187 0.083329 0.923602 0 0
    44 -24.963798 -1.966687 63.812410 -0.777577 -0.161149 0.607787 0 0
  phy
    44 -28.600627 -3.134979 63.629067 0.374187 0.083329 0.923602 0 0
    44 -25.551424 -3.950719 63.294422 0.096764 0.957020 0.273405 0 0
    44 -24.963798 -1.966687 63.812410 -0.777577 -0.161149 0.607787 0 0
  phy
    44 -28.600627 -3.134979 63.629067 0.374187 0.083329 0.923602 0 0
    44 -28.667662 -2.641791 61.816061 0.777577 0.161150 -0.607787 0 0
    44 -25.551424 -3.950719 63.294422 0.096764 0.957020 0.273405 0 0
  phy
    44 -28.667662 -2.641791 61.816061 0.777577 0.161150 -0.607787 0 0
    44 -25.618456 -3.457532 61.481421 0.324606 0.566626 -0.757341 0 0
    44 -25.551424 -3.950719 63.294422 0.096764 0.957020 0.273405 0 0
  phy
    44 -24.963798 -1.966687 63.812410 -0.777577 -0.161149 0.607787 0 0
    44 -25.551424 -3.950719 63.294422 0.096764 0.957020 0.273405 0 0
    44 -25.030830 -1.473500 61.999405 -0.374187 -0.083328 -0.923602 0 0
  phy
    44 -25.030830 -1.473500 61.999405 -0.374187 -0.083328 -0.923602 0 0
    44 -25.551424 -3.950719 63.294422 0.096764 0.957020 0.273405 0 0
    44 -25.618456 -3.457532 61.481421 0.324606 0.566626 -0.757341 0 0
  phy
    44 -25.030830 -1.473500 61.999405 -0.374187 -0.083328 -0.923602 0 0
    44 -25.618456 -3.457532 61.481421 0.324606 0.566626 -0.757341 0 0
    44 -28.667662 -2.641791 61.816061 0.777577 0.161150 -0.607787 0 0
  phy
    44 -25.030830 -1.473500 61.999405 -0.374187 -0.083328 -0.923602 0 0
    44 -28.667662 -2.641791 61.816061 0.777577 0.161150 -0.607787 0 0
    44 -28.080034 -0.657760 62.334045 -0.096764 -0.957020 -0.273404 0 0
  phy
    5 -2.198091 -0.325107 46.603169 -0.684390 -0.577815 0.444680 0 0
    5 -5.266549 -0.321135 46.603289 -0.314274 0.547819 0.775323 0 0
    5 -5.272543 -4.962483 46.976438 -0.567701 0.707718 -0.420535 0 0
  phy
    5 -2.198091 -0.325107 46.603169 -0.684390 -0.577815 0.444680 0 0
    5 -5.272543 -4.962483 46.976438 -0.567701 0.707718 -0.420535 0 0
    5 -2.204085 -4.966456 46.976318 -0.305525 -0.915125 -0.263060 0 0
  phy
    5 -2.204085 -4.966456 46.976318 -0.305525 -0.915125 -0.263060 0 0
    5 -2.198737 -0.688030 42.088983 0.567701 -0.707718 0.420535 0 0
    5 -2.198091 -0.325107 46.603169 -0.684390 -0.577815 0.444680 0 0
  phy
    5 -2.204085 -4.966456 46.976318 -0.305525 -0.915125 -0.263060 0 0
    5 -2.204731 -5.329380 42.462131 0.314274 -0.547819 -0.775323 0 0
    5 -2.198737 -0.688030 42.088983 0.567701 -0.707718 0.420535 0 0
  phy
    5 -2.204085 -4.966456 46.976318 -0.305525 -0.915125 -0.263060 0 0
    5 -5.272543 -4.962483 46.976438 -0.567701 0.707718 -0.420535 0 0
    5 -2.204731 -5.329380 42.462131 0.314274 -0.547819 -0.775323 0 0
  phy
    5 -2.204731 -5.329380 42.462131 0.314274 -0.547819 -0.775323 0 0
    5 -5.272543 -4.962483 46.976438 -0.567701 0.707718 -0.420535 0 0
    5 -5.273190 -5.325407 42.462251 0.684390 0.577815 -0.444680 0 0
  phy
    5 -2.198091 -0.325107 46.603169 -0.684390 -0.577815 0.444680 0 0
    5 -2.198737 -0.688030 42.088983 0.567701 -0.707718 0.420535 0 0
    5 -5.266549 -0.321135 46.603289 -0.314274 0.547819 0.775323 0 0
  phy
    5 -2.198737 -0.688030 42.088983 0.567701 -0.707718 0.420535 0 0
    5 -5.267195 -0.684057 42.089103 0.305525 0.915125 0.263060 0 0
    5 -5.266549 -0.321135 46.603289 -0.314274 0.547819 0.775323 0 0
  phy
    5 -5.272543 -4.962483 46.976438 -0.567701 0.707718 -0.420535 0 0
    5 -5.266549 -0.321135 46.603289 -0.314274 0.547819 0.775323 0 0
    5 -5.267195 -0.684057 42.089103 0.305525 0.915125 0.263060 0 0
  phy
    5 -5.272543 -4.962483 46.976438 -0.567701 0.707718 -0.420535 0 0
    5 -5.267195 -0.684057 42.089103 0.305525 0.915125 0.263060 0 0
    5 -5.273190 -5.325407 42.462251 0.684390 0.577815 -0.444680 0 0
  phy
    5 -5.267195 -0.684057 42.089103 0.305525 0.915125 0.263060 0 0
    5 -2.198737 -0.688030 42.088983 0.567701 -0.707718 0.420535 0 0
    5 -5.273190 -5.325407 42.462251 0.684390 0.577815 -0.444680 0 0
  phy
    5 -2.198737 -0.688030 42.088983 0.567701 -0.707718 0.420535 0 0
    5 -2.204731 -5.329380 42.462131 0.314274 -0.547819 -0.775323 0 0
    5 -5.273190 -5.325407 42.462251 0.684390 0.577815 -0.444680 0 0
  phy
    6 -2.761962 -5.317177 15.654754 -0.025241 -0.605035 -0.795798 0 0
    6 -4.761924 -5.304814 15.655259 0.040917 0.830694 -0.555223 0 0
    6 -2.743261 -2.282322 15.411017 0.163770 -0.829352 0.534187 0 0
  phy
    6 -4.761924 -5.304814 15.655259 0.040917 0.830694 -0.555223 0 0
    6 -4.743224 -2.269958 15.411523 0.043264 0.951004 0.306137 0 0
    6 -2.743261 -2.282322 15.411017 0.163770 -0.829352 0.534187 0 0
  phy
    6 -4.725148 -0.331687 39.547105 0.025241 0.605036 0.795798 0 0
    6 -2.743261 -2.282322 15.411017 0.163770 -0.829352 0.534187 0 0
    6 -4.743224 -2.269958 15.411523 0.043264 0.951004 0.306137 0 0
  phy
    6 -4.725148 -0.331687 39.547105 0.025241 0.605036 0.795798 0 0
    6 -2.725186 -0.344051 39.546602 -0.040917 -0.830694 0.555223 0 0
    6 -2.743261 -2.282322 15.411017 0.163770 -0.829352 0.534187 0 0
  phy
    6 -4.743224 -2.269958 15.411523 0.043264 0.951004 0.306137 0 0
    6 -4.761924 -5.304814 15.655259 0.040917 0.830694 -0.555223 0 0
    6 -4.743848 -3.366543 39.790842 -0.163770 0.829352 -0.534187 0 0
  phy
    6 -4.743224 -2.269958 15.411523 0.043264 0.951004 0.306137 0 0
    6 -4.743848 -3.366543 39.790842 -0.163770 0.829352 -0.534187 0 0
    6 -4.725148 -0.331687 39.547105 0.025241 0.605036 0.795798 0 0
  phy
    6 -2.725186 -0.344051 39.546602 -0.040917 -0.830694 0.555223 0 0
    6 -4.725148 -0.331687 39.547105 0.025241 0.605036 0.795798 0 0
    6 -4.743848 -3.366543 39.790842 -0.163770 0.829352 -0.534187 0 0
  phy
    6 -2.725186 -0.344051 39.546602 -0.040917 -0.830694 0.555223 0 0
    6 -4.743848 -3.366543 39.790842 -0.163770 0.829352 -0.534187 0 0
    6 -2.743886 -3.378908 39.790339 -0.043264 -0.951004 -0.306137 0 0
  phy
    6 -2.761962 -5.317177 15.654754 -0.025241 -0.605035 -0.795798 0 0
    6 -2.743886 -3.378908 39.790339 -0.043264 -0.951004 -0.306137 0 0
    6 -4.743848 -3.366543 39.790842 -0.163770 0.829352 -0.534187 0 0
  phy
    6 -2.761962 -5.317177 15.654754 -0.025241 -0.605035 -0.795798 0 0
    6 -4.743848 -3.366543 39.790842 -0.163770 0.829352 -0.534187 0 0
    6 -4.761924 -5.304814 15.655259 0.040917 0.830694 -0.555223 0 0
  phy
    6 -2.761962 -5.317177 15.654754 -0.025241 -0.605035 -0.795798 0 0
    6 -2.743261 -2.282322 15.411017 0.163770 -0.829352 0.534187 0 0
    6 -2.743886 -3.378908 39.790339 -0.043264 -0.951004 -0.306137 0 0
  phy
    6 -2.743261 -2.282322 15.411017 0.163770 -0.829352 0.534187 0 0
    6 -2.725186 -0.344051 39.546602 -0.040917 -0.830694 0.555223 0 0
    6 -2.743886 -3.378908 39.790339 -0.043264 -0.951004 -0.306137 0 0
  phy
    14 -2.505973 -6.383062 67.366708 -0.550294 -0.628606 -0.549573 0 0
    14 -2.379414 -0.968339 68.653578 -0.642518 -0.695242 0.322194 0 0
    14 2.494782 -6.496734 67.353191 -0.647988 0.352219 -0.675317 0 0
  phy
    14 2.494782 -6.496734 67.353191 -0.647988 0.352219 -0.675317 0 0
    14 -2.379414 -0.968339 68.653578 -0.642518 -0.695242 0.322194 0 0
    14 2.621343 -1.082011 68.640061 -0.325984 0.720257 0.612344 0 0
  phy
    14 -2.520530 -7.664588 72.760376 0.325983 -0.720257 -0.612344 0 0
    14 -2.505973 -6.383062 67.366708 -0.550294 -0.628606 -0.549573 0 0
    14 2.494782 -6.496734 67.353191 -0.647988 0.352219 -0.675317 0 0
  phy
    14 -2.520530 -7.664588 72.760376 0.325983 -0.720257 -0.612344 0 0
    14 2.494782 -6.496734 67.353191 -0.647988 0.352219 -0.675317 0 0
    14 2.480226 -7.778260 72.746859 0.642518 0.695242 -0.322194 0 0
  phy
    14 -2.505973 -6.383062 67.366708 -0.550294 -0.628606 -0.549573 0 0
    14 -2.520530 -7.664588 72.760376 0.325983 -0.720257 -0.612344 0 0
    14 -2.379414 -0.968339 68.653578 -0.642518 -0.695242 0.322194 0 0
  phy
    14 -2.520530 -7.664588 72.760376 0.325983 -0.720257 -0.612344 0 0
    14 -2.393970 -2.249864 74.047247 0.647988 -0.352219 0.675317 0 0
    14 -2.379414 -0.968339 68.653578 -0.642518 -0.695242 0.322194 0 0
  phy
    14 -2.520530 -7.664588 72.760376 0.325983 -0.720257 -0.612344 0 0
    14 2.480226 -7.778260 72.746859 0.642518 0.695242 -0.322194 0 0
    14 -2.393970 -2.249864 74.047247 0.647988 -0.352219 0.675317 0 0
  phy
    14 2.480226 -7.778260 72.746859 0.642518 0.695242 -0.322194 0 0
    14 2.606787 -2.363535 74.033730 0.550295 0.628606 0.549573 0 0
    14 -2.393970 -2.249864 74.047247 0.647988 -0.352219 0.675317 0 0
  phy
    14 2.480226 -7.778260 72.746859 0.642518 0.695242 -0.322194 0 0
    14 2.494782 -6.496734 67.353191 -0.647988 0.352219 -0.675317 0 0
    14 2.621343 -1.082011 68.640061 -0.325984 0.720257 0.612344 0 0
  phy
    14 2.480226 -7.778260 72.746859 0.642518 0.695242 -0.322194 0 0
    14 2.621343 -1.082011 68.640061 -0.325984 0.720257 0.612344 0 0
    14 2.606787 -2.363535 74.033730 0.550295 0.628606 0.549573 0 0
  phy
    14 2.621343 -1.082011 68.640061 -0.325984 0.720257 0.612344 0 0
    14 -2.393970 -2.249864 74.047247 0.647988 -0.352219 0.675317 0 0
    14 2.606787 -2.363535 74.033730 0.550295 0.628606 0.549573 0 0
  phy
    14 2.621343 -1.082011 68.640061 -0.325984 0.720257 0.612344 0 0
    14 -2.379414 -0.968339 68.653578 -0.642518 -0.695242 0.322194 0 0
    14 -2.393970 -2.249864 74.047247 0.647988 -0.352219 0.675317 0 0
  phy
    1 5.684019 -0.683458 42.089114 0.305524 -0.915125 0.263062 0 0
    1 5.689548 -4.961881 46.976451 -0.567701 -0.707719 -0.420535 0 0
    1 5.690221 -5.324805 42.462261 0.684390 -0.577817 -0.444678 0 0
  phy
    1 5.684019 -0.683458 42.089114 0.305524 -0.915125 0.263062 0 0
    1 5.683346 -0.320533 46.603305 -0.314274 -0.547818 0.775324 0 0
    1 5.689548 -4.961881 46.976451 -0.567701 -0.707719 -0.420535 0 0
  phy
    1 5.690221 -5.324805 42.462261 0.684390 -0.577817 -0.444678 0 0
    1 2.615561 -0.687568 42.088987 0.567701 0.707719 0.420535 0 0
    1 5.684019 -0.683458 42.089114 0.305524 -0.915125 0.263062 0 0
  phy
    1 5.690221 -5.324805 42.462261 0.684390 -0.577817 -0.444678 0 0
    1 2.621763 -5.328916 42.462134 0.314274 0.547818 -0.775324 0 0
    1 2.615561 -0.687568 42.088987 0.567701 0.707719 0.420535 0 0
  phy
    1 5.684019 -0.683458 42.089114 0.305524 -0.915125 0.263062 0 0
    1 2.615561 -0.687568 42.088987 0.567701 0.707719 0.420535 0 0
    1 5.683346 -0.320533 46.603305 -0.314274 -0.547818 0.775324 0 0
  phy
    1 2.615561 -0.687568 42.088987 0.567701 0.707719 0.420535 0 0
    1 2.614887 -0.324644 46.603177 -0.684390 0.577817 0.444678 0 0
    1 5.683346 -0.320533 46.603305 -0.314274 -0.547818 0.775324 0 0
  phy
    1 5.690221 -5.324805 42.462261 0.684390 -0.577817 -0.444678 0 0
    1 5.689548 -4.961881 46.976451 -0.567701 -0.707719 -0.420535 0 0
    1 2.621763 -5.328916 42.462134 0.314274 0.547818 -0.775324 0 0
  phy
    1 2.621763 -5.328916 42.462134 0.314274 0.547818 -0.775324 0 0
    1 5.689548 -4.961881 46.976451 -0.567701 -0.707719 -0.420535 0 0
    1 2.621089 -4.965992 46.976324 -0.305524 0.915125 -0.263062 0 0
  phy
    1 5.689548 -4.961881 46.976451 -0.567701 -0.707719 -0.420535 0 0
    1 5.683346 -0.320533 46.603305 -0.314274 -0.547818 0.775324 0 0
    1 2.614887 -0.324644 46.603177 -0.684390 0.577817 0.444678 0 0
  phy
    1 5.689548 -4.961881 46.976451 -0.567701 -0.707719 -0.420535 0 0
    1 2.614887 -0.324644 46.603177 -0.684390 0.577817 0.444678 0 0
    1 2.621089 -4.965992 46.976324 -0.305524 0.915125 -0.263062 0 0
  phy
    1 2.621089 -4.965992 46.976324 -0.305524 0.915125 -0.263062 0 0
    1 2.614887 -0.324644 46.603177 -0.684390 0.577817 0.444678 0 0
    1 2.615561 -0.687568 42.088987 0.567701 0.707719 0.420535 0 0
  phy
    1 2.621089 -4.965992 46.976324 -0.305524 0.915125 -0.263062 0 0
    1 2.615561 -0.687568 42.088987 0.567701 0.707719 0.420535 0 0
    1 2.621763 -5.328916 42.462134 0.314274 0.547818 -0.775324 0 0
  phy
    2 4.390047 -2.271245 15.411343 0.043236 -0.951003 0.306144 0 0
    2 2.390086 -2.283781 15.410830 0.163722 0.829353 0.534199 0 0
    2 4.371716 -0.335388 39.547123 0.025169 -0.605034 0.795802 0 0
  phy
    2 2.390086 -2.283781 15.410830 0.163722 0.829353 0.534199 0 0
    2 2.371754 -0.347925 39.546609 -0.040966 0.830696 0.555217 0 0
    2 4.371716 -0.335388 39.547123 0.025169 -0.605034 0.795802 0 0
  phy
    2 4.390047 -2.271245 15.411343 0.043236 -0.951003 0.306144 0 0
    2 4.390677 -3.370268 39.790555 -0.163722 -0.829353 -0.534199 0 0
    2 4.409009 -5.306124 15.654775 0.040966 -0.830696 -0.555217 0 0
  phy
    2 4.390047 -2.271245 15.411343 0.043236 -0.951003 0.306144 0 0
    2 4.371716 -0.335388 39.547123 0.025169 -0.605034 0.795802 0 0
    2 4.390677 -3.370268 39.790555 -0.163722 -0.829353 -0.534199 0 0
  phy
    2 4.409009 -5.306124 15.654775 0.040966 -0.830696 -0.555217 0 0
    2 2.390086 -2.283781 15.410830 0.163722 0.829353 0.534199 0 0
    2 4.390047 -2.271245 15.411343 0.043236 -0.951003 0.306144 0 0
  phy
    2 4.409009 -5.306124 15.654775 0.040966 -0.830696 -0.555217 0 0
    2 2.409047 -5.318661 15.654261 -0.025169 0.605034 -0.795802 0 0
    2 2.390086 -2.283781 15.410830 0.163722 0.829353 0.534199 0 0
  phy
    2 4.409009 -5.306124 15.654775 0.040966 -0.830696 -0.555217 0 0
    2 4.390677 -3.370268 39.790555 -0.163722 -0.829353 -0.534199 0 0
    2 2.409047 -5.318661 15.654261 -0.025169 0.605034 -0.795802 0 0
  phy
    2 2.409047 -5.318661 15.654261 -0.025169 0.605034 -0.795802 0 0
    2 4.390677 -3.370268 39.790555 -0.163722 -0.829353 -0.534199 0 0
    2 2.390716 -3.382805 39.790042 -0.043236 0.951003 -0.306144 0 0
  phy
    2 2.390716 -3.382805 39.790042 -0.043236 0.951003 -0.306144 0 0
    2 2.371754 -0.347925 39.546609 -0.040966 0.830696 0.555217 0 0
    2 2.390086 -2.283781 15.410830 0.163722 0.829353 0.534199 0 0
  phy
    2 2.390716 -3.382805 39.790042 -0.043236 0.951003 -0.306144 0 0
    2 2.390086 -2.283781 15.410830 0.163722 0.829353 0.534199 0 0
    2 2.409047 -5.318661 15.654261 -0.025169 0.605034 -0.795802 0 0
  phy
    2 4.371716 -0.335388 39.547123 0.025169 -0.605034 0.795802 0 0
    2 2.371754 -0.347925 39.546609 -0.040966 0.830696 0.555217 0 0
    2 4.390677 -3.370268 39.790555 -0.163722 -0.829353 -0.534199 0 0
  phy
    2 4.390677 -3.370268 39.790555 -0.163722 -0.829353 -0.534199 0 0
    2 2.371754 -0.347925 39.546609 -0.040966 0.830696 0.555217 0 0
    2 2.390716 -3.382805 39.790042 -0.043236 0.951003 -0.306144 0 0
  phy
    3 1.557628 -5.365556 1.274805 0.114748 0.684713 -0.719723 0 0
    3 3.458604 -5.071922 -0.798857 0.517789 -0.651112 0.554930 0 0
    3 3.534517 -5.626881 1.121107 -0.094901 -0.425676 -0.899885 0 0
  phy
    3 1.557628 -5.365556 1.274805 0.114748 0.684713 -0.719723 0 0
    3 1.481715 -4.810597 -0.645158 0.174149 0.898556 0.402827 0 0
    3 3.458604 -5.071922 -0.798857 0.517789 -0.651112 0.554930 0 0
  phy
    3 1.481715 -4.810597 -0.645158 0.174149 0.898556 0.402827 0 0
    3 1.557628 -5.365556 1.274805 0.114748 0.684713 -0.719723 0 0
    3 2.445731 0.394298 2.904557 -0.517789 0.651112 -0.554930 0 0
  phy
    3 1.481715 -4.810597 -0.645158 0.174149 0.898556 0.402827 0 0
    3 2.445731 0.394298 2.904557 -0.517789 0.651112 -0.554930 0 0
    3 2.369819 0.949257 0.984594 0.094901 0.425676 0.899885 0 0
  phy
    3 2.445731 0.394298 2.904557 -0.517789 0.651112 -0.554930 0 0
    3 1.557628 -5.365556 1.274805 0.114748 0.684713 -0.719723 0 0
    3 3.534517 -5.626881 1.121107 -0.094901 -0.425676 -0.899885 0 0
  phy
    3 2.445731 0.394298 2.904557 -0.517789 0.651112 -0.554930 0 0
    3 3.534517 -5.626881 1.121107 -0.094901 -0.425676 -0.899885 0 0
    3 4.422620 0.132974 2.750859 -0.174149 -0.898556 -0.402827 0 0
  phy
    3 3.458604 -5.071922 -0.798857 0.517789 -0.651112 0.554930 0 0
    3 4.422620 0.132974 2.750859 -0.174149 -0.898556 -0.402827 0 0
    3 3.534517 -5.626881 1.121107 -0.094901 -0.425676 -0.899885 0 0
  phy
    3 3.458604 -5.071922 -0.798857 0.517789 -0.651112 0.554930 0 0
    3 4.346707 0.687933 0.830896 -0.114748 -0.684713 0.719723 0 0
    3 4.422620 0.132974 2.750859 -0.174149 -0.898556 -0.402827 0 0
  phy
    3 4.346707 0.687933 0.830896 -0.114748 -0.684713 0.719723 0 0
    3 2.369819 0.949257 0.984594 0.094901 0.425676 0.899885 0 0
    3 2.445731 0.394298 2.904557 -0.517789 0.651112 -0.554930 0 0
  phy
    3 4.346707 0.687933 0.830896 -0.114748 -0.684713 0.719723 0 0
    3 2.445731 0.394298 2.904557 -0.517789 0.651112 -0.554930 0 0
    3 4.422620 0.132974 2.750859 -0.174149 -0.898556 -0.402827 0 0
  phy
    3 4.346707 0.687933 0.830896 -0.114748 -0.684713 0.719723 0 0
    3 3.458604 -5.071922 -0.798857 0.517789 -0.651112 0.554930 0 0
    3 2.369819 0.949257 0.984594 0.094901 0.425676 0.899885 0 0
  phy
    3 3.458604 -5.071922 -0.798857 0.517789 -0.651112 0.554930 0 0
    3 1.481715 -4.810597 -0.645158 0.174149 0.898556 0.402827 0 0
    3 2.369819 0.949257 0.984594 0.094901 0.425676 0.899885 0 0
  phy
    7 -2.406664 0.402493 2.906461 -0.593776 -0.393770 -0.701695 0 0
    7 -2.338786 0.957637 0.986251 0.033373 -0.677799 0.734489 0 0
    7 -4.314818 0.686818 0.838103 -0.025598 0.889328 0.456553 0 0
  phy
    7 -2.406664 0.402493 2.906461 -0.593776 -0.393770 -0.701695 0 0
    7 -4.314818 0.686818 0.838103 -0.025598 0.889328 0.456553 0 0
    7 -4.382696 0.131673 2.758313 -0.353283 0.708213 -0.611249 0 0
  phy
    7 -2.406664 0.402493 2.906461 -0.593776 -0.393770 -0.701695 0 0
    7 -4.382696 0.131673 2.758313 -0.353283 0.708213 -0.611249 0 0
    7 -3.471531 -5.624002 1.126522 -0.033373 0.677799 -0.734489 0 0
  phy
    7 -2.406664 0.402493 2.906461 -0.593776 -0.393770 -0.701695 0 0
    7 -3.471531 -5.624002 1.126522 -0.033373 0.677799 -0.734489 0 0
    7 -1.495499 -5.353183 1.274670 0.025598 -0.889328 -0.456553 0 0
  phy
    7 -3.471531 -5.624002 1.126522 -0.033373 0.677799 -0.734489 0 0
    7 -4.382696 0.131673 2.758313 -0.353283 0.708213 -0.611249 0 0
    7 -4.314818 0.686818 0.838103 -0.025598 0.889328 0.456553 0 0
  phy
    7 -3.471531 -5.624002 1.126522 -0.033373 0.677799 -0.734489 0 0
    7 -4.314818 0.686818 0.838103 -0.025598 0.889328 0.456553 0 0
    7 -3.403653 -5.068858 -0.793687 0.593776 0.393770 0.701695 0 0
  phy
    7 -1.495499 -5.353183 1.274670 0.025598 -0.889328 -0.456553 0 0
    7 -2.338786 0.957637 0.986251 0.033373 -0.677799 0.734489 0 0
    7 -2.406664 0.402493 2.906461 -0.593776 -0.393770 -0.701695 0 0
  phy
    7 -1.495499 -5.353183 1.274670 0.025598 -0.889328 -0.456553 0 0
    7 -1.427620 -4.798039 -0.645540 0.353283 -0.708213 0.611249 0 0
    7 -2.338786 0.957637 0.986251 0.033373 -0.677799 0.734489 0 0
  phy
    7 -3.471531 -5.624002 1.126522 -0.033373 0.677799 -0.734489 0 0
    7 -3.403653 -5.068858 -0.793687 0.593776 0.393770 0.701695 0 0
    7 -1.495499 -5.353183 1.274670 0.025598 -0.889328 -0.456553 0 0
  phy
    7 -3.403653 -5.068858 -0.793687 0.593776 0.393770 0.701695 0 0
    7 -1.427620 -4.798039 -0.645540 0.353283 -0.708213 0.611249 0 0
    7 -1.495499 -5.353183 1.274670 0.025598 -0.889328 -0.456553 0 0
  phy
    7 -1.427620 -4.798039 -0.645540 0.353283 -0.708213 0.611249 0 0
    7 -3.403653 -5.068858 -0.793687 0.593776 0.393770 0.701695 0 0
    7 -2.338786 0.957637 0.986251 0.033373 -0.677799 0.734489 0 0
  phy
    7 -3.403653 -5.068858 -0.793687 0.593776 0.393770 0.701695 0 0
    7 -4.314818 0.686818 0.838103 -0.025598 0.889328 0.456553 0 0
    7 -2.338786 0.957637 0.986251 0.033373 -0.677799 0.734489 0 0
end
